<?xml version="1.0" encoding="utf-8"?>
<!-- Generator: Adobe Illustrator 16.0.0, SVG Export Plug-In . SVG Version: 6.00 Build 0)  -->
<!DOCTYPE svg PUBLIC "-//W3C//DTD SVG 1.1//EN" "http://www.w3.org/Graphics/SVG/1.1/DTD/svg11.dtd">
<svg version="1.1" id="Layer_1" xmlns="http://www.w3.org/2000/svg" xmlns:xlink="http://www.w3.org/1999/xlink" x="0px" y="0px"
	 width="42.333px" height="177.5px" viewBox="0 0 42.333 177.5" enable-background="new 0 0 42.333 177.5" xml:space="preserve">
<path fill="#FFFFFF" d="M37.691,16.568c-2.324-0.856-4.918,0.335-5.777,2.667l-6.205,16.838V5.905c0-2.485-2.016-4.5-4.5-4.5
	c-2.485,0-4.5,2.015-4.5,4.5V36.07l-6.204-16.835c-0.86-2.333-3.448-3.528-5.779-2.667c-2.333,0.86-3.526,3.447-2.667,5.779
	l14.053,38.14c-8.733,1.41-15.03,9.597-13.733,18.678l13.158,92.164c0.404,2.823,2.82,4.921,5.672,4.921s5.268-2.098,5.672-4.921
	l13.158-92.164c1.297-9.081-5.001-17.269-13.734-18.678l14.055-38.14C41.215,20.015,40.023,17.427,37.691,16.568z"/>
</svg>
