<?xml version="1.0" encoding="utf-8"?>
<!-- Generator: Adobe Illustrator 16.0.0, SVG Export Plug-In . SVG Version: 6.00 Build 0)  -->
<!DOCTYPE svg PUBLIC "-//W3C//DTD SVG 1.1//EN" "http://www.w3.org/Graphics/SVG/1.1/DTD/svg11.dtd">
<svg version="1.1" id="Layer_1" xmlns:figma="http://www.figma.com/figma/ns"
	 xmlns="http://www.w3.org/2000/svg" xmlns:xlink="http://www.w3.org/1999/xlink" x="0px" y="0px" width="18px" height="30px"
	 viewBox="0 0 18 30" enable-background="new 0 0 18 30" xml:space="preserve">
<title>Money Crate Illustration Icon</title>
<desc>Created using Figma</desc>
<path id="path0_fill" fill="#FFFFFF" d="M3.837,29.682c-0.465,0-0.841-0.377-0.841-0.841V28.5c0-0.276,0.224-0.5,0.5-0.5v-8.319
	h-0.61c-0.196,0-0.355-0.159-0.355-0.355s0.159-0.355,0.355-0.355h12.272c0.196,0,0.355,0.159,0.355,0.355s-0.159,0.355-0.355,0.355
	h-0.661V28c0.27,0.02,0.479,0.243,0.48,0.514l0.002,0.311c0.002,0.473-0.381,0.857-0.854,0.857H3.837z M9.186,21.926v-0.345
	c0-0.138-0.112-0.25-0.25-0.25s-0.25,0.112-0.25,0.25v0.345c-0.236,0.021-0.471,0.072-0.657,0.146
	c-0.256,0.103-0.381,0.394-0.278,0.649c0.103,0.257,0.394,0.381,0.65,0.278c0.092-0.038,0.18-0.062,0.285-0.075v1.115
	c-0.256-0.092-0.413-0.164-0.515-0.24c-0.083-0.062-0.128-0.117-0.128-0.307c0-0.275-0.224-0.5-0.5-0.5s-0.5,0.225-0.5,0.5
	c0,0.472,0.168,0.838,0.53,1.107c0.289,0.216,0.69,0.357,1.114,0.496v1.318c-0.391-0.068-0.653-0.313-0.731-0.459
	c-0.129-0.244-0.432-0.336-0.676-0.207c-0.244,0.131-0.336,0.434-0.207,0.677c0.239,0.448,0.831,0.923,1.613,0.997v0.414
	c0,0.138,0.112,0.25,0.25,0.25s0.25-0.112,0.25-0.25v-0.418c0.318-0.031,0.643-0.118,0.919-0.295
	c0.387-0.247,0.646-0.654,0.646-1.198c0-0.526-0.222-0.923-0.57-1.208c-0.283-0.233-0.643-0.387-0.996-0.508v-1.28
	c0.512,0.052,0.718,0.238,0.82,0.375c0.164,0.222,0.478,0.269,0.699,0.104s0.268-0.478,0.104-0.699
	C10.498,22.291,9.992,21.984,9.186,21.926z M9.186,25.279v1.131c0.159-0.024,0.289-0.07,0.38-0.129
	c0.116-0.074,0.186-0.172,0.186-0.356c0-0.204-0.068-0.324-0.204-0.436C9.458,25.415,9.338,25.347,9.186,25.279z"/>
<path id="path1_stroke" fill="#FFFFFF" d="M8.699,19.441c0.244,0.13,0.547,0.039,0.678-0.205c0.13-0.244,0.038-0.547-0.205-0.678
	L8.699,19.441z M0.448,11.566c0.213,1.041,0.873,2.047,1.682,2.951c0.809,0.903,1.821,1.763,2.787,2.485
	c0.967,0.725,1.917,1.336,2.614,1.762c0.35,0.213,0.643,0.383,0.845,0.497c0.102,0.058,0.183,0.103,0.237,0.133
	c0.027,0.015,0.049,0.026,0.063,0.034c0.007,0.004,0.013,0.008,0.017,0.01c0.002,0.001,0.004,0.002,0.005,0.002l0.001,0.001l0,0
	c0,0,0,0.001,0.236-0.44s0.236-0.441,0.236-0.441l0,0l0,0c-0.001,0-0.002-0.001-0.004-0.002c-0.003-0.002-0.008-0.004-0.015-0.008
	c-0.014-0.006-0.032-0.018-0.058-0.031c-0.053-0.029-0.128-0.07-0.226-0.127c-0.198-0.111-0.478-0.273-0.819-0.48
	c-0.686-0.419-1.596-1.005-2.535-1.709c-0.94-0.704-1.88-1.498-2.641-2.351c-0.771-0.864-1.5-2.226-1.667-3.194L0.448,11.566z"/>
<path id="path2_stroke" fill="#FFFFFF" d="M16.662,11.069c0.048-0.271,0.308-0.453,0.58-0.405c0.271,0.049,0.452,0.309,0.404,0.581
	L16.662,11.069z M9.204,19.463c-0.255,0.104-0.548-0.017-0.653-0.272c-0.105-0.255,0.017-0.547,0.272-0.653L9.204,19.463z
	 M17.646,11.245c-0.467,2.627-2.65,4.688-4.598,6.059c-0.984,0.691-1.951,1.234-2.656,1.596c-0.354,0.183-0.653,0.324-0.857,0.418
	c-0.103,0.047-0.186,0.083-0.241,0.106c-0.028,0.013-0.05,0.022-0.065,0.028c-0.007,0.003-0.014,0.005-0.018,0.007
	c-0.002,0.001-0.003,0.002-0.005,0.002c0,0-0.001,0.001-0.001,0.001c0,0,0,0,0,0c0,0.001,0,0.001-0.191-0.462
	c-0.19-0.463-0.19-0.463-0.19-0.463l0,0l0,0c0.001,0,0.002,0,0.003-0.001c0.003-0.001,0.007-0.003,0.014-0.006
	c0.013-0.005,0.031-0.014,0.057-0.023c0.052-0.023,0.126-0.056,0.224-0.101c0.197-0.09,0.475-0.222,0.815-0.396
	c0.689-0.352,1.596-0.862,2.537-1.525c1.908-1.342,3.795-3.202,4.189-5.416L17.646,11.245z"/>
<path id="path3_stroke" fill="#FFFFFF" d="M4.789,11.302c0.218,1.669,1.194,3.589,2.073,5.048c0.445,0.737,0.88,1.382,1.199,1.834
	c0.161,0.228,0.295,0.411,0.387,0.535c0.047,0.062,0.084,0.112,0.109,0.146c0.012,0.016,0.022,0.029,0.029,0.037
	c0.003,0.006,0.006,0.008,0.007,0.011c0.001,0,0.002,0.002,0.003,0.002v0.001c0,0.001,0,0.001,0,0.001c0.001,0,0.001,0,0.396-0.307
	c0.396-0.308,0.396-0.308,0.396-0.308l0,0l0,0c-0.001,0-0.001,0-0.002-0.002s-0.003-0.004-0.006-0.008
	c-0.006-0.008-0.015-0.019-0.026-0.034c-0.024-0.03-0.058-0.075-0.103-0.136c-0.09-0.121-0.217-0.294-0.372-0.515
	c-0.312-0.444-0.729-1.06-1.16-1.773c-0.872-1.448-1.763-3.294-1.953-4.741L4.789,11.302z"/>
<path id="path4_stroke" fill="#FFFFFF" d="M13.312,11.114c-0.322,1.852-1.302,3.831-2.178,5.298
	c-0.441,0.736-0.866,1.366-1.176,1.803c-0.155,0.221-0.285,0.396-0.375,0.516c-0.045,0.06-0.08,0.107-0.104,0.139
	c-0.012,0.016-0.022,0.027-0.028,0.036c-0.003,0.004-0.006,0.007-0.008,0.01c0,0.001-0.001,0.002-0.002,0.003h0h0
	c0,0.001,0,0.001-0.393-0.309c-0.393-0.309-0.393-0.309-0.393-0.309l0,0c0,0,0,0,0-0.001c0,0,0.001-0.001,0.001-0.001
	c0.001-0.002,0.003-0.004,0.006-0.008c0.006-0.008,0.014-0.018,0.025-0.032c0.023-0.03,0.055-0.072,0.098-0.129
	c0.086-0.115,0.208-0.28,0.358-0.493c0.303-0.428,0.707-1.025,1.132-1.738c0.857-1.433,1.765-3.243,2.052-4.953L13.312,11.114z"/>
<path id="path5_fill" fill="#FFFFFF" d="M9,0C4.029,0,0,3.975,0,8.879c0,1.271,0.271,2.48,0.759,3.574
	c0.125-1.396,1.234-3.462,4.675-0.559c1.075-3.574,6.339-3.183,7.189,0c2.83-3.015,4.004-1.061,4.645,0.559
	C17.68,11.434,18,10.043,18,8.879C18,3.975,13.971,0,9,0z"/>
<path id="path6_fill" fill="#FFFFFF" d="M11.455,0.412C10.678,0.195,9.857,0.08,9.009,0.08c-0.889,0-1.748,0.127-2.56,0.364
	C4.333,2.989,4.912,7.557,5.288,10.522c0.067,0.531,0.128,1.011,0.166,1.418c1.098-3.538,6.332-3.139,7.179,0.034
	c0.058-0.062,0.115-0.122,0.171-0.179C14.069,7.852,13.312,2.289,11.455,0.412z"/>
</svg>
