<?xml version="1.0" encoding="utf-8"?>
<!-- Generator: Adobe Illustrator 16.0.0, SVG Export Plug-In . SVG Version: 6.00 Build 0)  -->
<!DOCTYPE svg PUBLIC "-//W3C//DTD SVG 1.1//EN" "http://www.w3.org/Graphics/SVG/1.1/DTD/svg11.dtd">
<svg version="1.1" id="Layer_1" xmlns:figma="http://www.figma.com/figma/ns"
	 xmlns="http://www.w3.org/2000/svg" xmlns:xlink="http://www.w3.org/1999/xlink" x="0px" y="0px" width="18.41px" height="30px"
	 viewBox="-1.41 0 18.41 30" enable-background="new -1.41 0 18.41 30" xml:space="preserve">
<title>Net Icon</title>
<desc>Created using Figma</desc>
<path fill="#FFFFFF" d="M-0.58,3.225c-0.643,0.481-1.528,2.254,0.075,5.495c1.646,3.328,3.314,3.902,4.021,3.919l8.307,16.805
	c0.245,0.495,0.845,0.698,1.341,0.453c0.494-0.245,0.697-0.845,0.453-1.34L5.274,11.68c0.618-0.726,1.701-1.793,3.01-2.405
	c2.707-1.266,4.846-1.6,6.331-1.832c1.395-0.218,2.209-0.345,2.367-1.067C17.558,4.131,4.847,0.542-0.58,3.225z M3.731,11.607
	c-0.816,0.404-2.396-1.126-3.396-3.151c-1.001-2.025-1.188-4.065-0.371-4.468S2.289,4.97,3.289,6.996
	C4.29,9.02,4.547,11.204,3.731,11.607z"/>
</svg>
