<?xml version="1.0" encoding="utf-8"?>
<!-- Generator: Adobe Illustrator 16.0.0, SVG Export Plug-In . SVG Version: 6.00 Build 0)  -->
<!DOCTYPE svg PUBLIC "-//W3C//DTD SVG 1.1//EN" "http://www.w3.org/Graphics/SVG/1.1/DTD/svg11.dtd">
<svg version="1.1" id="Layer_1" xmlns:figma="http://www.figma.com/figma/ns"
	 xmlns="http://www.w3.org/2000/svg" xmlns:xlink="http://www.w3.org/1999/xlink" x="0px" y="0px" width="184px" height="258.5px"
	 viewBox="0 32.5 184 258.5" enable-background="new 0 32.5 184 258.5" xml:space="preserve">
<g>
	<path fill="#FFFFFF" d="M178.522,108.498L162,110c-1.104,0-2,0.896-2,2v23.372c-1.798-2.707-4.666-4.631-8-5.192V84
		c0-6.627-5.373-12-12-12h-8.051c-0.509-6.158-5.66-11-11.949-11h-18V38.5c0-3.313-2.687-6-6-6H56c-3.313,0-6,2.687-6,6V61H32
		c-6.29,0-11.44,4.842-11.95,11H12C5.373,72,0,77.373,0,84v195c0,6.627,5.373,12,12,12h128c6.627,0,12-5.373,12-12v-94.18
		c5.673-0.954,10-5.876,10-11.82v-12c1.104,0,2-0.896,2-2v-41.818l14.522,1.32c2.941,0.268,5.478-2.048,5.478-5.002
		S181.464,108.23,178.522,108.498z M143,273c0,5.523-4.477,10-10,10H19c-5.523,0-10-4.477-10-10V143c0-5.523,4.477-10,10-10h114
		c5.523,0,10,4.477,10,10V273z"/>
	<circle fill="#FFFFFF" cx="24" cy="268" r="6"/>
	<circle fill="#FFFFFF" cx="24" cy="253" r="6"/>
	<circle fill="#FFFFFF" cx="24" cy="238" r="6"/>
	<circle fill="#FFFFFF" cx="24" cy="223" r="6"/>
	<circle fill="#FFFFFF" cx="24" cy="208" r="6"/>
	<circle fill="#FFFFFF" cx="24" cy="193" r="6"/>
	<circle fill="#FFFFFF" cx="24" cy="178" r="6"/>
	<circle fill="#FFFFFF" cx="24" cy="163" r="6"/>
	<circle fill="#FFFFFF" cx="24" cy="148" r="6"/>
	<circle fill="#FFFFFF" cx="39" cy="268" r="6"/>
	<circle fill="#FFFFFF" cx="39" cy="253" r="6"/>
	<circle fill="#FFFFFF" cx="39" cy="238" r="6"/>
	<circle fill="#FFFFFF" cx="39" cy="223" r="6"/>
	<circle fill="#FFFFFF" cx="39" cy="208" r="6"/>
	<circle fill="#FFFFFF" cx="39" cy="193" r="6"/>
	<circle fill="#FFFFFF" cx="39" cy="178" r="6"/>
	<circle fill="#FFFFFF" cx="39" cy="163" r="6"/>
	<circle fill="#FFFFFF" cx="39" cy="148" r="6"/>
	<circle fill="#FFFFFF" cx="54" cy="268" r="6"/>
	<circle fill="#FFFFFF" cx="54" cy="253" r="6"/>
	<circle fill="#FFFFFF" cx="54" cy="238" r="6"/>
	<circle fill="#FFFFFF" cx="54" cy="223" r="6"/>
	<circle fill="#FFFFFF" cx="54" cy="208" r="6"/>
	<circle fill="#FFFFFF" cx="54" cy="193" r="6"/>
	<circle fill="#FFFFFF" cx="54" cy="178" r="6"/>
	<circle fill="#FFFFFF" cx="54" cy="163" r="6"/>
	<circle fill="#FFFFFF" cx="54" cy="148" r="6"/>
	<circle fill="#FFFFFF" cx="69" cy="268" r="6"/>
	<circle fill="#FFFFFF" cx="69" cy="253" r="6"/>
	<circle fill="#FFFFFF" cx="69" cy="238" r="6"/>
	<circle fill="#FFFFFF" cx="69" cy="223" r="6"/>
	<circle fill="#FFFFFF" cx="69" cy="208" r="6"/>
	<circle fill="#FFFFFF" cx="69" cy="193" r="6"/>
	<circle fill="#FFFFFF" cx="69" cy="178" r="6"/>
	<circle fill="#FFFFFF" cx="69" cy="163" r="6"/>
	<circle fill="#FFFFFF" cx="69" cy="148" r="6"/>
	<circle fill="#FFFFFF" cx="84" cy="268" r="6"/>
	<circle fill="#FFFFFF" cx="84" cy="253" r="6"/>
	<circle fill="#FFFFFF" cx="84" cy="238" r="6"/>
	<circle fill="#FFFFFF" cx="84" cy="223" r="6"/>
	<circle fill="#FFFFFF" cx="84" cy="208" r="6"/>
	<circle fill="#FFFFFF" cx="84" cy="193" r="6"/>
	<circle fill="#FFFFFF" cx="84" cy="178" r="6"/>
	<circle fill="#FFFFFF" cx="84" cy="163" r="6"/>
	<circle fill="#FFFFFF" cx="84" cy="148" r="6"/>
	<circle fill="#FFFFFF" cx="99" cy="268" r="6"/>
	<circle fill="#FFFFFF" cx="99" cy="253" r="6"/>
	<circle fill="#FFFFFF" cx="99" cy="238" r="6"/>
	<circle fill="#FFFFFF" cx="99" cy="223" r="6"/>
	<circle fill="#FFFFFF" cx="99" cy="208" r="6"/>
	<circle fill="#FFFFFF" cx="99" cy="193" r="6"/>
	<circle fill="#FFFFFF" cx="99" cy="178" r="6"/>
	<circle fill="#FFFFFF" cx="99" cy="163" r="6"/>
	<circle fill="#FFFFFF" cx="99" cy="148" r="6"/>
	<circle fill="#FFFFFF" cx="114" cy="268" r="6"/>
	<circle fill="#FFFFFF" cx="114" cy="253" r="6"/>
	<circle fill="#FFFFFF" cx="114" cy="238" r="6"/>
	<circle fill="#FFFFFF" cx="114" cy="223" r="6"/>
	<circle fill="#FFFFFF" cx="114" cy="208" r="6"/>
	<circle fill="#FFFFFF" cx="114" cy="193" r="6"/>
	<circle fill="#FFFFFF" cx="114" cy="178" r="6"/>
	<circle fill="#FFFFFF" cx="114" cy="163" r="6"/>
	<circle fill="#FFFFFF" cx="114" cy="148" r="6"/>
	<circle fill="#FFFFFF" cx="129" cy="268" r="6"/>
	<circle fill="#FFFFFF" cx="129" cy="253" r="6"/>
	<circle fill="#FFFFFF" cx="129" cy="238" r="6"/>
	<circle fill="#FFFFFF" cx="129" cy="223" r="6"/>
	<circle fill="#FFFFFF" cx="129" cy="208" r="6"/>
	<circle fill="#FFFFFF" cx="129" cy="193" r="6"/>
	<circle fill="#FFFFFF" cx="129" cy="178" r="6"/>
	<circle fill="#FFFFFF" cx="129" cy="163" r="6"/>
	<circle fill="#FFFFFF" cx="129" cy="148" r="6"/>
</g>
</svg>
