<svg width="49" height="228" viewBox="0 0 49 228" version="1.1" xmlns="http://www.w3.org/2000/svg" xmlns:xlink="http://www.w3.org/1999/xlink" xmlns:figma="http://www.figma.com/figma/ns">
<title>Carrot</title>
<desc>Created using Figma</desc>
<g id="Canvas" transform="translate(940 -2035)" figma:type="canvas">
<g id="Carrot" style="mix-blend-mode:normal;" figma:type="frame">
<g id="fills" style="mix-blend-mode:normal;" figma:type="vector">
<use xlink:href="#path0_fill" transform="matrix(1 2.77556e-17 -2.77556e-17 1 -934 2145)" fill="url(#paint0_linear)" style="mix-blend-mode:normal;"/>
</g>
<g id="Strokes" style="mix-blend-mode:normal;" figma:type="frame">
<g id="Rectangle 11" style="mix-blend-mode:normal;" figma:type="vector">
<use xlink:href="#path1_stroke" transform="matrix(1 2.77556e-17 -2.77556e-17 1 -934 2145)" fill="#500960" style="mix-blend-mode:normal;"/>
</g>
<g id="Vector 24" style="mix-blend-mode:normal;" figma:type="vector">
<use xlink:href="#path2_stroke" transform="matrix(1 2.77556e-17 -2.77556e-17 1 -936 2165.02)" fill="#500960" style="mix-blend-mode:normal;"/>
</g>
<g id="Vector 24" style="mix-blend-mode:normal;" figma:type="vector">
<use xlink:href="#path3_stroke" transform="matrix(0.97455 -0.224169 0.224169 0.97455 -937.386 2169.82)" fill="#500960" style="mix-blend-mode:normal;"/>
</g>
<g id="Vector" style="mix-blend-mode:normal;" figma:type="vector">
<use xlink:href="#path4_stroke" transform="matrix(-3.83476e-17 -1 -1 3.83476e-17 -918.5 2176)" fill="#500960" style="mix-blend-mode:normal;"/>
</g>
<g id="Vector" style="mix-blend-mode:normal;" figma:type="vector">
<use xlink:href="#path5_stroke" transform="matrix(3.34768e-17 1 -1 3.34768e-17 -923 2196)" fill="#500960" style="mix-blend-mode:normal;"/>
</g>
<g id="Vector" style="mix-blend-mode:normal;" figma:type="vector">
<use xlink:href="#path6_stroke" transform="matrix(3.34768e-17 1 -1 3.34768e-17 -920 2225)" fill="#500960" style="mix-blend-mode:normal;"/>
</g>
<g id="Vector" style="mix-blend-mode:normal;" figma:type="vector">
<use xlink:href="#path6_stroke" transform="matrix(3.34768e-17 1 -1 3.34768e-17 -917.5 2242)" fill="#500960" style="mix-blend-mode:normal;"/>
</g>
<g id="Vector" style="mix-blend-mode:normal;" figma:type="vector">
<use xlink:href="#path7_stroke" transform="matrix(3.34768e-17 1 -1 3.34768e-17 -900.5 2188)" fill="#500960" style="mix-blend-mode:normal;"/>
</g>
<g id="Vector" style="mix-blend-mode:normal;" figma:type="vector">
<use xlink:href="#path8_stroke" transform="matrix(3.34768e-17 1 -1 3.34768e-17 -902 2209)" fill="#500960" style="mix-blend-mode:normal;"/>
</g>
<g id="Vector" style="mix-blend-mode:normal;" figma:type="vector">
<use xlink:href="#path9_stroke" transform="matrix(3.34768e-17 1 -1 3.34768e-17 -907 2233)" fill="#500960" style="mix-blend-mode:normal;"/>
</g>
<g id="Vector" style="mix-blend-mode:normal;" figma:type="vector">
<use xlink:href="#path6_stroke" transform="matrix(3.34768e-17 1 -1 3.34768e-17 -908 2248)" fill="#500960" style="mix-blend-mode:normal;"/>
</g>
<g id="Vector 25" style="mix-blend-mode:normal;" figma:type="vector">
<use xlink:href="#path10_stroke" transform="translate(-923 2085)" fill="#500960" style="mix-blend-mode:normal;"/>
</g>
<g id="Vector" style="mix-blend-mode:normal;" figma:type="vector">
<use xlink:href="#path11_stroke" transform="matrix(-0.974799 -0.223085 -0.29934 0.954146 -899 2092)" fill="#500960" style="mix-blend-mode:normal;"/>
</g>
<g id="Vector" style="mix-blend-mode:normal;" figma:type="vector">
<use xlink:href="#path11_stroke" transform="matrix(0.974799 -0.223085 0.29934 0.954146 -931 2092)" fill="#500960" style="mix-blend-mode:normal;"/>
</g>
<g id="Vector" style="mix-blend-mode:normal;" figma:type="vector">
<use xlink:href="#path12_stroke" transform="translate(-915 2037)" fill="#500960" style="mix-blend-mode:normal;"/>
</g>
</g>
</g>
</g>
<defs>
<linearGradient id="paint0_linear" x1="0" y1="0" x2="1" y2="0" gradientUnits="userSpaceOnUse" gradientTransform="matrix(2.32683e-15 116 -38 7.10295e-15 38 -7.10295e-15)">
<stop offset="0" stop-color="#E08F69"/>
<stop offset="0.994444" stop-color="#D36C55"/>
</linearGradient>
<path id="path0_fill" d="M 0.169572 18.915C -1.25582 8.9318 6.48647 0 16.5655 0L 21.4345 0C 31.5135 0 39.2558 8.9318 37.8304 18.915L 24.6714 111.079C 24.2682 113.902 21.851 116 19 116C 16.149 116 13.7318 113.902 13.3286 111.079L 0.169572 18.915Z"/>
<path id="path1_stroke" d="M 24.6714 111.079L 26.6513 111.361L 24.6714 111.079ZM 0.169572 18.915L 2.14949 18.6323L 0.169572 18.915ZM 37.8304 18.915L 35.8505 18.6323L 37.8304 18.915ZM 13.3286 111.079L 15.3085 110.796L 13.3286 111.079ZM 33.5752 34.5681C 33.4191 35.6616 34.179 36.6746 35.2724 36.8307C 36.3659 36.9868 37.3789 36.227 37.535 35.1335L 33.5752 34.5681ZM 34.9856 52.9891C 35.1418 51.8956 34.3819 50.8826 33.2884 50.7265C 32.1949 50.5704 31.1819 51.3303 31.0258 52.4237L 34.9856 52.9891ZM 3.74493 58.1058C 3.90105 59.1993 4.91406 59.9592 6.00754 59.8031C 7.10102 59.6469 7.86089 58.6339 7.70477 57.5405L 3.74493 58.1058ZM 8.78678 65.1187C 8.63066 64.0252 7.61765 63.2654 6.52417 63.4215C 5.43069 63.5776 4.67082 64.5906 4.82694 65.6841L 8.78678 65.1187ZM 4.92246 66.3531C 5.07859 67.4466 6.09159 68.2065 7.18507 68.0503C 8.27855 67.8942 9.03843 66.8812 8.8823 65.7877L 4.92246 66.3531ZM 9.91492 73.02C 9.75879 71.9265 8.74578 71.1666 7.6523 71.3227C 6.55882 71.4789 5.79895 72.4919 5.95507 73.5853L 9.91492 73.02ZM 16.5655 2L 21.4345 2L 21.4345 -2L 16.5655 -2L 16.5655 2ZM 16.5655 -2C 5.26817 -2 -3.40758 8.01092 -1.81035 19.1977L 2.14949 18.6323C 0.895949 9.85269 7.70476 2 16.5655 2L 16.5655 -2ZM 21.4345 2C 30.2952 2 37.1041 9.85269 35.8505 18.6323L 39.8103 19.1977C 41.4076 8.01092 32.7318 -2 21.4345 -2L 21.4345 2ZM 22.6915 110.796C 22.4289 112.635 20.8548 114 19 114L 19 118C 22.8472 118 26.1075 115.17 26.6513 111.361L 22.6915 110.796ZM 19 114C 17.1452 114 15.5711 112.635 15.3085 110.796L 11.3487 111.361C 11.8925 115.17 15.1528 118 19 118L 19 114ZM 35.8505 18.6323L 33.5752 34.5681L 37.535 35.1335L 39.8103 19.1977L 35.8505 18.6323ZM 31.0258 52.4237L 22.6915 110.796L 26.6513 111.361L 34.9856 52.9891L 31.0258 52.4237ZM 7.70477 57.5405L 2.14949 18.6323L -1.81035 19.1977L 3.74493 58.1058L 7.70477 57.5405ZM 8.8823 65.7877L 8.78678 65.1187L 4.82694 65.6841L 4.92246 66.3531L 8.8823 65.7877ZM 15.3085 110.796L 9.91492 73.02L 5.95507 73.5853L 11.3487 111.361L 15.3085 110.796Z"/>
<path id="path2_stroke" d="M 1.26285 -1.55087C 0.40633 -2.24833 -0.853417 -2.11938 -1.55087 -1.26285C -2.24833 -0.40633 -2.11938 0.853417 -1.26285 1.55087L 1.26285 -1.55087ZM 42.864 1.80376C 43.8602 1.32659 44.2809 0.132203 43.8038 -0.863984C 43.3266 -1.86017 42.1322 -2.28092 41.136 -1.80376L 42.864 1.80376ZM -1.26285 1.55087C -0.452027 2.21112 0.986055 2.7406 2.40707 3.17169C 3.93037 3.63293 5.90708 4.11054 8.04696 4.52594C 12.3055 5.35036 17.5615 5.99623 22.1053 6L 22.1053 2C 17.8069 2.00377 12.9314 1.39964 8.8083 0.599061C 6.75739 0.201961 4.98082 -0.226678 3.56826 -0.65606C 2.87392 -0.866245 2.33842 -1.0528 1.88883 -1.24214C 1.46902 -1.4156 1.18741 -1.62423 1.26285 -1.55087L -1.26285 1.55087ZM 22.1053 6C 31.2632 6 39.4782 3.4255 42.864 1.80376L 41.136 -1.80376C 38.2586 -0.425502 30.6316 2 22.1053 2L 22.1053 6Z"/>
<path id="path3_stroke" d="M 1.31232 -1.50925C 0.478781 -2.23402 -0.784475 -2.14585 -1.50925 -1.31232C -2.23402 -0.478781 -2.14585 0.784475 -1.31232 1.50925L 1.31232 -1.50925ZM 45.8012 1.7806C 46.7846 1.27761 47.1741 0.0726563 46.6711 -0.910743C 46.1681 -1.89414 44.9632 -2.28359 43.9798 -1.7806L 45.8012 1.7806ZM -1.31232 1.50925C -0.46878 2.24272 1.0504 2.84372 2.57694 3.33822C 4.20413 3.86436 6.3155 4.4091 8.60217 4.88309C 13.1533 5.82393 18.7704 6.56098 23.6266 6.56527L 23.6266 2.56527C 19.0322 2.56956 13.8204 1.87996 9.41309 0.966154C 7.22056 0.512832 5.32033 0.0232513 3.80962 -0.467099C 3.06664 -0.707277 2.49176 -0.921152 2.00954 -1.13797C 1.55741 -1.33759 1.22096 -1.60152 1.31232 -1.50925L -1.31232 1.50925ZM 23.6266 6.56527C 33.4158 6.56527 42.1924 3.62644 45.8012 1.7806L 43.9798 -1.7806C 40.8944 -0.202489 32.7386 2.56527 23.6266 2.56527L 23.6266 6.56527Z"/>
<path id="path4_stroke" d="M -1 12.5C -1 13.0523 -0.552285 13.5 0 13.5C 0.552285 13.5 1 13.0523 1 12.5L -1 12.5ZM 1 0C 1 -0.552285 0.552285 -1 0 -1C -0.552285 -1 -1 -0.552285 -1 0L 1 0ZM 1 12.5L 1 0L -1 0L -1 12.5L 1 12.5Z"/>
<path id="path5_stroke" d="M -1 6C -1 6.55228 -0.552285 7 0 7C 0.552285 7 1 6.55228 1 6L -1 6ZM 1 0C 1 -0.552285 0.552285 -1 0 -1C -0.552285 -1 -1 -0.552285 -1 0L 1 0ZM 1 6L 1 0L -1 0L -1 6L 1 6Z"/>
<path id="path6_stroke" d="M -1 5C -1 5.55228 -0.552285 6 0 6C 0.552285 6 1 5.55228 1 5L -1 5ZM 1 0C 1 -0.552285 0.552285 -1 0 -1C -0.552285 -1 -1 -0.552285 -1 0L 1 0ZM 1 5L 1 0L -1 0L -1 5L 1 5Z"/>
<path id="path7_stroke" d="M -1 19.5004C -1 20.0527 -0.552285 20.5004 -1.50446e-14 20.5004C 0.552285 20.5004 1 20.0527 1 19.5004L -1 19.5004ZM 1 -2.73597e-15C 1 -0.552285 0.552285 -1 -2.73597e-15 -1C -0.552285 -1 -1 -0.552285 -1 2.73597e-15L 1 -2.73597e-15ZM 1 17.5C 1 16.9477 0.552285 16.5 4.51402e-14 16.5C -0.552285 16.5 -1 16.9477 -1 17.5L 1 17.5ZM -1 11C -1 11.5523 -0.552285 12 3.28316e-14 12C 0.552285 12 1 11.5523 1 11L -1 11ZM 1 19.5004L 1 17.5L -1 17.5L -1 19.5004L 1 19.5004ZM 1 11L 1 -2.73597e-15L -1 2.73597e-15L -1 11L 1 11Z"/>
<path id="path8_stroke" d="M -1 11C -1 11.5523 -0.552285 12 0 12C 0.552285 12 1 11.5523 1 11L -1 11ZM 1 0C 1 -0.552285 0.552285 -1 0 -1C -0.552285 -1 -1 -0.552285 -1 0L 1 0ZM 1 11L 1 0L -1 0L -1 11L 1 11Z"/>
<path id="path9_stroke" d="M -1 8C -1 8.55229 -0.552285 9 0 9C 0.552285 9 1 8.55229 1 8L -1 8ZM 1 0C 1 -0.552285 0.552285 -1 0 -1C -0.552285 -1 -1 -0.552285 -1 0L 1 0ZM 1 8L 1 0L -1 0L -1 8L 1 8Z"/>
<path id="path10_stroke" d="M 17.9825 0.264327C 18.1284 -0.830553 17.3592 -1.83647 16.2643 -1.98246C 15.1694 -2.12844 14.1635 -1.35921 14.0175 -0.264327L 17.9825 0.264327ZM 8 60L 6.01782 60.2664C 6.15127 61.2595 6.99902 62.0005 8.00103 62C 9.00304 61.9995 9.85003 61.2576 9.98246 60.2643L 8 60ZM 1.98218 0.202378C 1.83507 -0.892351 0.828357 -1.66055 -0.266372 -1.51343C -1.3611 -1.36632 -2.1293 -0.359607 -1.98218 0.735122L 1.98218 0.202378ZM 14.0175 -0.264327L 6.01754 59.7357L 9.98246 60.2643L 17.9825 0.264327L 14.0175 -0.264327ZM 9.98218 59.7336L 1.98218 0.202378L -1.98218 0.735122L 6.01782 60.2664L 9.98218 59.7336Z"/>
<path id="path11_stroke" d="M -2 53.4509C -2 54.5555 -1.10457 55.4509 0 55.4509C 1.10457 55.4509 2 54.5555 2 53.4509L -2 53.4509ZM 2 0C 2 -1.10457 1.10457 -2 0 -2C -1.10457 -2 -2 -1.10457 -2 0L 2 0ZM 2 53.4509L 2 0L -2 0L -2 53.4509L 2 53.4509Z"/>
<path id="path12_stroke" d="M -2 106C -2 107.105 -1.10457 108 0 108C 1.10457 108 2 107.105 2 106L -2 106ZM 2 0C 2 -1.10457 1.10457 -2 0 -2C -1.10457 -2 -2 -1.10457 -2 0L 2 0ZM 2 106L 2 0L -2 0L -2 106L 2 106Z"/>
</defs>
</svg>
