<svg width="133" height="244" viewBox="0 0 133 244" version="1.1" xmlns="http://www.w3.org/2000/svg" xmlns:xlink="http://www.w3.org/1999/xlink" xmlns:figma="http://www.figma.com/figma/ns">
<title>Net</title>
<desc>Created using Figma</desc>
<g id="Canvas" transform="translate(1304 -1571)" figma:type="canvas">
<g id="Net" style="mix-blend-mode:normal;" figma:type="symbol">
<g id="Fill" style="mix-blend-mode:normal;" figma:type="frame">
<g id="Vector 18" style="mix-blend-mode:normal;" figma:type="vector">
<use xlink:href="#path0_fill" transform="matrix(-1 2.498e-16 2.498e-16 1 -1172.81 1573.89)" fill="#FFFFFF" fill-opacity="0.4" style="mix-blend-mode:normal;"/>
</g>
<g id="Subtract" style="mix-blend-mode:normal;" figma:type="vector-operation">
<use xlink:href="#path1_fill" transform="matrix(-1 2.498e-16 2.498e-16 1 -1172.81 1573.89)" fill="#FFFFFF" fill-opacity="0.4" style="mix-blend-mode:normal;"/>
</g>
<g id="Subtract" style="mix-blend-mode:normal;" figma:type="vector-operation">
<use xlink:href="#path2_fill" transform="matrix(-1 2.498e-16 2.498e-16 1 -1263 1573.89)" fill="#BAFFF0" style="mix-blend-mode:normal;"/>
</g>
</g>
<g id="Strokes" style="mix-blend-mode:normal;" figma:type="frame">
<g id="Vector" style="mix-blend-mode:normal;" figma:type="vector">
<use xlink:href="#path3_stroke" transform="matrix(-1 2.498e-16 2.498e-16 1 -1262 1573.89)" fill="#500960" style="mix-blend-mode:normal;"/>
</g>
<g id="Ellipse 9" style="mix-blend-mode:normal;" figma:type="vector">
<use xlink:href="#path4_stroke" transform="matrix(-1 2.498e-16 2.498e-16 1 -1269 1575.39)" fill="#500960" style="mix-blend-mode:normal;"/>
</g>
<g id="Vector 16" style="mix-blend-mode:normal;" figma:type="vector">
<use xlink:href="#path5_stroke" transform="matrix(-1 2.498e-16 2.498e-16 1 -1173.5 1573.89)" fill="#500960" style="mix-blend-mode:normal;"/>
</g>
<g id="Ellipse 9" style="mix-blend-mode:normal;" figma:type="vector">
<use xlink:href="#path6_stroke" transform="matrix(-1 2.498e-16 2.498e-16 1 -1249 1578.89)" fill="#500960" style="mix-blend-mode:normal;"/>
</g>
<g id="Ellipse 9" style="mix-blend-mode:normal;" figma:type="vector">
<use xlink:href="#path7_stroke" transform="matrix(1 -3.72265e-16 -3.72265e-16 -1 -1284 1642.39)" fill="#500960" style="mix-blend-mode:normal;"/>
</g>
<g id="Ellipse 9" style="mix-blend-mode:normal;" figma:type="vector">
<use xlink:href="#path8_stroke" transform="matrix(1 -3.72265e-16 -3.72265e-16 -1 -1273 1633.89)" fill="#500960" style="mix-blend-mode:normal;"/>
</g>
<g id="Ellipse 9" style="mix-blend-mode:normal;" figma:type="vector">
<use xlink:href="#path9_stroke" transform="matrix(-1 2.498e-16 2.498e-16 1 -1236 1591.66)" fill="#500960" style="mix-blend-mode:normal;"/>
</g>
<g id="Ellipse 9" style="mix-blend-mode:normal;" figma:type="vector">
<use xlink:href="#path10_stroke" transform="matrix(-1 2.498e-16 2.498e-16 1 -1223 1591.89)" fill="#500960" style="mix-blend-mode:normal;"/>
</g>
<g id="Ellipse 9" style="mix-blend-mode:normal;" figma:type="vector">
<use xlink:href="#path11_stroke" transform="matrix(-1 2.498e-16 2.498e-16 1 -1211 1600.89)" fill="#500960" style="mix-blend-mode:normal;"/>
</g>
<g id="Ellipse 9" style="mix-blend-mode:normal;" figma:type="vector">
<use xlink:href="#path12_stroke" transform="matrix(-0.99576 -0.0919879 -0.0919879 0.99576 -1197.13 1612.32)" fill="#500960" style="mix-blend-mode:normal;"/>
</g>
<g id="Ellipse 9" style="mix-blend-mode:normal;" figma:type="vector">
<use xlink:href="#path13_stroke" transform="matrix(-0.956685 -0.291125 -0.291125 0.956685 -1186.64 1636.67)" fill="#500960" style="mix-blend-mode:normal;"/>
</g>
<g id="Ellipse 9" style="mix-blend-mode:normal;" figma:type="vector">
<use xlink:href="#path14_stroke" transform="matrix(-0.956685 -0.291125 -0.291125 0.956685 -1176.98 1638.33)" fill="#500960" style="mix-blend-mode:normal;"/>
</g>
<g id="Vector 17" style="mix-blend-mode:normal;" figma:type="vector">
<use xlink:href="#path15_stroke" transform="matrix(-1 2.498e-16 2.498e-16 1 -1190.5 1581.89)" fill="#500960" style="mix-blend-mode:normal;"/>
</g>
<g id="Vector 17" style="mix-blend-mode:normal;" figma:type="vector">
<use xlink:href="#path16_stroke" transform="matrix(-1 2.498e-16 2.498e-16 1 -1182.5 1589.89)" fill="#500960" style="mix-blend-mode:normal;"/>
</g>
<g id="Vector 17" style="mix-blend-mode:normal;" figma:type="vector">
<use xlink:href="#path17_stroke" transform="matrix(-1 2.498e-16 2.498e-16 1 -1174 1603.51)" fill="#500960" style="mix-blend-mode:normal;"/>
</g>
<g id="Vector 19" style="mix-blend-mode:normal;" figma:type="vector">
<use xlink:href="#path18_stroke" transform="matrix(-1 2.498e-16 2.498e-16 1 -1279 1785.39)" fill="#500960" style="mix-blend-mode:normal;"/>
</g>
<g id="Vector 19" style="mix-blend-mode:normal;" figma:type="vector">
<use xlink:href="#path19_stroke" transform="matrix(-2.77556e-16 -1 -1 2.77556e-16 -1283 1805.89)" fill="#500960" style="mix-blend-mode:normal;"/>
</g>
<g id="Vector 19" style="mix-blend-mode:normal;" figma:type="vector">
<use xlink:href="#path20_stroke" transform="matrix(-2.77556e-16 -1 -1 2.77556e-16 -1283 1677.31)" fill="#500960" style="mix-blend-mode:normal;"/>
</g>
<g id="Vector 19" style="mix-blend-mode:normal;" figma:type="vector">
<use xlink:href="#path21_stroke" transform="matrix(-2.77556e-16 -1 -1 2.77556e-16 -1283 1775.3)" fill="#500960" style="mix-blend-mode:normal;"/>
</g>
<g id="Vector 17" style="mix-blend-mode:normal;" figma:type="vector">
<use xlink:href="#path22_stroke" transform="matrix(-1 2.498e-16 2.498e-16 1 -1188.98 1617.39)" fill="#500960" style="mix-blend-mode:normal;"/>
</g>
<g id="Vector 17" style="mix-blend-mode:normal;" figma:type="vector">
<use xlink:href="#path23_stroke" transform="matrix(-1 2.498e-16 2.498e-16 1 -1233.5 1630.95)" fill="#500960" style="mix-blend-mode:normal;"/>
</g>
<g id="Vector 17" style="mix-blend-mode:normal;" figma:type="vector">
<use xlink:href="#path24_stroke" transform="matrix(-1 2.498e-16 2.498e-16 1 -1259 1644.39)" fill="#500960" style="mix-blend-mode:normal;"/>
</g>
<g id="Ellipse 9" style="mix-blend-mode:normal;" figma:type="vector">
<use xlink:href="#path25_stroke" transform="matrix(-1 2.498e-16 2.498e-16 1 -1265.75 1581.89)" fill="#500960" style="mix-blend-mode:normal;"/>
</g>
<g id="Ellipse 9" style="mix-blend-mode:normal;" figma:type="vector">
<use xlink:href="#path26_stroke" transform="matrix(-1 2.498e-16 2.498e-16 1 -1283.66 1581.9)" fill="#500960" style="mix-blend-mode:normal;"/>
</g>
</g>
</g>
</g>
<defs>
<path id="path0_fill" d="M 128.19 39.5C 128.19 10.7 116.19 1.16667 110.19 0C 64.1906 0 -10.3094 70.5 1.18995 84.5C 8.42803 94.0001 26.19 75.5 70.1898 74.5C 87.6853 74.1024 105.19 84 105.19 84.5C 105.19 85 109.19 82.5 111.69 82.5C 114.19 82.5 128.19 75.5 128.19 39.5Z"/>
<path id="path1_fill" fill-rule="evenodd" d="M 112.33 82.4016C 103.389 78.7566 96.1906 60.0508 96.1906 41.5C 96.1906 22.8289 103.054 5.71643 112.807 0.90918C 111.859 0.447388 110.973 0.152344 110.19 0C 64.1906 0 -10.3094 70.5 1.18994 84.5C 4.69495 89.1003 10.6676 87.1349 20.8925 83.7703C 31.7827 80.1866 47.4966 75.0157 70.1898 74.5C 87.6853 74.1024 105.19 84 105.19 84.5C 105.19 84.7014 105.839 84.416 106.777 84.0034C 108.169 83.3916 110.197 82.5 111.69 82.5C 111.855 82.5 112.071 82.4694 112.33 82.4016Z"/>
<path id="path2_fill" fill-rule="evenodd" d="M 22 236C 22 237.657 20.6569 239 19 239C 17.3431 239 16 237.657 16 236L 16 85C 7.42737 80.9878 0 61.4227 0 41.5C 0 18.5802 8.50659 0 19 0C 29.4934 0 38 18.5802 38 41.5C 38 62.9445 31.5533 79.8171 22 82L 22 236ZM 18 78.5C 24 76 32 61.6584 32 41.5C 32 21.3416 24.5 6 18 4.5C 13.5 7.5 6 21.3416 6 41.5C 6 61.6584 13 76 18 78.5Z"/>
<path id="path3_stroke" d="M 25 82L 24.5545 80.0503C 23.645 80.2581 23 81.0671 23 82L 25 82ZM 17 85L 19 85C 19 84.2238 18.5508 83.5176 17.8478 83.1886L 17 85ZM 23 235C 23 235.345 22.8386 235.891 22.4667 236.333C 22.1371 236.724 21.6768 237 21 237L 21 241C 25.0692 241 27 237.426 27 235L 23 235ZM 21 237C 20.3232 237 19.8629 236.724 19.5333 236.333C 19.1614 235.891 19 235.345 19 235L 15 235C 15 237.426 16.9308 241 21 241L 21 237ZM 2 41.5C 1.98734 30.2648 4.26159 20.3337 7.86016 13.0367C 11.4762 5.67392 15.9716 2 20 2L 20 -2C 13.5349 -2 8.03041 3.61617 4.26979 11.2734C 0.491708 18.9965 -1.98734 29.8154 -2 41.5L 2 41.5ZM 20 2C 24.0284 2 28.5238 5.67392 32.1398 13.0367C 35.7384 20.3337 38.0127 30.2648 38 41.5L 42 41.5C 41.9873 29.8154 39.5083 18.9965 35.7302 11.2734C 31.9696 3.61617 26.4651 -2 20 -2L 20 2ZM 38 41.5C 38.005 52.0811 36.6965 61.3226 34.1986 68.3017C 31.6996 75.3136 28.2838 79.1981 24.5545 80.0503L 25.4455 83.9497C 31.2696 82.619 35.3537 76.9758 37.9664 69.6445C 40.5802 62.2803 41.995 52.3633 42 41.5L 38 41.5ZM 17.8478 83.1886C 14.2888 81.5229 10.282 76.261 7.14015 68.4686C 4.01941 60.7485 1.98896 51.2515 2 41.5L -2 41.5C -1.98896 51.6712 0.194253 61.9182 3.43034 69.9643C 6.64532 77.9381 11.1385 84.4649 16.1522 86.8114L 17.8478 83.1886ZM 19 235L 19 85L 15 85L 15 235L 19 235ZM 23 82L 23 235L 27 235L 27 82L 23 82Z"/>
<path id="path4_stroke" d="M 17.5 1C 18.0523 1 18.5 0.552285 18.5 0C 18.5 -0.552285 18.0523 -1 17.5 -1L 17.5 1ZM 11.5 2.01274C 10.9477 2.01274 10.5 2.46046 10.5 3.01274C 10.5 3.56503 10.9477 4.01274 11.5 4.01274L 11.5 2.01274ZM 10.872 75.8908C 10.3246 75.9638 9.93997 76.4667 10.013 77.0142C 10.086 77.5616 10.5889 77.9462 11.1364 77.8732L 10.872 75.8908ZM 17 81C 17.5523 81 18 80.5523 18 80C 18 79.4477 17.5523 79 17 79L 17 81ZM 1 40C 0.994525 30.5776 3.07845 20.7746 6.2948 13.2472C 7.89188 9.49795 9.70989 6.42709 11.7076 4.24442C 13.6815 2.08016 15.6523 1 17.5 1L 17.5 -1C 14.8477 -1 12.381 0.538107 10.2299 2.89669C 8.10261 5.23687 6.10812 8.59341 4.4552 12.4624C 1.17155 20.1715 -0.994525 30.3686 -1 40L 1 40ZM 11.5 4.01274C 12.9306 4.01274 14.5191 4.94145 16.1568 6.93639C 17.8088 8.94104 19.3086 11.7637 20.6284 15.223C 23.2879 22.172 25.0044 31.2396 25 40L 27 40C 26.9956 31.0529 25.2121 21.6269 22.4966 14.5091C 21.1289 10.9351 19.4725 7.83105 17.7026 5.66738C 15.9184 3.49401 13.8194 2.01274 11.5 2.01274L 11.5 4.01274ZM 25 40C 25.0053 49.3923 23.171 58.1691 20.392 64.8015C 19.0142 68.1014 17.4566 70.7634 15.7568 72.7116C 14.0779 74.6422 12.4062 75.6862 10.872 75.8908L 11.1364 77.8732C 13.3522 77.5778 15.4299 76.1353 17.2659 74.024C 19.0809 71.9303 20.8035 68.9949 22.2371 65.5732C 25.0811 58.7621 26.9947 49.5979 27 40L 25 40ZM 17 79C 15.1575 79 13.2198 77.9212 11.2941 75.7559C 9.3431 73.5702 7.58599 70.4954 6.05033 66.7421C 2.95734 59.2061 0.995133 49.3965 1 40L -1 40C -0.995133 49.5936 1.04266 59.784 4.19967 67.5004C 5.78901 71.3734 7.7194 74.7379 9.79964 77.085C 11.9052 79.4525 14.3425 81 17 81L 17 79Z"/>
<path id="path5_stroke" d="M 108.703 1.98971C 109.801 1.87783 110.602 0.896299 110.49 -0.202589C 110.378 -1.30148 109.396 -2.1016 108.297 -1.98971L 108.703 1.98971ZM 102.511 85.7386C 103.472 86.2846 104.693 85.9488 105.239 84.9886C 105.785 84.0284 105.449 82.8074 104.489 82.2614L 102.511 85.7386ZM 108.297 -1.98971C 84.8232 0.400386 57.3349 15.4219 35.8221 32.4311C 25.0459 40.9546 15.6176 50.1146 8.94449 58.4713C 2.33572 66.7539 -2 74.7529 -2 81L 2 81C 2 76.2471 5.49762 69.2045 12.0711 60.9662C 18.5803 52.802 27.6833 43.962 38.3029 35.5689C 59.5817 18.7447 86.3434 4.26628 108.703 1.98971L 108.297 -1.98971ZM -2 81C -2 84.1351 -1.03649 86.6645 1.38702 88.0057C 3.55961 89.2081 6.41001 89.1311 9.3288 88.6447C 15.1916 87.6675 23.6835 84.5358 33.1793 81.7966C 52.5579 76.2067 77.7463 71.6565 102.511 85.7386L 104.489 82.2614C 78.2537 67.3435 51.6921 72.2933 32.0707 77.9534C 22.0665 80.8392 14.2459 83.77 8.6712 84.6991C 5.87124 85.1657 4.22164 85.0028 3.32392 84.506C 2.67712 84.148 2 83.3649 2 81L -2 81Z"/>
<path id="path6_stroke" d="M 14 1C 14.5523 1 15 0.552285 15 0C 15 -0.552285 14.5523 -1 14 -1L 14 1ZM 13.6 74C 14.1523 74 14.6 73.5523 14.6 73C 14.6 72.4477 14.1523 72 13.6 72L 13.6 74ZM 2.46415 13.9787C 2.29592 14.5047 2.58598 15.0675 3.11202 15.2358C 3.63806 15.404 4.20087 15.1139 4.3691 14.5879L 2.46415 13.9787ZM 1.86967 25.3929C 1.95334 24.847 1.57861 24.3366 1.0327 24.2529C 0.486793 24.1692 -0.0235808 24.544 -0.107248 25.0899L 1.86967 25.3929ZM 13.6 72C 12.263 72 10.7709 71.1 9.22612 69.1188C 7.67025 67.1312 6.26907 64.3335 5.04111 60.9101C 2.56659 54.0329 0.996236 45.0775 1 36.5L -1 36.5C -0.996236 45.2509 0.633414 54.5455 3.15889 61.5862C 4.43093 65.1217 5.97975 68.2 7.64888 70.3486C 9.32913 72.5036 11.337 74 13.6 74L 13.6 72ZM 4.3691 14.5879C 5.67743 10.4909 7.24954 7.06021 9.00848 4.60778C 10.7713 2.14212 12.4924 1 14 1L 14 -1C 11.4819 -1 9.2397 0.845578 7.38153 3.44459C 5.51945 6.05683 3.81275 9.76776 2.46415 13.9787L 4.3691 14.5879ZM 1 36.5C 0.999155 32.799 1.30815 29.0526 1.86967 25.3929L -0.107248 25.0899C -0.678138 28.8188 -0.999155 32.7168 -1 36.5L 1 36.5Z"/>
<path id="path7_stroke" d="M 7.50386 57.3682C 7.98338 57.6423 8.59423 57.4757 8.86824 56.9961C 9.14225 56.5166 8.97566 55.9058 8.49614 55.6318L 7.50386 57.3682ZM 4.17813 47.6875C 4.00553 47.1629 3.44031 46.8775 2.91569 47.0501C 2.39107 47.2227 2.10571 47.7879 2.27832 48.3125L 4.17813 47.6875ZM 0.23225 40.1825C 0.333037 40.7255 0.854939 41.084 1.39795 40.9832C 1.94096 40.8824 2.29945 40.3605 2.19866 39.8175L 0.23225 40.1825ZM 1.31476 44.7429C 1.4489 45.2786 1.99195 45.6042 2.5277 45.4701C 3.06344 45.3359 3.38901 44.7929 3.25488 44.2571L 1.31476 44.7429ZM 3.0045 43.2571C 2.87037 42.7214 2.32732 42.3958 1.79157 42.5299C 1.25582 42.6641 0.930252 43.2071 1.06439 43.7429L 3.0045 43.2571ZM 6.34463 0.49476C 6.61788 0.0148082 6.45031 -0.595781 5.97036 -0.86903C 5.49041 -1.14228 4.87982 -0.974712 4.60657 -0.49476L 6.34463 0.49476ZM 8.49614 55.6318C 7.96706 55.3294 7.25108 54.5244 6.45406 53.1005C 5.66431 51.6926 4.89792 49.8779 4.17813 47.6875L 2.27832 48.3125C 3.02535 50.5804 3.86788 52.5717 4.70884 54.0773C 5.54252 55.5668 6.47902 56.7826 7.50386 57.3682L 8.49614 55.6318ZM 2.19866 39.8175C 1.45597 35.8204 0.998641 31.4562 1 27L -1 27C -0.998641 31.5605 -0.523357 36.1072 0.23225 40.1825L 2.19866 39.8175ZM 3.25488 44.2571L 3.0045 43.2571L 1.06439 43.7429L 1.31476 44.7429L 3.25488 44.2571ZM 1 27C 1 16.0462 3.45981 5.56184 6.34463 0.49476L 4.60657 -0.49476C 1.48738 4.98398 -1 15.8529 -1 27L 1 27Z"/>
<path id="path8_stroke" d="M -1 17.5C -1 18.0523 -0.552285 18.5 6.61111e-17 18.5C 0.552285 18.5 1 18.0523 1 17.5L -1 17.5ZM 2.5 0C 2.5 -0.552285 2.05229 -1 1.5 -1C 0.947719 -1 0.500003 -0.552285 0.500003 0L 2.5 0ZM 0.542177 34.7873C 0.700876 35.3163 1.25836 35.6165 1.78735 35.4578C 2.31635 35.2991 2.61653 34.7416 2.45783 34.2127L 0.542177 34.7873ZM 1.01732 22.4882C 1.01081 21.936 0.557854 21.4936 0.00560753 21.5001C -0.546639 21.5066 -0.98905 21.9595 -0.982545 22.5118L 1.01732 22.4882ZM 1 17.5C 0.998837 13.3802 1.36909 9.56552 1.74269 6.49473C 1.92908 4.96197 2.11605 3.62248 2.2573 2.53462C 2.39891 1.44373 2.49839 0.556699 2.5 0L 0.500003 0C 0.501612 0.443301 0.413599 1.20176 0.273951 2.27712C 0.133952 3.3555 -0.0540788 4.703 -0.242682 6.25324C -0.619091 9.34843 -0.998837 13.2838 -1 17.5L 1 17.5ZM 2.45783 34.2127C 1.32181 30.4445 1.07565 27.4978 1.01732 22.4882L -0.982545 22.5118C -0.922009 27.5945 -0.642884 30.8186 0.542177 34.7873L 2.45783 34.2127Z"/>
<path id="path9_stroke" d="M 11.6571 58.2308C 12.2094 58.2308 12.6571 57.7831 12.6571 57.2308C 12.6571 56.6785 12.2094 56.2308 11.6571 56.2308L 11.6571 58.2308ZM -0.690731 31.7016C -0.639219 32.2514 -0.151697 32.6555 0.39818 32.6039C 0.948058 32.5524 1.35206 32.0649 1.30055 31.515L -0.690731 31.7016ZM 2.16114 37.7475C 2.06152 37.2042 1.54039 36.8446 0.997167 36.9442C 0.453941 37.0439 0.094324 37.565 0.193941 38.1082L 2.16114 37.7475ZM 1.61695 34.3043C 1.54403 33.7569 1.04112 33.3722 0.493668 33.4451C -0.0537811 33.518 -0.438461 34.0209 -0.365539 34.5684L 1.61695 34.3043ZM -0.271408 35.2508C -0.193398 35.7976 0.313068 36.1775 0.859815 36.0995C 1.40656 36.0215 1.78655 35.5151 1.70854 34.9683L -0.271408 35.2508ZM 6.0607 0.435208C 6.30106 -0.0620304 6.09282 -0.659971 5.59558 -0.90033C 5.09834 -1.14069 4.5004 -0.932447 4.26004 -0.435208L 6.0607 0.435208ZM 1.30055 31.515C 1.10338 29.4129 0.999695 27.3172 1 25.2308L -1 25.2308C -0.999695 27.3666 -0.891522 29.5556 -0.690731 31.7016L 1.30055 31.515ZM 11.6571 56.2308C 10.8897 56.2308 10.0334 55.8555 9.10272 54.9746C 8.13384 54.0647 7.24232 52.7775 6.36299 51.0811C 4.57865 47.6563 3.11734 42.972 2.16114 37.7475L 0.193941 38.1082C 1.17566 43.4514 2.72963 48.4186 4.58836 52.0034C 5.53055 53.8118 6.61752 55.3688 7.72786 56.4271C 8.87641 57.5142 10.2001 58.2308 11.6571 58.2308L 11.6571 56.2308ZM 1.70854 34.9683C 1.67692 34.7467 1.6466 34.5269 1.61695 34.3043L -0.365539 34.5684C -0.335273 34.7956 -0.303679 35.0246 -0.271408 35.2508L 1.70854 34.9683ZM 1 25.2308C 1 16.1564 3.09898 6.56222 6.0607 0.435208L 4.26004 -0.435208C 1.14449 6.01005 -1 15.9117 -1 25.2308L 1 25.2308Z"/>
<path id="path10_stroke" d="M 11 1C 11.5523 1 12 0.552285 12 0C 12 -0.552285 11.5523 -1 11 -1L 11 1ZM 10.6857 58C 11.238 58 11.6857 57.5523 11.6857 57C 11.6857 56.4477 11.238 56 10.6857 56L 10.6857 58ZM 1 28.5C 0.99571 21.8046 2.29878 14.8563 4.31448 9.51129C 5.31267 6.85375 6.43477 4.70316 7.67376 3.1709C 8.90188 1.64453 10.0401 1 11 1L 11 -1C 9.13134 -1 7.48026 0.220989 6.11553 1.91714C 4.76166 3.60741 3.48733 6.03634 2.44266 8.80682C 0.37265 14.3178 -0.99571 21.6195 -1 28.5L 1 28.5ZM 10.6857 56C 9.73174 56 8.61428 55.3593 7.41621 53.8323C 6.20627 52.2981 5.12175 50.1446 4.16187 47.4839C 2.22334 42.1324 0.99619 35.178 1 28.5L -1 28.5C -0.99619 35.3524 0.29095 42.648 2.28099 48.1639C 3.28539 50.9369 4.51873 53.3715 5.84272 55.0669C 7.17858 56.7695 8.81112 58 10.6857 58L 10.6857 56Z"/>
<path id="path11_stroke" d="M 8.97885 0.877896C 9.4637 0.613433 9.64236 0.00599621 9.3779 -0.478852C 9.11343 -0.9637 8.506 -1.14236 8.02115 -0.877896L 8.97885 0.877896ZM 3.09683 44.7873C 3.33391 45.2861 3.93047 45.4983 4.42927 45.2612C 4.92808 45.0241 5.14026 44.4275 4.90317 43.9287L 3.09683 44.7873ZM 1 24.5C 0.997598 18.4959 1.72297 13.2825 3.13436 9.1416C 4.5334 5.02316 6.54221 2.20697 8.97885 0.877896L 8.02115 -0.877896C 4.95779 0.793029 2.7166 4.15343 1.24064 8.4983C -0.222965 12.8206 -0.997598 18.3573 -1 24.5L 1 24.5ZM 4.90317 43.9287C 2.59114 39.0643 1 31.5713 1 24.5L -1 24.5C -1 31.8097 0.634293 39.6062 3.09683 44.7873L 4.90317 43.9287Z"/>
<path id="path12_stroke" d="M 9 1C 9.55228 1 10 0.552285 10 0C 10 -0.552285 9.55228 -1 9 -1L 9 1ZM 8.74286 43.0686C 9.29514 43.0686 9.74286 42.6209 9.74286 42.0686C 9.74286 41.5163 9.29514 41.0686 8.74286 41.0686L 8.74286 43.0686ZM -0.223686 28.949C -0.118825 29.4913 0.405753 29.8458 0.947991 29.741C 1.49023 29.6361 1.84479 29.1115 1.73993 28.5693L -0.223686 28.949ZM 2.89574 33.0778C 2.7244 32.5527 2.15988 32.266 1.63485 32.4373C 1.10981 32.6087 0.823081 33.1732 0.994416 33.6982L 2.89574 33.0778ZM 1 21.0343C 0.994756 16.1268 2.04817 11.0615 3.68718 7.14486C 4.49585 5.20111 5.39014 3.65352 6.38734 2.54325C 7.36274 1.44972 8.25409 1 9 1L 9 -1C 7.43162 -1 6.04084 -0.0728775 4.8948 1.21196C 3.77057 2.48006 2.70415 4.31238 1.84139 6.37476C 0.137546 10.4703 -0.994756 15.9222 -1 21.0343L 1 21.0343ZM 1.73993 28.5693C 1.26246 26.1054 0.998675 23.5564 1 21.0343L -1 21.0343C -0.998675 23.6593 -0.715968 26.3983 -0.223686 28.949L 1.73993 28.5693ZM 8.74286 41.0686C 7.88567 41.0686 6.85458 40.4659 5.75707 39.0079C 4.65175 37.5479 3.69222 35.5252 2.89574 33.0778L 0.994416 33.6982C 1.83478 36.2667 2.94125 38.5843 4.15918 40.2107C 5.3849 41.839 6.93428 43.0686 8.74286 43.0686L 8.74286 41.0686Z"/>
<path id="path13_stroke" d="M 6.35383 24.019C 6.90611 24.019 7.35383 23.5713 7.35383 23.019C 7.35383 22.4667 6.90611 22.019 6.35383 22.019L 6.35383 24.019ZM 1.92546 0.250256C 2.06367 -0.284455 1.74224 -0.829967 1.20753 -0.96818C 0.672821 -1.10639 0.127308 -0.784967 -0.0109044 -0.250256L 1.92546 0.250256ZM 6.35383 22.019C 5.93851 22.019 5.37392 21.7605 4.70353 20.9727C 4.01215 20.1682 3.40532 19.0541 2.84649 17.6232C 1.70819 14.7316 0.995535 11.0086 1 7.39398L -1 7.39398C -0.995535 11.1974 -0.213168 15.2869 0.984492 18.3533C 1.59365 19.9014 2.36504 21.3027 3.18036 22.2688C 4.01667 23.2516 5.08725 24.019 6.35383 24.019L 6.35383 22.019ZM 1 7.39398C 0.997637 4.96917 1.33757 2.51798 1.92546 0.250256L -0.0109044 -0.250256C -0.624434 2.12999 -0.997637 4.83176 -1 7.39398L 1 7.39398Z"/>
<path id="path14_stroke" d="M 4.62623 1C 5.17852 1 5.62623 0.552285 5.62623 0C 5.62623 -0.552285 5.17852 -1 4.62623 -1L 4.62623 1ZM 4.8941 24.5001C 5.44638 24.5001 5.8941 24.0524 5.8941 23.5001C 5.8941 22.9478 5.44638 22.5001 4.8941 22.5001L 4.8941 24.5001ZM 2.32789 18.443C 2.14534 17.9217 1.57481 17.6471 1.05356 17.8297C 0.532321 18.0123 0.257758 18.5828 0.440309 19.104L 2.32789 18.443ZM -0.715711 14.4629C -0.630178 15.0085 -0.118526 15.3815 0.427095 15.2959C 0.972716 15.2104 1.34569 14.6987 1.26016 14.1531L -0.715711 14.4629ZM 1 11.0516C 0.994975 8.51951 1.51883 5.94633 2.34676 3.92956C 2.75012 2.93588 3.17013 2.18978 3.65311 1.64401C 4.11641 1.11309 4.45159 1 4.62623 1L 4.62623 -1C 3.61127 -1 2.77337 -0.389693 2.1462 0.329005C 1.53872 1.03284 0.950864 2.06257 0.495073 3.17373C -0.395317 5.36665 -0.994975 8.31925 -1 11.0516L 1 11.0516ZM 4.8941 22.5001C 4.78811 22.5001 4.40834 22.3744 3.83335 21.5667C 3.27937 20.7952 2.78052 19.7397 2.32789 18.443L 0.440309 19.104C 0.930867 20.5004 1.55489 21.8082 2.20405 22.7266C 2.8322 23.609 3.73584 24.5001 4.8941 24.5001L 4.8941 22.5001ZM 1.26016 14.1531C 1.0901 13.072 0.999039 12.0407 1 11.0516L -1 11.0516C -0.999039 12.1284 -0.895132 13.3146 -0.715711 14.4629L 1.26016 14.1531Z"/>
<path id="path15_stroke" d="M 81.2894 0.957211C 81.818 0.797386 82.117 0.239264 81.9572 -0.28939C 81.7974 -0.818043 81.2393 -1.11704 80.7106 -0.957211L 81.2894 0.957211ZM -0.638189 43.7301C -1.06338 44.0826 -1.12234 44.713 -0.769879 45.1382C -0.417417 45.5634 0.212997 45.6223 0.638189 45.2699L -0.638189 43.7301ZM 80.7106 -0.957211C 66.2821 3.40489 29.8877 18.4258 -0.638189 43.7301L 0.638189 45.2699C 30.9123 20.1742 67.0512 5.26178 81.2894 0.957211L 80.7106 -0.957211Z"/>
<path id="path16_stroke" d="M 107.5 1C 108.052 1 108.5 0.552285 108.5 3.08913e-11C 108.5 -0.552285 108.052 -1 107.5 -1L 107.5 1ZM -0.531135 45.1527C -0.999079 45.4461 -1.14062 46.0632 -0.847287 46.5311C -0.553949 46.9991 0.0631915 47.1406 0.531135 46.8473L -0.531135 45.1527ZM 90.5956 2.03712C 90.0638 2.18621 89.7536 2.73816 89.9027 3.26994C 90.0518 3.80172 90.6037 4.11196 91.1355 3.96288L 90.5956 2.03712ZM 82.32 6.39005C 82.8432 6.21335 83.1241 5.64592 82.9474 5.12266C 82.7707 4.59941 82.2033 4.31848 81.68 4.49518L 82.32 6.39005ZM 64.1104 11.2357C 63.6018 11.4509 63.3639 12.0376 63.579 12.5463C 63.7941 13.055 64.3809 13.2929 64.8896 13.0778L 64.1104 11.2357ZM 57.264 16.4116C 57.7675 16.1847 57.9917 15.5925 57.7647 15.089C 57.5377 14.5855 56.9455 14.3614 56.442 14.5884L 57.264 16.4116ZM 60.6002 12.7439C 60.094 12.9647 59.8626 13.5541 60.0834 14.0603C 60.3042 14.5665 60.8936 14.7979 61.3998 14.5771L 60.6002 12.7439ZM 62.326 14.1747C 62.8329 13.9553 63.0659 13.3666 62.8466 12.8598C 62.6272 12.3529 62.0385 12.1198 61.5317 12.3392L 62.326 14.1747ZM 20.6769 32.6439C 20.1765 32.8776 19.9602 33.4727 20.1939 33.9731C 20.4276 34.4735 21.0227 34.6898 21.5231 34.4561L 20.6769 32.6439ZM 21.6434 34.3999C 22.1438 34.1662 22.3601 33.5711 22.1264 33.0707C 21.8927 32.5703 21.2976 32.3541 20.7972 32.5877L 21.6434 34.3999ZM 19.4279 35.6423C 19.9092 35.3714 20.0798 34.7617 19.809 34.2804C 19.5382 33.7991 18.9284 33.6284 18.4471 33.8993L 19.4279 35.6423ZM 23.17 31.2739C 22.6859 31.5398 22.509 32.1477 22.7748 32.6318C 23.0406 33.1159 23.6485 33.2929 24.1327 33.027L 23.17 31.2739ZM 104.663 -0.881783C 104.112 -0.836962 103.703 -0.354388 103.747 0.196075C 103.792 0.746538 104.275 1.15644 104.825 1.11162L 104.663 -0.881783ZM 99.5019 1.88697C 100.044 1.77893 100.395 1.25228 100.287 0.710667C 100.179 0.169053 99.6523 -0.182432 99.1107 -0.0743948L 99.5019 1.88697ZM 81.68 4.49518C 76.1361 6.36765 70.2098 8.6561 64.1104 11.2357L 64.8896 13.0778C 70.9596 10.5102 76.8164 8.24838 82.32 6.39005L 81.68 4.49518ZM 61.5317 12.3392C 61.2218 12.4733 60.9109 12.6084 60.6002 12.7439L 61.3998 14.5771C 61.7092 14.4422 62.0175 14.3082 62.326 14.1747L 61.5317 12.3392ZM 20.7972 32.5877L 20.6769 32.6439L 21.5231 34.4561L 21.6434 34.3999L 20.7972 32.5877ZM 18.4471 33.8993C 11.7516 37.667 5.33762 41.4739 -0.531135 45.1527L 0.531135 46.8473C 6.37923 43.1812 12.7525 39.3986 19.4279 35.6423L 18.4471 33.8993ZM 56.442 14.5884C 45.4104 19.5619 33.9843 25.336 23.17 31.2739L 24.1327 33.027C 34.9168 27.1054 46.2726 21.3665 57.264 16.4116L 56.442 14.5884ZM 107.5 -1C 106.572 -0.999774 105.616 -0.959188 104.663 -0.881783L 104.825 1.11162C 105.74 1.03699 106.614 0.999774 107.5 1L 107.5 -1ZM 99.1107 -0.0743948C 96.5511 0.436538 93.7523 1.15224 90.5956 2.03712L 91.1355 3.96288C 94.2701 3.08404 96.9947 2.38672 99.5019 1.88697L 99.1107 -0.0743948Z"/>
<path id="path17_stroke" d="M -0.547249 46.0461C -1.00949 46.3483 -1.13921 46.9681 -0.83697 47.4303C -0.534732 47.8925 0.0850038 48.0223 0.547249 47.72L -0.547249 46.0461ZM 95.2154 3.66291C 94.686 3.82009 94.3842 4.37671 94.5414 4.90615C 94.6985 5.4356 95.2551 5.73739 95.7846 5.58021L 95.2154 3.66291ZM 10.4874 41.7723C 10.9696 41.5031 11.1424 40.8939 10.8732 40.4117C 10.604 39.9294 9.99487 39.7567 9.51262 40.0259L 10.4874 41.7723ZM 20.5474 34.1702C 20.0549 34.4201 19.8583 35.022 20.1083 35.5145C 20.3583 36.007 20.9601 36.2036 21.4526 35.9536L 20.5474 34.1702ZM 40.912 26.6521C 41.4152 26.4245 41.6387 25.8321 41.4112 25.3289C 41.1836 24.8256 40.5912 24.6022 40.088 24.8297L 40.912 26.6521ZM 46.0987 22.1544C 45.5928 22.376 45.3624 22.9658 45.584 23.4717C 45.8057 23.9775 46.3954 24.2079 46.9013 23.9863L 46.0987 22.1544ZM 83.327 9.60526C 83.8489 9.42465 84.1256 8.85514 83.945 8.33323C 83.7644 7.81131 83.1949 7.53462 82.673 7.71522L 83.327 9.60526ZM 116.807 0L 116.92 0.993572C 117.462 0.931781 117.855 0.446472 117.802 -0.0968308C 117.749 -0.640134 117.27 -1.04067 116.726 -0.99676L 116.807 0ZM 9.51262 40.0259C 5.71515 42.1456 2.31178 44.177 -0.547249 46.0461L 0.547249 47.72C 3.37176 45.873 6.71513 43.8776 10.4874 41.7723L 9.51262 40.0259ZM 40.088 24.8297C 33.2148 27.9376 26.5927 31.1018 20.5474 34.1702L 21.4526 35.9536C 27.4765 32.896 34.058 29.7511 40.912 26.6521L 40.088 24.8297ZM 82.673 7.71522C 71.0336 11.7432 58.2917 16.8127 46.0987 22.1544L 46.9013 23.9863C 59.0628 18.6581 71.7305 13.6179 83.327 9.60526L 82.673 7.71522ZM 113.472 -0.626091C 108.409 0.0990876 102.149 1.60479 95.2154 3.66291L 95.7846 5.58021C 102.668 3.53633 108.785 2.06343 113.755 1.35377L 113.472 -0.626091ZM 116.726 -0.99676C 115.707 -0.914396 114.611 -0.788869 113.472 -0.626091L 113.755 1.35377C 114.866 1.19476 115.902 1.07615 116.887 0.99676L 116.726 -0.99676ZM 113.727 1.35741L 116.92 0.993572L 116.694 -0.993572L 113.5 -0.629735L 113.727 1.35741Z"/>
<path id="path18_stroke" d="M 0 -1C -0.552285 -1 -1 -0.552285 -1 0C -1 0.552285 -0.552285 1 0 1L 0 -1ZM 8 1C 8.55228 1 9 0.552285 9 0C 9 -0.552285 8.55228 -1 8 -1L 8 1ZM 0 1L 8 1L 8 -1L 0 -1L 0 1Z"/>
<path id="path19_stroke" d="M 0 -1C -0.552285 -1 -1 -0.552285 -1 0C -1 0.552285 -0.552285 1 0 1L 0 -1ZM 17.5 1C 18.0523 1 18.5 0.552285 18.5 0C 18.5 -0.552285 18.0523 -1 17.5 -1L 17.5 1ZM 15.1877 -1C 14.6354 -1 14.1877 -0.552285 14.1877 0C 14.1877 0.552285 14.6354 1 15.1877 1L 15.1877 -1ZM 11 1C 11.5523 1 12 0.552285 12 0C 12 -0.552285 11.5523 -1 11 -1L 11 1ZM 51.1204 -1C 50.5681 -1 50.1204 -0.552285 50.1204 0C 50.1204 0.552285 50.5681 1 51.1204 1L 51.1204 -1ZM 55.5 1C 56.0523 1 56.5 0.552285 56.5 0C 56.5 -0.552285 56.0523 -1 55.5 -1L 55.5 1ZM 132.321 -1C 131.769 -1 131.321 -0.552285 131.321 0C 131.321 0.552285 131.769 1 132.321 1L 132.321 -1ZM 146.53 1C 147.082 1 147.53 0.552285 147.53 0C 147.53 -0.552285 147.082 -1 146.53 -1L 146.53 1ZM 58.6204 -1C 58.0681 -1 57.6204 -0.552285 57.6204 0C 57.6204 0.552285 58.0681 1 58.6204 1L 58.6204 -1ZM 60 1C 60.5523 1 61 0.552285 61 0C 61 -0.552285 60.5523 -1 60 -1L 60 1ZM 15.1877 1L 17.5 1L 17.5 -1L 15.1877 -1L 15.1877 1ZM 0 1L 11 1L 11 -1L 0 -1L 0 1ZM 51.1204 1L 55.5 1L 55.5 -1L 51.1204 -1L 51.1204 1ZM 132.321 1L 146.53 1L 146.53 -1L 132.321 -1L 132.321 1ZM 58.6204 1L 60 1L 60 -1L 58.6204 -1L 58.6204 1Z"/>
<path id="path20_stroke" d="M 0 -1C -0.552285 -1 -1 -0.552285 -1 0C -1 0.552285 -0.552285 1 0 1L 0 -1ZM 0.425507 1C 0.977791 1 1.42551 0.552285 1.42551 0C 1.42551 -0.552285 0.977791 -1 0.425507 -1L 0.425507 1ZM 0 1L 0.425507 1L 0.425507 -1L 0 -1L 0 1Z"/>
<path id="path21_stroke" d="M 0 -1C -0.552285 -1 -1 -0.552285 -1 0C -1 0.552285 -0.552285 1 0 1L 0 -1ZM 4.37958 1C 4.93187 1 5.37958 0.552285 5.37958 0C 5.37958 -0.552285 4.93187 -1 4.37958 -1L 4.37958 1ZM 90.9095 -1C 90.3572 -1 89.9095 -0.552285 89.9095 0C 89.9095 0.552285 90.3572 1 90.9095 1L 90.9095 -1ZM 95.4095 1C 95.9618 1 96.4095 0.552285 96.4095 0C 96.4095 -0.552285 95.9618 -1 95.4095 -1L 95.4095 1ZM 0 1L 4.37958 1L 4.37958 -1L 0 -1L 0 1ZM 90.9095 1L 95.4095 1L 95.4095 -1L 90.9095 -1L 90.9095 1Z"/>
<path id="path22_stroke" d="M 105.519 1C 106.071 1 106.519 0.552285 106.519 1.28714e-12C 106.519 -0.552285 106.071 -1 105.519 -1L 105.519 1ZM 80.2496 3.63812C 79.7178 3.78688 79.4072 4.33863 79.5559 4.87051C 79.7047 5.40238 80.2565 5.71296 80.7883 5.56421L 80.2496 3.63812ZM 74.3448 7.45607C 74.8728 7.29417 75.1696 6.73488 75.0077 6.20686C 74.8458 5.67884 74.2866 5.38203 73.7585 5.54393L 74.3448 7.45607ZM 51.6409 13.1135C 51.1235 13.3069 50.8609 13.883 51.0543 14.4003C 51.2477 14.9176 51.8238 15.1803 52.3412 14.9869L 51.6409 13.1135ZM 45.5568 17.5827C 46.0711 17.3814 46.3249 16.8013 46.1236 16.287C 45.9223 15.7727 45.3423 15.519 44.8279 15.7202L 45.5568 17.5827ZM -0.483367 36.477C -0.966847 36.744 -1.14237 37.3523 -0.875418 37.8358C -0.608462 38.3193 -0.000113056 38.4948 0.483367 38.2279L -0.483367 36.477ZM 87.1578 3.88553C 87.6941 3.75365 88.022 3.21198 87.8901 2.67567C 87.7583 2.13936 87.2166 1.8115 86.6803 1.94338L 87.1578 3.88553ZM 90.0778 1.14482C 89.5388 1.2653 89.1996 1.7999 89.32 2.33888C 89.4405 2.87786 89.9751 3.21713 90.5141 3.09665L 90.0778 1.14482ZM 73.7585 5.54393C 66.7417 7.69552 59.2289 10.2771 51.6409 13.1135L 52.3412 14.9869C 59.9041 12.1597 67.3599 9.59757 74.3448 7.45607L 73.7585 5.54393ZM 44.8279 15.7202C 28.2684 22.2011 11.7963 29.6976 -0.483367 36.477L 0.483367 38.2279C 12.6946 31.4845 29.0473 24.0432 45.5568 17.5827L 44.8279 15.7202ZM 86.6803 1.94338C 84.6148 2.4513 82.4614 3.01957 80.2496 3.63812L 80.7883 5.56421C 82.9859 4.94956 85.1087 4.38934 87.1578 3.88553L 86.6803 1.94338ZM 105.519 -1C 101.499 -0.997342 96.1754 -0.217427 90.0778 1.14482L 90.5141 3.09665C 96.5391 1.74922 101.644 0.997342 105.519 1L 105.519 -1Z"/>
<path id="path23_stroke" d="M -0.382352 16.5099C -0.892672 16.721 -1.13518 17.3059 -0.924017 17.8162C -0.71285 18.3266 -0.127969 18.5691 0.382352 18.3579L -0.382352 16.5099ZM 37.7489 2.02405C 37.2143 2.16275 36.8933 2.70855 37.032 3.24314C 37.1707 3.77772 37.7166 4.09865 38.2511 3.95995L 37.7489 2.02405ZM 31.8014 5.82077C 32.328 5.6543 32.62 5.09246 32.4535 4.56586C 32.287 4.03926 31.7252 3.74732 31.1986 3.91378L 31.8014 5.82077ZM 56.0443 0.999019C 56.596 0.974563 57.0235 0.507461 56.999 -0.0442825C 56.9746 -0.596025 56.5075 -1.02348 55.9557 -0.999019L 56.0443 0.999019ZM 31.1986 3.91378C 18.9391 7.7918 7.92498 13.0728 -0.382352 16.5099L 0.382352 18.3579C 8.74014 14.8991 19.6749 9.65156 31.8014 5.82077L 31.1986 3.91378ZM 55.9557 -0.999019C 49.6458 -0.716411 43.917 0.424144 37.7489 2.02405L 38.2511 3.95995C 44.364 2.37355 49.8864 1.26906 56.0443 0.999019L 55.9557 -0.999019Z"/>
<path id="path24_stroke" d="M 28.5 1C 29.0523 1 29.5 0.552285 29.5 0C 29.5 -0.552285 29.0523 -1 28.5 -1L 28.5 1ZM -0.297569 5.0453C -0.824835 5.20964 -1.11904 5.7703 -0.9547 6.29757C -0.790358 6.82484 -0.229697 7.11904 0.297569 6.9547L -0.297569 5.0453ZM 16.794 0.577006C 16.2536 0.690782 15.9077 1.22113 16.0215 1.76157C 16.1352 2.302 16.6656 2.64788 17.206 2.53411L 16.794 0.577006ZM 11.025 3.96984C 11.5606 3.83523 11.8857 3.2919 11.7511 2.75627C 11.6165 2.22064 11.0731 1.89555 10.5375 2.03016L 11.025 3.96984ZM 28.5 -1C 25.3379 -0.996896 21.0407 -0.316716 16.794 0.577006L 17.206 2.53411C 21.4038 1.65005 25.4954 0.996896 28.5 1L 28.5 -1ZM 10.5375 2.03016C 7.54095 2.7833 4.82889 3.53789 2.87508 4.10171C 1.89657 4.38409 1.10285 4.62013 0.556685 4.78472C 0.282855 4.86724 0.0691745 4.93241 -0.0748395 4.97659C -0.147203 4.99879 -0.202912 5.01598 -0.239977 5.02744C -0.258683 5.03323 -0.273088 5.03769 -0.28255 5.04063C -0.287368 5.04213 -0.291124 5.04329 -0.293546 5.04405C -0.2948 5.04444 -0.295806 5.04475 -0.296434 5.04495C -0.29677 5.04505 -0.297053 5.04514 -0.297221 5.04519C -0.297316 5.04522 -0.297403 5.04525 -0.29745 5.04526C -0.297519 5.04528 -0.297569 5.0453 0 6C 0.297569 6.9547 0.297555 6.9547 0.29756 6.9547C 0.297586 6.95469 0.297609 6.95469 0.297662 6.95467C 0.297787 6.95463 0.297943 6.95458 0.298193 6.95451C 0.298736 6.95434 0.299485 6.9541 0.300568 6.95377C 0.302817 6.95307 0.306055 6.95206 0.310526 6.95067C 0.319639 6.94784 0.332986 6.9437 0.350985 6.93814C 0.38733 6.9269 0.440843 6.91039 0.511729 6.88864C 0.654214 6.84493 0.863141 6.7812 1.13374 6.69966C 1.67644 6.53612 2.4589 6.30341 3.42961 6.02329C 5.37424 5.46211 8.0528 4.7167 11.025 3.96984L 10.5375 2.03016Z"/>
<path id="path25_stroke" d="M -1 33.75C -1 34.3023 -0.552285 34.75 0 34.75C 0.552285 34.75 1 34.3023 1 33.75L -1 33.75ZM 9.65475 0.534856C 9.95014 0.0682072 9.81131 -0.54955 9.34467 -0.844943C 8.87802 -1.14034 8.26026 -1.00151 7.96487 -0.534856L 9.65475 0.534856ZM 10.4726 71.6821C 10.8199 72.1114 11.4496 72.1779 11.879 71.8306C 12.3083 71.4832 12.3748 70.8535 12.0274 70.4242L 10.4726 71.6821ZM 11.067 69.1501C 10.7486 68.6989 10.1247 68.5912 9.67343 68.9096C 9.22219 69.2281 9.11452 69.852 9.43295 70.3033L 11.067 69.1501ZM 4.26886 60.368C 4.47213 60.8816 5.0532 61.1331 5.56672 60.9298C 6.08024 60.7265 6.33175 60.1455 6.12848 59.632L 4.26886 60.368ZM 3.37626 51.1697C 3.23673 50.6354 2.69042 50.3153 2.15605 50.4548C 1.62169 50.5944 1.30161 51.1407 1.44114 51.675L 3.37626 51.1697ZM 1.00916 32.6853C 1.01861 32.1331 0.578624 31.6778 0.0264206 31.6683C -0.525783 31.6589 -0.981095 32.0988 -0.990548 32.651L 1.00916 32.6853ZM 0.320587 20.2513C 0.216969 20.7937 0.572735 21.3175 1.11521 21.4211C 1.65769 21.5247 2.18145 21.169 2.28507 20.6265L 0.320587 20.2513ZM 12.0274 70.4242C 11.703 70.0234 11.3892 69.6068 11.067 69.1501L 9.43295 70.3033C 9.77327 70.7853 10.1267 71.2543 10.4726 71.6821L 12.0274 70.4242ZM 6.12848 59.632C 5.08378 56.9939 4.1556 54.1561 3.37626 51.1697L 1.44114 51.675C 2.23671 54.7199 3.20265 57.6732 4.26886 60.368L 6.12848 59.632ZM 1 33.75C 0.999991 33.3946 1.00304 33.0425 1.00916 32.6853L -0.990548 32.651C -0.996798 33.0167 -0.999991 33.386 -1 33.75L 1 33.75ZM 2.28507 20.6265C 3.7591 12.8923 6.36779 5.71664 9.65475 0.534856L 7.96487 -0.534856C 4.57275 4.83469 1.83097 12.361 0.320587 20.2513L 2.28507 20.6265Z"/>
<path id="path26_stroke" d="M 15.3438 34.0507C 15.3438 33.4984 14.896 33.0507 14.3438 33.0507C 13.7915 33.0507 13.3438 33.4984 13.3438 34.0507L 15.3438 34.0507ZM 0 72.4937L -0.602146 71.6953C -1.03648 72.0229 -1.12927 72.6376 -0.810984 73.0788C -0.492699 73.5199 0.119884 73.6258 0.567726 73.3169L 0 72.4937ZM 3.31476 69.9937L 3.97082 70.7484C 4.37744 70.3949 4.43092 69.7828 4.09177 69.3642C 3.75261 68.9456 3.14276 68.8709 2.71261 69.1953L 3.31476 69.9937ZM 8.25822 60.5994C 8.04049 61.107 8.27543 61.695 8.78298 61.9127C 9.29054 62.1304 9.8785 61.8955 10.0962 61.3879L 8.25822 60.5994ZM 13.3834 51.2216C 13.5093 50.6838 13.1754 50.1459 12.6376 50.02C 12.0999 49.8941 11.5619 50.228 11.4361 50.7658L 13.3834 51.2216ZM 12.0609 47.808C 11.9583 48.3507 12.3151 48.8737 12.8578 48.9763C 13.4005 49.0789 13.9235 48.7221 14.0261 48.1794L 12.0609 47.808ZM 14.297 46.6589C 14.3882 46.1142 14.0206 45.5987 13.4759 45.5074C 12.9312 45.4162 12.4157 45.7838 12.3245 46.3285L 14.297 46.6589ZM 13.0713 40.4084C 13.0242 40.9586 13.4321 41.4429 13.9824 41.49C 14.5326 41.5372 15.0169 41.1293 15.064 40.579L 13.0713 40.4084ZM 6.71035 -0.543389C 6.41025 -1.00702 5.79112 -1.13959 5.32748 -0.839481C 4.86385 -0.539376 4.73129 0.0797563 5.03139 0.543389L 6.71035 -0.543389ZM 7.98685 6.23592C 8.20241 6.7444 8.78936 6.98187 9.29784 6.76631C 9.80632 6.55076 10.0438 5.96381 9.82823 5.45533L 7.98685 6.23592ZM 2.65869 69.239C 1.53773 70.2154 0.37136 71.0228 -0.567726 71.6705L 0.567726 73.3169C 1.50913 72.6677 2.76566 71.7941 3.97082 70.7484L 2.65869 69.239ZM 0.602146 73.2921L 3.9169 70.7921L 2.71261 69.1953L -0.602146 71.6953L 0.602146 73.2921ZM 11.4361 50.7658C 10.5934 54.3701 9.51964 57.6616 8.25822 60.5994L 10.0962 61.3879C 11.3912 58.3667 12.5195 54.9087 13.3834 51.2216L 11.4361 50.7658ZM 12.3245 46.3285C 12.241 46.8272 12.1536 47.3171 12.0609 47.808L 14.0261 48.1794C 14.1208 47.6783 14.2117 47.1679 14.297 46.6589L 12.3245 46.3285ZM 13.3438 34.0507C 13.344 36.2077 13.2505 38.3186 13.0713 40.4084L 15.064 40.579C 15.2463 38.4482 15.3435 36.2519 15.3438 34.0507L 13.3438 34.0507ZM 5.03139 0.543389C 6.09208 2.17986 7.07206 4.0761 7.98685 6.23592L 9.82823 5.45533C 8.88235 3.22588 7.82188 1.17598 6.71035 -0.543389L 5.03139 0.543389Z"/>
</defs>
</svg>
