<svg width="248" height="100" viewBox="0 0 248 100" version="1.1" xmlns="http://www.w3.org/2000/svg" xmlns:xlink="http://www.w3.org/1999/xlink" xmlns:figma="http://www.figma.com/figma/ns">
<title>cloud</title>
<desc>Created using Figma</desc>
<g id="Canvas" transform="translate(-754 302)" figma:type="canvas">
<g id="cloud" style="mix-blend-mode:normal;" figma:type="frame">
<g id="Rectangle 6" style="mix-blend-mode:normal;" figma:type="rounded-rectangle">
<use xlink:href="#path0_fill" transform="translate(848.128 -302)" fill="#E0FAF8" style="mix-blend-mode:normal;"/>
</g>
<g id="Subtract" style="mix-blend-mode:normal;" figma:type="vector-operation">
<use xlink:href="#path1_fill" transform="translate(880.906 -282)" fill="#E0FAF8" style="mix-blend-mode:normal;"/>
</g>
<g id="Rectangle 6" style="mix-blend-mode:normal;" figma:type="rounded-rectangle">
<use xlink:href="#path2_fill" transform="translate(808.851 -262)" fill="#E0FAF8" style="mix-blend-mode:normal;"/>
</g>
<g id="Rectangle 6" style="mix-blend-mode:normal;" figma:type="rounded-rectangle">
<use xlink:href="#path3_fill" transform="translate(966.298 -262)" fill="#E0FAF8" style="mix-blend-mode:normal;"/>
</g>
<g id="Subtract" style="mix-blend-mode:normal;" figma:type="vector-operation">
<use xlink:href="#path4_fill" transform="translate(856.637 -242)" fill="#E0FAF8" style="mix-blend-mode:normal;"/>
</g>
<g id="Rectangle 6" style="mix-blend-mode:normal;" figma:type="rounded-rectangle">
<use xlink:href="#path2_fill" transform="translate(823.894 -222)" fill="#E0FAF8" style="mix-blend-mode:normal;"/>
</g>
<g id="Rectangle 6" style="mix-blend-mode:normal;" figma:type="rounded-rectangle">
<use xlink:href="#path5_fill" transform="translate(782.648 -222)" fill="#E0FAF8" style="mix-blend-mode:normal;"/>
</g>
<g id="Rectangle 6" style="mix-blend-mode:normal;" figma:type="rounded-rectangle">
<use xlink:href="#path6_fill" transform="translate(754.744 -222)" fill="#E0FAF8" style="mix-blend-mode:normal;"/>
</g>
</g>
</g>
<defs>
<path id="path0_fill" d="M 0 10C 0 4.47715 4.47715 0 10 0L 121.775 0C 127.298 0 131.775 4.47715 131.775 10L 131.775 10C 131.775 15.5228 127.298 20 121.775 20L 10 20C 4.47715 20 0 15.5228 0 10L 0 10Z"/>
<path id="path1_fill" fill-rule="evenodd" d="M 0 20L 48.2717 20C 42.7488 20 38.2717 15.5229 38.2717 10C 38.2717 4.47714 42.7488 0 48.2717 0L 0 0C 5.52283 0 10 4.47714 10 10C 10 15.5229 5.52283 20 0 20Z"/>
<path id="path2_fill" d="M 0 10C 0 4.47715 4.47715 0 10 0L 123.379 0C 128.902 0 133.379 4.47715 133.379 10L 133.379 10C 133.379 15.5228 128.902 20 123.379 20L 10 20C 4.47715 20 0 15.5228 0 10L 0 10Z"/>
<path id="path3_fill" d="M 0 10C 0 4.47715 4.47715 0 10 0L 25.7015 0C 31.2244 0 35.7015 4.47715 35.7015 10L 35.7015 10C 35.7015 15.5228 31.2244 20 25.7015 20L 10 20C 4.47715 20 0 15.5228 0 10L 0 10Z"/>
<path id="path4_fill" fill-rule="evenodd" d="M 43.7961 20L 0 20C 5.52283 20 10 15.5229 10 10C 10 4.47716 5.52283 0 0 0L 43.7961 0C 38.2733 0 33.7961 4.47716 33.7961 10C 33.7961 15.5229 38.2733 20 43.7961 20Z"/>
<path id="path5_fill" d="M 0 9.9092C 0 4.4365 4.4365 0 9.9092 0L 20.9843 0C 26.457 0 30.8935 4.4365 30.8935 9.9092L 30.8935 9.9092C 30.8935 15.3819 26.457 19.8184 20.9843 19.8184L 9.9092 19.8184C 4.4365 19.8184 0 15.3819 0 9.9092L 0 9.9092Z"/>
<path id="path6_fill" d="M 0 9.9092C 0 4.4365 4.4365 0 9.9092 0L 10.0221 0C 15.4948 0 19.9313 4.4365 19.9313 9.9092L 19.9313 9.9092C 19.9313 15.3819 15.4948 19.8184 10.0221 19.8184L 9.9092 19.8184C 4.4365 19.8184 0 15.3819 0 9.9092L 0 9.9092Z"/>
</defs>
</svg>
