<svg width="224" height="101" viewBox="0 0 224 101" version="1.1" xmlns="http://www.w3.org/2000/svg" xmlns:xlink="http://www.w3.org/1999/xlink" xmlns:figma="http://www.figma.com/figma/ns">
<title>cloud</title>
<desc>Created using Figma</desc>
<g id="Canvas" transform="translate(-1031 -502)" figma:type="canvas">
<g id="cloud" style="mix-blend-mode:normal;" figma:type="instance">
<g id="Union" style="mix-blend-mode:normal;" figma:type="vector-operation">
<use xlink:href="#path0_fill" transform="translate(1063.51 502.759)" fill="#E0FAF8" style="mix-blend-mode:normal;"/>
</g>
<g id="Rectangle 6" style="mix-blend-mode:normal;" figma:type="rounded-rectangle">
<use xlink:href="#path1_fill" transform="translate(1031.62 542.705)" fill="#E0FAF8" style="mix-blend-mode:normal;"/>
</g>
<g id="Rectangle 6" style="mix-blend-mode:normal;" figma:type="rounded-rectangle">
<use xlink:href="#path2_fill" transform="translate(1066.5 582.651)" fill="#E0FAF8" style="mix-blend-mode:normal;"/>
</g>
</g>
</g>
<defs>
<path id="path0_fill" fill-rule="evenodd" d="M 0 9.98645C 0 4.4711 4.47107 0 9.98645 0L 121.764 0C 127.279 0 131.75 4.4711 131.75 9.98645C 131.75 15.5018 127.279 19.973 121.764 19.973L 104.876 19.9729L 104.84 19.973C 99.3413 19.992 94.8892 24.4558 94.8892 29.9594C 94.8892 35.4748 99.3604 39.9459 104.876 39.9459L 181.317 39.9459C 186.832 39.9459 191.303 44.417 191.303 49.9323C 191.303 55.4477 186.832 59.9188 181.317 59.9188L 137.292 59.9188C 131.776 59.9188 127.305 64.3899 127.305 69.9053C 127.305 75.4089 131.757 79.8727 137.257 79.8917C 137.268 79.8917 137.28 79.8918 137.292 79.8918L 159.236 79.8917C 164.752 79.8917 169.223 84.3629 169.223 89.8782C 169.223 95.3936 164.752 99.8647 159.236 99.8647L 45.8558 99.8647C 40.3405 99.8647 35.8694 95.3936 35.8694 89.8782C 35.8694 84.3629 40.3405 79.8917 45.8558 79.8917L 53.4496 79.8918L 53.4849 79.8917C 58.984 79.8727 63.4362 75.4089 63.4362 69.9053C 63.4362 64.3899 58.965 59.9188 53.4496 59.9188L 24.932 59.9188C 19.4166 59.9188 14.9456 55.4477 14.9456 49.9323C 14.9456 44.417 19.4166 39.9459 24.932 39.9459L 65.8523 39.9459C 71.3677 39.9459 75.8387 35.4748 75.8387 29.9594C 75.8387 24.4558 71.3867 19.992 65.8876 19.973L 65.8523 19.9729L 9.98645 19.973C 4.47107 19.973 0 15.5018 0 9.98645Z"/>
<path id="path1_fill" d="M 0 9.98647C 0 4.47109 4.47109 0 9.98647 0L 25.7081 0C 31.2235 0 35.6946 4.47109 35.6946 9.98647L 35.6946 9.98647C 35.6946 15.5018 31.2235 19.9729 25.7081 19.9729L 9.98647 19.9729C 4.47109 19.9729 0 15.5018 0 9.98647L 0 9.98647Z"/>
<path id="path2_fill" d="M 0 9.98647C 0 4.47109 4.47109 0 9.98647 0L 14.6789 0C 20.1943 0 24.6653 4.47109 24.6653 9.98647L 24.6653 9.98647C 24.6653 15.5018 20.1943 19.9729 14.6789 19.9729L 9.98647 19.9729C 4.47109 19.9729 0 15.5018 0 9.98647L 0 9.98647Z"/>
</defs>
</svg>
