<svg width="173" height="285" viewBox="0 0 173 285" version="1.1" xmlns="http://www.w3.org/2000/svg" xmlns:xlink="http://www.w3.org/1999/xlink" xmlns:figma="http://www.figma.com/figma/ns">
<title>Money Crate Illustration - Smaller</title>
<desc>Created using Figma</desc>
<g id="Canvas" transform="translate(1511 -1049)" figma:type="canvas">
<g id="Money Crate Illustration - Smaller" style="mix-blend-mode:normal;" figma:type="symbol">
<g id="Parachute" style="mix-blend-mode:normal;" figma:type="frame">
<g id="Crate" style="mix-blend-mode:normal;" figma:type="frame">
<g id="Fill" style="mix-blend-mode:normal;" figma:type="frame">
<g id="Rectangle 7" style="mix-blend-mode:normal;" figma:type="vector">
<use xlink:href="#path0_fill" transform="matrix(-4.578e-18 -1 1 1.8103e-17 -1485.02 1331)" fill="url(#paint0_linear)" style="mix-blend-mode:normal;"/>
</g>
<g id="Rectangle 7" style="mix-blend-mode:normal;" figma:type="vector">
<use xlink:href="#path1_fill" transform="matrix(-4.13892e-18 -1 1 1.74738e-17 -1444.06 1305.61)" fill="url(#paint1_linear)" style="mix-blend-mode:normal;"/>
</g>
</g>
<g id="Details" style="mix-blend-mode:normal;" figma:type="frame">
<g id="Wood Grains" style="mix-blend-mode:normal;" figma:type="frame">
<g id="Vector 3" style="mix-blend-mode:normal;" figma:type="vector">
<use xlink:href="#path2_stroke" transform="matrix(1 -5.55112e-17 5.55112e-17 1 -1479.78 1243.47)" fill="#D92929" style="mix-blend-mode:normal;"/>
</g>
<g id="Vector 3" style="mix-blend-mode:normal;" figma:type="vector">
<use xlink:href="#path3_stroke" transform="matrix(5.90824e-18 -1 1 5.53471e-18 -1475.22 1277.57)" fill="#D92929" style="mix-blend-mode:normal;"/>
</g>
<g id="Vector 3" style="mix-blend-mode:normal;" figma:type="vector">
<use xlink:href="#path4_stroke" transform="matrix(1.16931e-16 1 -1 1.16557e-16 -1468.38 1273.02)" fill="#D92929" style="mix-blend-mode:normal;"/>
</g>
<g id="Vector 3" style="mix-blend-mode:normal;" figma:type="vector">
<use xlink:href="#path5_stroke" transform="matrix(5.90824e-18 -1 1 5.53471e-18 -1377.92 1298.03)" fill="#D92929" style="mix-blend-mode:normal;"/>
</g>
<g id="Vector 3" style="mix-blend-mode:normal;" figma:type="vector">
<use xlink:href="#path6_stroke" transform="matrix(-2.39769e-16 -1 1 -2.38649e-16 -1380.2 1314.71)" fill="#D92929" style="mix-blend-mode:normal;"/>
</g>
<g id="Vector 3" style="mix-blend-mode:normal;" figma:type="vector">
<use xlink:href="#path7_stroke" transform="matrix(1 -5.55112e-17 5.55112e-17 1 -1437.21 1247.26)" fill="#D92929" style="mix-blend-mode:normal;"/>
</g>
<g id="Vector 3" style="mix-blend-mode:normal;" figma:type="vector">
<use xlink:href="#path7_stroke" transform="matrix(1 -5.55112e-17 5.55112e-17 1 -1485.1 1233.24)" fill="#D92929" style="mix-blend-mode:normal;"/>
</g>
<g id="Vector 3" style="mix-blend-mode:normal;" figma:type="vector">
<use xlink:href="#path8_stroke" transform="matrix(1 -2.99695e-16 3.01189e-16 1 -1388.56 1240.43)" fill="#D92929" style="mix-blend-mode:normal;"/>
</g>
<g id="Vector 3" style="mix-blend-mode:normal;" figma:type="vector">
<use xlink:href="#path9_stroke" transform="matrix(-1 1.77603e-16 -1.7835e-16 -1 -1383.24 1319.25)" fill="#D92929" style="mix-blend-mode:normal;"/>
</g>
<g id="Vector 3" style="mix-blend-mode:normal;" figma:type="vector">
<use xlink:href="#path7_stroke" transform="matrix(-1 -6.65806e-17 6.73276e-17 -1 -1385.52 1309.4)" fill="#D92929" style="mix-blend-mode:normal;"/>
</g>
<g id="Vector 3" style="mix-blend-mode:normal;" figma:type="vector">
<use xlink:href="#path10_stroke" transform="matrix(-1 1.77603e-16 -1.7835e-16 -1 -1377.16 1326.99)" fill="#D92929" style="mix-blend-mode:normal;"/>
</g>
<g id="Vector 3" style="mix-blend-mode:normal;" figma:type="vector">
<use xlink:href="#path8_stroke" transform="matrix(-1 1.77603e-16 -1.7835e-16 -1 -1460.78 1323.04)" fill="#D92929" style="mix-blend-mode:normal;"/>
</g>
<g id="Vector 3" style="mix-blend-mode:normal;" figma:type="vector">
<use xlink:href="#path8_stroke" transform="matrix(-1 1.77603e-16 -1.7835e-16 -1 -1444.06 1282.12)" fill="#D92929" style="mix-blend-mode:normal;"/>
</g>
<g id="Vector 3" style="mix-blend-mode:normal;" figma:type="vector">
<use xlink:href="#path11_stroke" transform="matrix(-1 1.77603e-16 -1.7835e-16 -1 -1389.32 1257.87)" fill="#D92929" style="mix-blend-mode:normal;"/>
</g>
</g>
<g id="Nail Holes" style="mix-blend-mode:normal;" figma:type="frame">
<g id="Ellipse 7" style="mix-blend-mode:normal;" figma:type="ellipse">
<use xlink:href="#path12_fill" transform="matrix(1 -5.55112e-17 5.55112e-17 1 -1475.98 1247.26)" fill="#500960" style="mix-blend-mode:normal;"/>
</g>
<g id="Ellipse 7" style="mix-blend-mode:normal;" figma:type="ellipse">
<use xlink:href="#path12_fill" transform="matrix(1 -5.55112e-17 5.55112e-17 1 -1475.98 1239.68)" fill="#500960" style="mix-blend-mode:normal;"/>
</g>
<g id="Ellipse 7" style="mix-blend-mode:normal;" figma:type="ellipse">
<use xlink:href="#path12_fill" transform="matrix(1 -5.55112e-17 5.55112e-17 1 -1374.88 1247.26)" fill="#500960" style="mix-blend-mode:normal;"/>
</g>
<g id="Ellipse 7" style="mix-blend-mode:normal;" figma:type="ellipse">
<use xlink:href="#path12_fill" transform="matrix(1 -5.55112e-17 5.55112e-17 1 -1374.88 1239.68)" fill="#500960" style="mix-blend-mode:normal;"/>
</g>
<g id="Ellipse 7" style="mix-blend-mode:normal;" figma:type="ellipse">
<use xlink:href="#path12_fill" transform="matrix(1 -5.55112e-17 5.55112e-17 1 -1475.98 1326.24)" fill="#500960" style="mix-blend-mode:normal;"/>
</g>
<g id="Ellipse 7" style="mix-blend-mode:normal;" figma:type="ellipse">
<use xlink:href="#path12_fill" transform="matrix(1 -5.55112e-17 5.55112e-17 1 -1475.98 1318.66)" fill="#500960" style="mix-blend-mode:normal;"/>
</g>
<g id="Ellipse 7" style="mix-blend-mode:normal;" figma:type="ellipse">
<use xlink:href="#path12_fill" transform="matrix(1 -5.55112e-17 5.55112e-17 1 -1475.98 1309.4)" fill="#500960" style="mix-blend-mode:normal;"/>
</g>
<g id="Ellipse 7" style="mix-blend-mode:normal;" figma:type="ellipse">
<use xlink:href="#path12_fill" transform="matrix(1 -5.55112e-17 5.55112e-17 1 -1438.25 1298.31)" fill="#500960" style="mix-blend-mode:normal;"/>
</g>
<g id="Ellipse 7" style="mix-blend-mode:normal;" figma:type="ellipse">
<use xlink:href="#path12_fill" transform="matrix(1 -5.55112e-17 5.55112e-17 1 -1411.85 1298.31)" fill="#500960" style="mix-blend-mode:normal;"/>
</g>
<g id="Ellipse 7" style="mix-blend-mode:normal;" figma:type="ellipse">
<use xlink:href="#path12_fill" transform="matrix(1 -5.55112e-17 5.55112e-17 1 -1438.25 1267.44)" fill="#500960" style="mix-blend-mode:normal;"/>
</g>
<g id="Ellipse 7" style="mix-blend-mode:normal;" figma:type="ellipse">
<use xlink:href="#path12_fill" transform="matrix(1 -5.55112e-17 5.55112e-17 1 -1411.85 1267.44)" fill="#500960" style="mix-blend-mode:normal;"/>
</g>
<g id="Ellipse 7" style="mix-blend-mode:normal;" figma:type="ellipse">
<use xlink:href="#path12_fill" transform="matrix(1 -5.55112e-17 5.55112e-17 1 -1468.38 1309.4)" fill="#500960" style="mix-blend-mode:normal;"/>
</g>
<g id="Ellipse 7" style="mix-blend-mode:normal;" figma:type="ellipse">
<use xlink:href="#path12_fill" transform="matrix(1 -5.55112e-17 5.55112e-17 1 -1475.98 1256.35)" fill="#500960" style="mix-blend-mode:normal;"/>
</g>
<g id="Ellipse 7" style="mix-blend-mode:normal;" figma:type="ellipse">
<use xlink:href="#path12_fill" transform="matrix(1 -5.55112e-17 5.55112e-17 1 -1468.38 1256.35)" fill="#500960" style="mix-blend-mode:normal;"/>
</g>
<g id="Ellipse 7" style="mix-blend-mode:normal;" figma:type="ellipse">
<use xlink:href="#path12_fill" transform="matrix(1 -5.55112e-17 5.55112e-17 1 -1382.48 1309.4)" fill="#500960" style="mix-blend-mode:normal;"/>
</g>
<g id="Ellipse 7" style="mix-blend-mode:normal;" figma:type="ellipse">
<use xlink:href="#path12_fill" transform="matrix(1 -5.55112e-17 5.55112e-17 1 -1374.88 1309.4)" fill="#500960" style="mix-blend-mode:normal;"/>
</g>
<g id="Ellipse 7" style="mix-blend-mode:normal;" figma:type="ellipse">
<use xlink:href="#path12_fill" transform="matrix(1 -5.55112e-17 5.55112e-17 1 -1382.48 1256.35)" fill="#500960" style="mix-blend-mode:normal;"/>
</g>
<g id="Ellipse 7" style="mix-blend-mode:normal;" figma:type="ellipse">
<use xlink:href="#path12_fill" transform="matrix(1 -5.55112e-17 5.55112e-17 1 -1374.88 1256.35)" fill="#500960" style="mix-blend-mode:normal;"/>
</g>
<g id="Ellipse 7" style="mix-blend-mode:normal;" figma:type="ellipse">
<use xlink:href="#path12_fill" transform="matrix(1 -5.55112e-17 5.55112e-17 1 -1374.88 1326.24)" fill="#500960" style="mix-blend-mode:normal;"/>
</g>
<g id="Ellipse 7" style="mix-blend-mode:normal;" figma:type="ellipse">
<use xlink:href="#path12_fill" transform="matrix(1 -5.55112e-17 5.55112e-17 1 -1374.88 1318.66)" fill="#500960" style="mix-blend-mode:normal;"/>
</g>
</g>
</g>
<g id="Strokes" style="mix-blend-mode:normal;" figma:type="frame">
<g id="Rectangle 7" style="mix-blend-mode:normal;" figma:type="vector">
<use xlink:href="#path13_stroke" transform="matrix(1 -5.55112e-17 5.55112e-17 1 -1485.1 1229.82)" fill="#500960" style="mix-blend-mode:normal;"/>
</g>
<g id="Rectangle 7" style="mix-blend-mode:normal;" figma:type="vector">
<use xlink:href="#path14_stroke" transform="matrix(1 -5.55112e-17 5.55112e-17 1 -1480.54 1236.65)" fill="#500960" style="mix-blend-mode:normal;"/>
</g>
<g id="Rectangle 7" style="mix-blend-mode:normal;" figma:type="vector">
<use xlink:href="#path15_stroke" transform="matrix(1 -5.55112e-17 5.55112e-17 1 -1480.54 1315.46)" fill="#500960" style="mix-blend-mode:normal;"/>
</g>
<g id="Rectangle 7" style="mix-blend-mode:normal;" figma:type="vector">
<use xlink:href="#path16_stroke" transform="matrix(1 -5.55111e-17 5.55111e-17 1 -1463.82 1263.93)" fill="#500960" style="mix-blend-mode:normal;"/>
</g>
<g id="Rectangle 7" style="mix-blend-mode:normal;" figma:type="vector">
<use xlink:href="#path17_stroke" transform="matrix(1 -5.55111e-17 5.55111e-17 1 -1463.82 1277.57)" fill="#500960" style="mix-blend-mode:normal;"/>
</g>
<g id="Rectangle 7" style="mix-blend-mode:normal;" figma:type="vector">
<use xlink:href="#path18_stroke" transform="matrix(1 -5.55111e-17 5.55111e-17 1 -1463.82 1303.34)" fill="#500960" style="mix-blend-mode:normal;"/>
</g>
<g id="Rectangle 7" style="mix-blend-mode:normal;" figma:type="vector">
<use xlink:href="#path19_stroke" transform="matrix(-4.578e-18 -1 1 1.8103e-17 -1479.02 1314.71)" fill="#500960" style="mix-blend-mode:normal;"/>
</g>
<g id="Rectangle 7" style="mix-blend-mode:normal;" figma:type="vector">
<use xlink:href="#path20_stroke" transform="matrix(-4.578e-18 -1 1 1.8103e-17 -1385.52 1314.71)" fill="#500960" style="mix-blend-mode:normal;"/>
</g>
<g id="Rectangle 7" style="mix-blend-mode:normal;" figma:type="vector">
<use xlink:href="#path21_stroke" transform="matrix(-4.13892e-18 -1 1 1.74738e-17 -1444.06 1305.61)" fill="#500960" style="mix-blend-mode:normal;"/>
</g>
<g id="Rectangle 7" style="mix-blend-mode:normal;" figma:type="vector">
<use xlink:href="#path22_stroke" transform="matrix(-4.13892e-18 -1 1 1.74738e-17 -1440.67 1302.05)" fill="#500960" style="mix-blend-mode:normal;"/>
</g>
</g>
<g id="Dollar" style="mix-blend-mode:normal;" figma:type="frame">
<g id="Vector" style="mix-blend-mode:normal;" figma:type="vector">
<use xlink:href="#path23_stroke" transform="matrix(1 -5.55112e-17 5.55112e-17 1 -1431 1274.1)" fill="#500960" style="mix-blend-mode:normal;"/>
</g>
<g id="Vector 2" style="mix-blend-mode:normal;" figma:type="vector">
<use xlink:href="#path24_stroke" transform="matrix(1 -5.55112e-17 5.55112e-17 1 -1425.1 1270.63)" fill="#500960" style="mix-blend-mode:normal;"/>
</g>
</g>
</g>
<g id="Parachute Illo" style="mix-blend-mode:normal;" figma:type="frame">
<g id="Parachute Strings" style="mix-blend-mode:normal;" figma:type="frame">
<g id="Vector 4" style="mix-blend-mode:normal;" figma:type="vector">
<use xlink:href="#path25_stroke" transform="matrix(1 -5.55112e-17 5.55112e-17 1 -1501.83 1168.09)" fill="#500960" style="mix-blend-mode:normal;"/>
</g>
<g id="Vector 4" style="mix-blend-mode:normal;" figma:type="vector">
<use xlink:href="#path26_stroke" transform="matrix(-1 5.55112e-17 5.55112e-17 1 -1347.51 1168.09)" fill="#500960" style="mix-blend-mode:normal;"/>
</g>
<g id="Vector 4" style="mix-blend-mode:normal;" figma:type="vector">
<use xlink:href="#path27_stroke" transform="matrix(1 -5.55112e-17 5.55112e-17 1 -1458.5 1160.13)" fill="#500960" style="mix-blend-mode:normal;"/>
</g>
<g id="Vector 4" style="mix-blend-mode:normal;" figma:type="vector">
<use xlink:href="#path28_stroke" transform="matrix(-1 5.55112e-17 5.55112e-17 1 -1390.84 1160.13)" fill="#500960" style="mix-blend-mode:normal;"/>
</g>
<g id="Vector 4" style="mix-blend-mode:normal;" figma:type="vector">
<use xlink:href="#path29_stroke" transform="matrix(1 -8.15347e-17 3.77936e-17 1 -1482 1162.71)" fill="#500960" style="mix-blend-mode:normal;"/>
</g>
<g id="Vector 4" style="mix-blend-mode:normal;" figma:type="vector">
<use xlink:href="#path30_stroke" transform="matrix(-1 8.15347e-17 3.77936e-17 1 -1366.5 1162.5)" fill="#500960" style="mix-blend-mode:normal;"/>
</g>
<g id="Vector 4" style="mix-blend-mode:normal;" figma:type="vector">
<use xlink:href="#path31_stroke" transform="matrix(1 -8.02766e-17 3.83859e-17 1 -1448 1160)" fill="#500960" style="mix-blend-mode:normal;"/>
</g>
<g id="Vector 4" style="mix-blend-mode:normal;" figma:type="vector">
<use xlink:href="#path32_stroke" transform="matrix(-1 8.02766e-17 3.83859e-17 1 -1401 1160)" fill="#500960" style="mix-blend-mode:normal;"/>
</g>
</g>
<g id="Parachute Top" style="mix-blend-mode:normal;" figma:type="frame">
<g id="Fill" style="mix-blend-mode:normal;" figma:type="frame">
<g id="Ellipse 6" style="mix-blend-mode:normal;" figma:type="vector">
<use xlink:href="#path33_fill" transform="matrix(1 -5.55112e-17 5.55112e-17 1 -1505.29 1131.98)" fill="url(#paint56_linear)" style="mix-blend-mode:normal;"/>
</g>
<g id="Ellipse 6" style="mix-blend-mode:normal;" figma:type="vector">
<use xlink:href="#path34_fill" transform="matrix(1 -5.55112e-17 5.55112e-17 1 -1508.67 1051)" fill="url(#paint57_linear)" style="mix-blend-mode:normal;"/>
</g>
<g id="Intersect" style="mix-blend-mode:normal;" figma:type="vector-operation">
<use xlink:href="#path35_fill" transform="matrix(1 -5.55112e-17 5.55112e-17 1 -1462.74 1051.76)" fill="url(#paint58_linear)" style="mix-blend-mode:normal;"/>
</g>
</g>
<g id="Details" style="mix-blend-mode:normal;" figma:type="frame">
<g id="Intersect" style="mix-blend-mode:normal;" figma:type="vector">
<use xlink:href="#path36_stroke" transform="translate(-1462.74 1055.19)" fill="#500960" style="mix-blend-mode:normal;"/>
</g>
<g id="Vector 6" style="mix-blend-mode:normal;" figma:type="vector">
<use xlink:href="#path37_stroke" transform="translate(-1487.4 1111.8)" fill="#20BDC0" style="mix-blend-mode:normal;"/>
</g>
<g id="Vector 6" style="mix-blend-mode:normal;" figma:type="vector">
<use xlink:href="#path38_stroke" transform="matrix(-0.987688 -0.156434 -0.156434 0.987688 -1349.06 1125.12)" fill="#2867B4" style="mix-blend-mode:normal;"/>
</g>
<g id="Vector 8" style="mix-blend-mode:normal;" figma:type="vector">
<use xlink:href="#path39_stroke" transform="translate(-1439.5 1052.3)" fill="#20BDC0" style="mix-blend-mode:normal;"/>
</g>
</g>
<g id="Stroke" style="mix-blend-mode:normal;" figma:type="vector">
<use xlink:href="#path40_stroke" transform="matrix(1 -5.55112e-17 5.55112e-17 1 -1508.67 1051)" fill="#500960" style="mix-blend-mode:normal;"/>
</g>
<g id="Vector 20" style="mix-blend-mode:normal;" figma:type="vector">
<use xlink:href="#path41_stroke" transform="translate(-1502 1147.69)" fill="#500960" style="mix-blend-mode:normal;"/>
</g>
</g>
</g>
</g>
</g>
</g>
<defs>
<linearGradient id="paint0_linear" x1="0" y1="0" x2="1" y2="0" gradientUnits="userSpaceOnUse" gradientTransform="matrix(-76.9234 115.079 -95.9647 -64.539 140.442 32.2695)">
<stop offset="0" stop-color="#E1946D"/>
<stop offset="1" stop-color="#D26C55"/>
</linearGradient>
<linearGradient id="paint1_linear" x1="0" y1="0" x2="1" y2="0" gradientUnits="userSpaceOnUse" gradientTransform="matrix(-31.8304 57.3937 -63.8211 -35.6115 59.1937 11.7244)">
<stop offset="0" stop-color="#E5A887"/>
<stop offset="0.988889" stop-color="#D4822A"/>
</linearGradient>
<linearGradient id="paint56_linear" x1="0" y1="0" x2="1" y2="0" gradientUnits="userSpaceOnUse" gradientTransform="matrix(99.6199 68.9419 -113.135 123.41 95.7399 -96.597)">
<stop offset="0" stop-color="#3CB384"/>
<stop offset="1" stop-color="#124079"/>
</linearGradient>
<linearGradient id="paint57_linear" x1="0" y1="0" x2="1" y2="0" gradientUnits="userSpaceOnUse" gradientTransform="matrix(130.751 103.828 -148.49 185.858 104.272 -73.2245)">
<stop offset="0" stop-color="#1CF6C8"/>
<stop offset="1" stop-color="#2867B4"/>
</linearGradient>
<linearGradient id="paint58_linear" x1="0" y1="0" x2="1" y2="0" gradientUnits="userSpaceOnUse" gradientTransform="matrix(69.1765 69.7237 -49.354 48.6689 16.755 0.296197)">
<stop offset="0" stop-color="#3CF6CF"/>
<stop offset="1" stop-color="#2867B4"/>
</linearGradient>
<path id="path0_fill" d="M 1.08949e-16 6.20261C 1.1059e-16 4.54575 1.34315 3.20261 3 3.20261L 12.4131 3.20261C 13.7194 3.20261 14.7784 4.2616 14.7784 5.56792L 78.795 5.56792L 78.795 4.49255L 94.3404 4.49255L 94.3404 2C 94.3404 0.895431 95.2359 0 96.3404 0L 99.0458 0C 100.15 0 101.046 0.895431 101.046 2L 101.046 119.172C 101.046 120.277 100.15 121.172 99.0458 121.172L 96.3404 121.172C 95.2359 121.172 94.3404 120.277 94.3404 119.172L 94.3404 116.141L 78.795 115.918L 78.795 115.079L 15.5363 115.079C 15.5363 115.667 15.0616 116.144 14.4743 116.147L 3.01511 116.204C 1.35237 116.213 1.33927e-18 114.867 2.98589e-18 113.204L 1.08949e-16 6.20261Z"/>
<path id="path1_fill" d="M 0 5C 0 2.23858 2.23858 0 5 0L 38.9562 0C 41.7176 0 43.9562 2.23858 43.9562 5L 43.9562 34.5294C 43.9562 37.2908 41.7176 39.5294 38.9562 39.5294L 33.3461 39.5294L 25.0096 39.5294L 19.7045 39.5294L 5 39.5294C 2.23858 39.5294 0 37.2908 0 34.5294L 0 5Z"/>
<path id="path2_stroke" d="M 0 -0.75C -0.414214 -0.75 -0.75 -0.414214 -0.75 0C -0.75 0.414214 -0.414214 0.75 0 0.75L 0 -0.75ZM 15.9638 0.75C 16.378 0.75 16.7138 0.414214 16.7138 0C 16.7138 -0.414214 16.378 -0.75 15.9638 -0.75L 15.9638 0.75ZM 14.5994 -0.75C 14.1852 -0.75 13.8494 -0.414214 13.8494 0C 13.8494 0.414214 14.1852 0.75 14.5994 0.75L 14.5994 -0.75ZM 11.9729 0.75C 12.3871 0.75 12.7229 0.414214 12.7229 0C 12.7229 -0.414214 12.3871 -0.75 11.9729 -0.75L 11.9729 0.75ZM 14.5994 0.75L 15.9638 0.75L 15.9638 -0.75L 14.5994 -0.75L 14.5994 0.75ZM 0 0.75L 11.9729 0.75L 11.9729 -0.75L 0 -0.75L 0 0.75Z"/>
<path id="path3_stroke" d="M 0 -0.75C -0.414214 -0.75 -0.75 -0.414214 -0.75 0C -0.75 0.414214 -0.414214 0.75 0 0.75L 0 -0.75ZM 15.9152 0.75C 16.3294 0.75 16.6652 0.414214 16.6652 0C 16.6652 -0.414214 16.3294 -0.75 15.9152 -0.75L 15.9152 0.75ZM 14.5549 -0.75C 14.1407 -0.75 13.8049 -0.414214 13.8049 0C 13.8049 0.414214 14.1407 0.75 14.5549 0.75L 14.5549 -0.75ZM 11.9364 0.75C 12.3506 0.75 12.6864 0.414214 12.6864 0C 12.6864 -0.414214 12.3506 -0.75 11.9364 -0.75L 11.9364 0.75ZM 14.5549 0.75L 15.9152 0.75L 15.9152 -0.75L 14.5549 -0.75L 14.5549 0.75ZM 0 0.75L 11.9364 0.75L 11.9364 -0.75L 0 -0.75L 0 0.75Z"/>
<path id="path4_stroke" d="M 0 -0.75C -0.414214 -0.75 -0.75 -0.414214 -0.75 0C -0.75 0.414214 -0.414214 0.75 0 0.75L 0 -0.75ZM 30.3146 0.75C 30.7289 0.75 31.0646 0.414214 31.0646 0C 31.0646 -0.414214 30.7289 -0.75 30.3146 -0.75L 30.3146 0.75ZM 23.1149 -0.75C 22.7007 -0.75 22.3649 -0.414214 22.3649 0C 22.3649 0.414214 22.7007 0.75 23.1149 0.75L 23.1149 -0.75ZM 18.1272 0.75C 18.5415 0.75 18.8772 0.414214 18.8772 0C 18.8772 -0.414214 18.5415 -0.75 18.1272 -0.75L 18.1272 0.75ZM 23.1149 0.75L 30.3146 0.75L 30.3146 -0.75L 23.1149 -0.75L 23.1149 0.75ZM 0 0.75L 18.1272 0.75L 18.1272 -0.75L 0 -0.75L 0 0.75Z"/>
<path id="path5_stroke" d="M 0 -0.75C -0.414214 -0.75 -0.75 -0.414214 -0.75 0C -0.75 0.414214 -0.414214 0.75 0 0.75L 0 -0.75ZM 21.4097 0.75C 21.8239 0.75 22.1597 0.414214 22.1597 0C 22.1597 -0.414214 21.8239 -0.75 21.4097 -0.75L 21.4097 0.75ZM 14.5549 -0.75C 14.1407 -0.75 13.8049 -0.414214 13.8049 0C 13.8049 0.414214 14.1407 0.75 14.5549 0.75L 14.5549 -0.75ZM 11.9364 0.75C 12.3506 0.75 12.6864 0.414214 12.6864 0C 12.6864 -0.414214 12.3506 -0.75 11.9364 -0.75L 11.9364 0.75ZM 14.5549 0.75L 21.4097 0.75L 21.4097 -0.75L 14.5549 -0.75L 14.5549 0.75ZM 0 0.75L 11.9364 0.75L 11.9364 -0.75L 0 -0.75L 0 0.75Z"/>
<path id="path6_stroke" d="M 0 -0.75C -0.414214 -0.75 -0.75 -0.414214 -0.75 0C -0.75 0.414214 -0.414214 0.75 0 0.75L 0 -0.75ZM 9.09439 0.75C 9.5086 0.75 9.84439 0.414214 9.84439 -9.82651e-17C 9.84439 -0.414214 9.5086 -0.75 9.09439 -0.75L 9.09439 0.75ZM 7.69234 -0.75C 7.27813 -0.75 6.94234 -0.414214 6.94234 2.81962e-16C 6.94234 0.414214 7.27813 0.75 7.69234 0.75L 7.69234 -0.75ZM 5.43817 0.75C 5.85239 0.75 6.18817 0.414214 6.18817 0C 6.18817 -0.414214 5.85239 -0.75 5.43817 -0.75L 5.43817 0.75ZM 7.69234 0.75L 9.09439 0.75L 9.09439 -0.75L 7.69234 -0.75L 7.69234 0.75ZM 0 0.75L 5.43817 0.75L 5.43817 -0.75L 0 -0.75L 0 0.75Z"/>
<path id="path7_stroke" d="M 0 -0.75C -0.414214 -0.75 -0.75 -0.414214 -0.75 0C -0.75 0.414214 -0.414214 0.75 0 0.75L 0 -0.75ZM 18.2443 0.75C 18.6586 0.75 18.9943 0.414214 18.9943 0C 18.9943 -0.414214 18.6586 -0.75 18.2443 -0.75L 18.2443 0.75ZM 14.5994 -0.75C 14.1852 -0.75 13.8494 -0.414214 13.8494 0C 13.8494 0.414214 14.1852 0.75 14.5994 0.75L 14.5994 -0.75ZM 9.50226 0.75C 9.91648 0.75 10.2523 0.414214 10.2523 0C 10.2523 -0.414214 9.91648 -0.75 9.50226 -0.75L 9.50226 0.75ZM 14.5994 0.75L 18.2443 0.75L 18.2443 -0.75L 14.5994 -0.75L 14.5994 0.75ZM 0 0.75L 9.50226 0.75L 9.50226 -0.75L 0 -0.75L 0 0.75Z"/>
<path id="path8_stroke" d="M 2.07816e-17 -0.75C -0.414214 -0.75 -0.75 -0.414214 -0.75 1.64842e-16C -0.75 0.414214 -0.414214 0.75 -2.07816e-17 0.75L 2.07816e-17 -0.75ZM 10.6425 0.75C 11.0567 0.75 11.3925 0.414214 11.3925 -9.17157e-17C 11.3925 -0.414214 11.0567 -0.75 10.6425 -0.75L 10.6425 0.75ZM 9.12461 -0.75C 8.71039 -0.75 8.37461 -0.414214 8.37461 2.77339e-16C 8.37461 0.414214 8.71039 0.75 9.12461 0.75L 9.12461 -0.75ZM 6.69909 0.75C 7.11331 0.75 7.44909 0.414214 7.44909 3.92029e-16C 7.44909 -0.414214 7.11331 -0.75 6.69909 -0.75L 6.69909 0.75ZM 9.12461 0.75L 10.6425 0.75L 10.6425 -0.75L 9.12461 -0.75L 9.12461 0.75ZM -2.07816e-17 0.75L 6.69909 0.75L 6.69909 -0.75L 2.07816e-17 -0.75L -2.07816e-17 0.75Z"/>
<path id="path9_stroke" d="M 0 -0.75C -0.414214 -0.75 -0.75 -0.414214 -0.75 0C -0.75 0.414214 -0.414214 0.75 0 0.75L 0 -0.75ZM 37.2489 0.75C 37.6631 0.75 37.9989 0.414214 37.9989 0C 37.9989 -0.414214 37.6631 -0.75 37.2489 -0.75L 37.2489 0.75ZM 34.0652 -0.75C 33.651 -0.75 33.3152 -0.414214 33.3152 0C 33.3152 0.414214 33.651 0.75 34.0652 0.75L 34.0652 -0.75ZM 27.9367 0.75C 28.3509 0.75 28.6867 0.414214 28.6867 0C 28.6867 -0.414214 28.3509 -0.75 27.9367 -0.75L 27.9367 0.75ZM 34.0652 0.75L 37.2489 0.75L 37.2489 -0.75L 34.0652 -0.75L 34.0652 0.75ZM 0 0.75L 27.9367 0.75L 27.9367 -0.75L 0 -0.75L 0 0.75Z"/>
<path id="path10_stroke" d="M 0 -0.75C -0.414214 -0.75 -0.75 -0.414214 -0.75 0C -0.75 0.414214 -0.414214 0.75 0 0.75L 0 -0.75ZM 7.60181 0.75C 8.01602 0.75 8.35181 0.414214 8.35181 0C 8.35181 -0.414214 8.01602 -0.75 7.60181 -0.75L 7.60181 0.75ZM 6.08307 -0.75C 5.66886 -0.75 5.33307 -0.414214 5.33307 0C 5.33307 0.414214 5.66886 0.75 6.08307 0.75L 6.08307 -0.75ZM 3.95928 0.75C 4.37349 0.75 4.70928 0.414214 4.70928 0C 4.70928 -0.414214 4.37349 -0.75 3.95928 -0.75L 3.95928 0.75ZM 6.08307 0.75L 7.60181 0.75L 7.60181 -0.75L 6.08307 -0.75L 6.08307 0.75ZM 0 0.75L 3.95928 0.75L 3.95928 -0.75L 0 -0.75L 0 0.75Z"/>
<path id="path11_stroke" d="M -1.3262e-17 -0.75C -0.414214 -0.75 -0.75 -0.414214 -0.75 1.98886e-16C -0.75 0.414214 -0.414214 0.75 1.3262e-17 0.75L -1.3262e-17 -0.75ZM 15.9637 0.75C 16.3779 0.75 16.7137 0.414214 16.7137 0C 16.7137 -0.414214 16.3779 -0.75 15.9637 -0.75L 15.9637 0.75ZM 12.923 -0.75C 12.5088 -0.75 12.173 -0.414214 12.173 0C 12.173 0.414214 12.5088 0.75 12.923 0.75L 12.923 -0.75ZM 10.4975 0.75C 10.9117 0.75 11.2475 0.414214 11.2475 -1.3262e-17C 11.2475 -0.414214 10.9117 -0.75 10.4975 -0.75L 10.4975 0.75ZM 12.923 0.75L 15.9637 0.75L 15.9637 -0.75L 12.923 -0.75L 12.923 0.75ZM 1.3262e-17 0.75L 10.4975 0.75L 10.4975 -0.75L -1.3262e-17 -0.75L 1.3262e-17 0.75Z"/>
<path id="path12_fill" d="M 1.52036 0.757866C 1.52036 1.17642 1.18002 1.51573 0.760181 1.51573C 0.340345 1.51573 0 1.17642 0 0.757866C 0 0.339308 0.340345 0 0.760181 0C 1.18002 0 1.52036 0.339308 1.52036 0.757866Z"/>
<path id="path13_stroke" d="M 46.371 4.82079C 45.2665 4.82079 44.371 5.71622 44.371 6.82079C 44.371 7.92536 45.2665 8.82079 46.371 8.82079L 46.371 4.82079ZM 40.6697 8.82079C 41.7743 8.82079 42.6697 7.92536 42.6697 6.82079C 42.6697 5.71622 41.7743 4.82079 40.6697 4.82079L 40.6697 8.82079ZM 47.8914 8.82079C 48.996 8.82079 49.8914 7.92536 49.8914 6.82079C 49.8914 5.71622 48.996 4.82079 47.8914 4.82079L 47.8914 8.82079ZM 53.4525 4.82079C 52.3479 4.82079 51.4525 5.71622 51.4525 6.82079C 51.4525 7.92536 52.3479 8.82079 53.4525 8.82079L 53.4525 4.82079ZM 4.94127 2C 6.04584 2 6.94127 1.10457 6.94127 0C 6.94127 -1.10457 6.04584 -2 4.94127 -2L 4.94127 2ZM 9.98199 2C 11.0866 2 11.982 1.10457 11.982 0C 11.982 -1.10457 11.0866 -2 9.98199 -2L 9.98199 2ZM 9.88245 -2C 8.77788 -2 7.88245 -1.10457 7.88245 0C 7.88245 1.10457 8.77788 2 9.88245 2L 9.88245 -2ZM 17.1042 -2C 15.9996 -2 15.1042 -1.10457 15.1042 0C 15.1042 1.10457 15.9996 2 17.1042 2L 17.1042 -2ZM 84.2921 2C 85.3967 2 86.2921 1.10457 86.2921 0C 86.2921 -1.10457 85.3967 -2 84.2921 -2L 84.2921 2ZM 106.806 -2C 105.701 -2 104.806 -1.10457 104.806 0C 104.806 1.10457 105.701 2 106.806 2L 106.806 -2ZM 118.869 2L 118.869 4.82079L 122.869 4.82079L 122.869 2L 118.869 2ZM 2 4.82079L 2 2L -2 2L -2 4.82079L 2 4.82079ZM 40.6697 4.82079L 2 4.82079L 2 8.82079L 40.6697 8.82079L 40.6697 4.82079ZM 47.8914 4.82079L 46.371 4.82079L 46.371 8.82079L 47.8914 8.82079L 47.8914 4.82079ZM 118.869 4.82079L 53.4525 4.82079L 53.4525 8.82079L 118.869 8.82079L 118.869 4.82079ZM 2 2L 4.94127 2L 4.94127 -2L 2 -2L 2 2ZM 9.98199 -2L 9.88245 -2L 9.88245 2L 9.98199 2L 9.98199 -2ZM 17.1042 2L 84.2921 2L 84.2921 -2L 17.1042 -2L 17.1042 2ZM 106.806 2L 118.869 2L 118.869 -2L 106.806 -2L 106.806 2ZM 2 2L 2 -2C -0.209139 -2 -2 -0.209139 -2 2L 2 2ZM 122.869 2C 122.869 -0.209139 121.078 -2 118.869 -2L 118.869 2L 122.869 2ZM 118.869 4.82079L 118.869 8.82079C 121.078 8.82079 122.869 7.02993 122.869 4.82079L 118.869 4.82079ZM -2 4.82079C -2 7.02993 -0.209139 8.82079 2 8.82079L 2 4.82079L -2 4.82079Z"/>
<path id="path14_stroke" d="M 2 0C 2 -1.10457 1.10457 -2 0 -2C -1.10457 -2 -2 -1.10457 -2 0L 2 0ZM 113.747 0C 113.747 -1.10457 112.851 -2 111.747 -2C 110.642 -2 109.747 -1.10457 109.747 0L 113.747 0ZM 86.2805 13.5363C 85.176 13.5363 84.2805 14.4317 84.2805 15.5363C 84.2805 16.6408 85.176 17.5363 86.2805 17.5363L 86.2805 13.5363ZM 79.819 17.5363C 80.9236 17.5363 81.819 16.6408 81.819 15.5363C 81.819 14.4317 80.9236 13.5363 79.819 13.5363L 79.819 17.5363ZM 77.9186 13.5363C 76.814 13.5363 75.9186 14.4317 75.9186 15.5363C 75.9186 16.6408 76.814 17.5363 77.9186 17.5363L 77.9186 13.5363ZM 69.5566 17.5363C 70.6611 17.5363 71.5566 16.6408 71.5566 15.5363C 71.5566 14.4317 70.6611 13.5363 69.5566 13.5363L 69.5566 17.5363ZM 109.747 0L 109.747 13.5363L 113.747 13.5363L 113.747 0L 109.747 0ZM 2 13.5363L 2 0L -2 0L -2 13.5363L 2 13.5363ZM 109.747 13.5363L 86.2805 13.5363L 86.2805 17.5363L 109.747 17.5363L 109.747 13.5363ZM 79.819 13.5363L 77.9186 13.5363L 77.9186 17.5363L 79.819 17.5363L 79.819 13.5363ZM 69.5566 13.5363L 2 13.5363L 2 17.5363L 69.5566 17.5363L 69.5566 13.5363ZM 109.747 13.5363L 109.747 17.5363C 111.956 17.5363 113.747 15.7454 113.747 13.5363L 109.747 13.5363ZM -2 13.5363C -2 15.7454 -0.209139 17.5363 2 17.5363L 2 13.5363L -2 13.5363Z"/>
<path id="path15_stroke" d="M 27.7466 2C 28.8512 2 29.7466 1.10457 29.7466 0C 29.7466 -1.10457 28.8512 -2 27.7466 -2L 27.7466 2ZM 40.6697 -2C 39.5651 -2 38.6697 -1.10457 38.6697 0C 38.6697 1.10457 39.5651 2 40.6697 2L 40.6697 -2ZM 100.344 13.1573C 99.2393 13.1573 98.3439 14.0527 98.3439 15.1573C 98.3439 16.2619 99.2393 17.1573 100.344 17.1573L 100.344 13.1573ZM 94.2625 17.1573C 95.367 17.1573 96.2625 16.2619 96.2625 15.1573C 96.2625 14.0527 95.367 13.1573 94.2625 13.1573L 94.2625 17.1573ZM 93.5023 13.1573C 92.3977 13.1573 91.5023 14.0527 91.5023 15.1573C 91.5023 16.2619 92.3977 17.1573 93.5023 17.1573L 93.5023 13.1573ZM 76.3982 17.1573C 77.5028 17.1573 78.3982 16.2619 78.3982 15.1573C 78.3982 14.0527 77.5028 13.1573 76.3982 13.1573L 76.3982 17.1573ZM 109.747 2L 109.747 13.1573L 113.747 13.1573L 113.747 2L 109.747 2ZM 2 13.1573L 2 2L -2 2L -2 13.1573L 2 13.1573ZM 2 2L 27.7466 2L 27.7466 -2L 2 -2L 2 2ZM 40.6697 2L 109.747 2L 109.747 -2L 40.6697 -2L 40.6697 2ZM 109.747 13.1573L 100.344 13.1573L 100.344 17.1573L 109.747 17.1573L 109.747 13.1573ZM 94.2625 13.1573L 93.5023 13.1573L 93.5023 17.1573L 94.2625 17.1573L 94.2625 13.1573ZM 76.3982 13.1573L 2 13.1573L 2 17.1573L 76.3982 17.1573L 76.3982 13.1573ZM 2 2L 2 -2C -0.209139 -2 -2 -0.209139 -2 2L 2 2ZM 113.747 2C 113.747 -0.209139 111.956 -2 109.747 -2L 109.747 2L 113.747 2ZM 109.747 13.1573L 109.747 17.1573C 111.956 17.1573 113.747 15.3665 113.747 13.1573L 109.747 13.1573ZM -2 13.1573C -2 15.3665 -0.209139 17.1573 2 17.1573L 2 13.1573L -2 13.1573Z"/>
<path id="path16_stroke" d="M 74.4977 1C 75.05 1 75.4977 0.552285 75.4977 0C 75.4977 -0.552285 75.05 -1 74.4977 -1L 74.4977 1ZM 0 -1C -0.552285 -1 -1 -0.552285 -1 0C -1 0.552285 -0.552285 1 0 1L 0 -1ZM 8.36199 1C 8.91428 1 9.36199 0.552285 9.36199 0C 9.36199 -0.552285 8.91428 -1 8.36199 -1L 8.36199 1ZM 61.5747 -1C 61.0224 -1 60.5747 -0.552285 60.5747 0C 60.5747 0.552285 61.0224 1 61.5747 1L 61.5747 -1ZM 73.3575 -1C 72.8052 -1 72.3575 -0.552285 72.3575 0C 72.3575 0.552285 72.8052 1 73.3575 1L 73.3575 -1ZM 71.0769 1C 71.6292 1 72.0769 0.552285 72.0769 0C 72.0769 -0.552285 71.6292 -1 71.0769 -1L 71.0769 1ZM 8.36199 -1L 0 -1L 0 1L 8.36199 1L 8.36199 -1ZM 74.4977 -1L 73.3575 -1L 73.3575 1L 74.4977 1L 74.4977 -1ZM 71.0769 -1L 61.5747 -1L 61.5747 1L 71.0769 1L 71.0769 -1Z"/>
<path id="path17_stroke" d="M 78.2986 1C 78.8509 1 79.2986 0.552285 79.2986 4.36442e-24C 79.2986 -0.552285 78.8509 -1 78.2986 -1L 78.2986 1ZM 0 11.1259C -0.552285 11.1259 -1 11.5736 -1 12.1259C -1 12.6781 -0.552285 13.1259 0 13.1259L 0 11.1259ZM 63.095 1C 63.6473 1 64.095 0.552285 64.095 0C 64.095 -0.552285 63.6473 -1 63.095 -1L 63.095 1ZM 67.6561 -1C 67.1038 -1 66.6561 -0.552285 66.6561 4.36442e-24C 66.6561 0.552285 67.1038 1 67.6561 1L 67.6561 -1ZM 6.88235 -1C 6.33007 -1 5.88235 -0.552285 5.88235 1.36449e-23C 5.88235 0.552285 6.33007 1 6.88235 1L 6.88235 -1ZM 19.1041 13.1259C 19.6564 13.1259 20.1041 12.6781 20.1041 12.1259C 20.1041 11.5736 19.6564 11.1259 19.1041 11.1259L 19.1041 13.1259ZM 59.2941 11.1259C 58.7418 11.1259 58.2941 11.5736 58.2941 12.1259C 58.2941 12.6781 58.7418 13.1259 59.2941 13.1259L 59.2941 11.1259ZM 72.9774 13.1259C 73.5297 13.1259 73.9774 12.6781 73.9774 12.1259C 73.9774 11.5736 73.5297 11.1259 72.9774 11.1259L 72.9774 13.1259ZM 60.8145 -1C 60.2622 -1 59.8145 -0.552285 59.8145 0C 59.8145 0.552285 60.2622 1 60.8145 1L 60.8145 -1ZM 19.7647 1C 20.317 1 20.7647 0.552285 20.7647 3.69592e-24C 20.7647 -0.552285 20.317 -1 19.7647 -1L 19.7647 1ZM 5.80091 13.1259C 6.35319 13.1259 6.80091 12.6781 6.80091 12.1259C 6.80091 11.5736 6.35319 11.1259 5.80091 11.1259L 5.80091 13.1259ZM 9.08145 13.1259C 9.63373 13.1259 10.0814 12.6781 10.0814 12.1259C 10.0814 11.5736 9.63373 11.1259 9.08145 11.1259L 9.08145 13.1259ZM 8.84163 11.1259C 8.28934 11.1259 7.84163 11.5736 7.84163 12.1259C 7.84163 12.6781 8.28934 13.1259 8.84163 13.1259L 8.84163 11.1259ZM 14.7421 11.1259C 14.1898 11.1259 13.7421 11.5736 13.7421 12.1259C 13.7421 12.6781 14.1898 13.1259 14.7421 13.1259L 14.7421 11.1259ZM 67.6561 1L 78.2986 1L 78.2986 -1L 67.6561 -1L 67.6561 1ZM 72.9774 11.1259L 59.2941 11.1259L 59.2941 13.1259L 72.9774 13.1259L 72.9774 11.1259ZM 60.8145 1L 63.095 1L 63.095 -1L 60.8145 -1L 60.8145 1ZM 6.88235 1L 19.7647 1L 19.7647 -1L 6.88235 -1L 6.88235 1ZM 5.80091 11.1259L 0 11.1259L 0 13.1259L 5.80091 13.1259L 5.80091 11.1259ZM 8.84163 13.1259L 9.08145 13.1259L 9.08145 11.1259L 8.84163 11.1259L 8.84163 13.1259ZM 19.1041 11.1259L 14.7421 11.1259L 14.7421 13.1259L 19.1041 13.1259L 19.1041 11.1259Z"/>
<path id="path18_stroke" d="M 0 -1C -0.552285 -1 -1 -0.552285 -1 0C -1 0.552285 -0.552285 1 0 1L 0 -1ZM 78.2986 1C 78.8509 1 79.2986 0.552285 79.2986 0C 79.2986 -0.552285 78.8509 -1 78.2986 -1L 78.2986 1ZM 5.32127 1C 5.87355 1 6.32127 0.552285 6.32127 0C 6.32127 -0.552285 5.87355 -1 5.32127 -1L 5.32127 1ZM 10.6425 -1C 10.0902 -1 9.64253 -0.552285 9.64253 0C 9.64253 0.552285 10.0902 1 10.6425 1L 10.6425 -1ZM 64.2353 -1C 63.683 -1 63.2353 -0.552285 63.2353 0C 63.2353 0.552285 63.683 1 64.2353 1L 64.2353 -1ZM 60.8145 1C 61.3668 1 61.8145 0.552285 61.8145 0C 61.8145 -0.552285 61.3668 -1 60.8145 -1L 60.8145 1ZM 19.8597 1C 20.412 1 20.8597 0.552285 20.8597 0C 20.8597 -0.552285 20.412 -1 19.8597 -1L 19.8597 1ZM 58.914 -1C 58.3617 -1 57.914 -0.552285 57.914 0C 57.914 0.552285 58.3617 1 58.914 1L 58.914 -1ZM 0 1L 5.32127 1L 5.32127 -1L 0 -1L 0 1ZM 64.2353 1L 78.2986 1L 78.2986 -1L 64.2353 -1L 64.2353 1ZM 10.6425 1L 19.8597 1L 19.8597 -1L 10.6425 -1L 10.6425 1ZM 58.914 1L 60.8145 1L 60.8145 -1L 58.914 -1L 58.914 1Z"/>
<path id="path19_stroke" d="M -2.33467e-15 -2C -1.10457 -2 -2 -1.10457 -2 5.14345e-14C -2 1.10457 -1.10457 2 2.33467e-15 2L -2.33467e-15 -2ZM 62.145 2C 63.2496 2 64.145 1.10457 64.145 6.14402e-14C 64.145 -1.10457 63.2496 -2 62.145 -2L 62.145 2ZM 62.145 17.2036C 63.2496 17.2036 64.145 16.3082 64.145 15.2036C 64.145 14.0991 63.2496 13.2036 62.145 13.2036L 62.145 17.2036ZM 8.71546 13.2036C 7.61089 13.2036 6.71546 14.0991 6.71546 15.2036C 6.71546 16.3082 7.61089 17.2036 8.71546 17.2036L 8.71546 13.2036ZM 54.1874 -2C 53.0828 -2 52.1874 -1.10457 52.1874 -1.23404e-14C 52.1874 1.10457 53.0828 2 54.1874 2L 54.1874 -2ZM 49.1559 2C 50.2605 2 51.1559 1.10457 51.1559 2.42342e-16C 51.1559 -1.10457 50.2605 -2 49.1559 -2L 49.1559 2ZM 48.3981 -2C 47.2935 -2 46.3981 -1.10457 46.3981 -6.59585e-21C 46.3981 1.10457 47.2935 2 48.3981 2L 48.3981 -2ZM 42.0616 2C 43.1661 2 44.0616 1.10457 44.0616 -2.33467e-15C 44.0616 -1.10457 43.1661 -2 42.0616 -2L 42.0616 2ZM 40.0301 13.2036C 38.9255 13.2036 38.0301 14.0991 38.0301 15.2036C 38.0301 16.3082 38.9255 17.2036 40.0301 17.2036L 40.0301 13.2036ZM 34.6197 17.2036C 35.7243 17.2036 36.6197 16.3082 36.6197 15.2036C 36.6197 14.0991 35.7243 13.2036 34.6197 13.2036L 34.6197 17.2036ZM 34.2093 13.2036C 33.1047 13.2036 32.2093 14.0991 32.2093 15.2036C 32.2093 16.3082 33.1047 17.2036 34.2093 17.2036L 34.2093 13.2036ZM 28.42 17.2036C 29.5245 17.2036 30.42 16.3082 30.42 15.2036C 30.42 14.0991 29.5245 13.2036 28.42 13.2036L 28.42 17.2036ZM 54.1874 2L 62.145 2L 62.145 -2L 54.1874 -2L 54.1874 2ZM 48.3981 2L 49.1559 2L 49.1559 -2L 48.3981 -2L 48.3981 2ZM 2.33467e-15 2L 42.0616 2L 42.0616 -2L -2.33467e-15 -2L 2.33467e-15 2ZM 62.145 13.2036L 40.0301 13.2036L 40.0301 17.2036L 62.145 17.2036L 62.145 13.2036ZM 34.6197 13.2036L 34.2093 13.2036L 34.2093 17.2036L 34.6197 17.2036L 34.6197 13.2036ZM 28.42 13.2036L 8.71546 13.2036L 8.71546 17.2036L 28.42 17.2036L 28.42 13.2036Z"/>
<path id="path20_stroke" d="M -5.28873e-15 -2C -1.10457 -2 -2 -1.10457 -2 5.43886e-14C -2 1.10457 -1.10457 2 5.28873e-15 2L -5.28873e-15 -2ZM 62.145 2C 63.2496 2 64.145 1.10457 64.145 5.57447e-14C 64.145 -1.10457 63.2496 -2 62.145 -2L 62.145 2ZM 62.145 17.2036C 63.2496 17.2036 64.145 16.3082 64.145 15.2036C 64.145 14.0991 63.2496 13.2036 62.145 13.2036L 62.145 17.2036ZM 0 13.2036C -1.10457 13.2036 -2 14.0991 -2 15.2036C -2 16.3082 -1.10457 17.2036 0 17.2036L 0 13.2036ZM 18.5677 2C 19.6723 2 20.5677 1.10457 20.5677 -5.28873e-15C 20.5677 -1.10457 19.6723 -2 18.5677 -2L 18.5677 2ZM 25.3885 -2C 24.2839 -2 23.3885 -1.10457 23.3885 -5.94855e-14C 23.3885 1.10457 24.2839 2 25.3885 2L 25.3885 -2ZM 27.041 2C 28.1456 2 29.041 1.10457 29.041 1.08636e-13C 29.041 -1.10457 28.1456 -2 27.041 -2L 27.041 2ZM 32.9672 -2C 31.8626 -2 30.9672 -1.10457 30.9672 6.03671e-14C 30.9672 1.10457 31.8626 2 32.9672 2L 32.9672 -2ZM 47.3666 -2C 46.2621 -2 45.3666 -1.10457 45.3666 -6.64482e-15C 45.3666 1.10457 46.2621 2 47.3666 2L 47.3666 -2ZM 41.6826 2C 42.7872 2 43.6826 1.10457 43.6826 -1.12673e-14C 43.6826 -1.10457 42.7872 -2 41.6826 -2L 41.6826 2ZM 31.4514 17.2036C 32.556 17.2036 33.4514 16.3082 33.4514 15.2036C 33.4514 14.0991 32.556 13.2036 31.4514 13.2036L 31.4514 17.2036ZM 37.1354 13.2036C 36.0309 13.2036 35.1354 14.0991 35.1354 15.2036C 35.1354 16.3082 36.0309 17.2036 37.1354 17.2036L 37.1354 13.2036ZM 5.28873e-15 2L 18.5677 2L 18.5677 -2L -5.28873e-15 -2L 5.28873e-15 2ZM 25.3885 2L 27.041 2L 27.041 -2L 25.3885 -2L 25.3885 2ZM 47.3666 2L 62.145 2L 62.145 -2L 47.3666 -2L 47.3666 2ZM 32.9672 2L 41.6826 2L 41.6826 -2L 32.9672 -2L 32.9672 2ZM 31.4514 13.2036L 0 13.2036L 0 17.2036L 31.4514 17.2036L 31.4514 13.2036ZM 62.145 13.2036L 37.1354 13.2036L 37.1354 17.2036L 62.145 17.2036L 62.145 13.2036Z"/>
<path id="path21_stroke" d="M 33.3461 38.5294C 32.7938 38.5294 32.3461 38.9771 32.3461 39.5294C 32.3461 40.0817 32.7938 40.5294 33.3461 40.5294L 33.3461 38.5294ZM 25.0096 40.5294C 25.5619 40.5294 26.0096 40.0817 26.0096 39.5294C 26.0096 38.9771 25.5619 38.5294 25.0096 38.5294L 25.0096 40.5294ZM 44.9562 33.8281C 44.9562 33.2759 44.5085 32.8281 43.9562 32.8281C 43.4039 32.8281 42.9562 33.2759 42.9562 33.8281L 44.9562 33.8281ZM 42.9562 31.5476C 42.9562 32.0999 43.4039 32.5476 43.9562 32.5476C 44.5085 32.5476 44.9562 32.0999 44.9562 31.5476L 42.9562 31.5476ZM 44.9562 30.4073C 44.9562 29.855 44.5085 29.4073 43.9562 29.4073C 43.4039 29.4073 42.9562 29.855 42.9562 30.4073L 44.9562 30.4073ZM 42.9562 26.2263C 42.9562 26.7786 43.4039 27.2263 43.9562 27.2263C 44.5085 27.2263 44.9562 26.7786 44.9562 26.2263L 42.9562 26.2263ZM -1 10.2625C -1 10.8148 -0.552285 11.2625 -8.32864e-14 11.2625C 0.552285 11.2625 1 10.8148 1 10.2625L -1 10.2625ZM 1 23.1856C 1 22.6333 0.552285 22.1856 -8.05349e-14 22.1856C -0.552285 22.1856 -1 22.6333 -1 23.1856L 1 23.1856ZM 12.8837 -1C 12.3314 -1 11.8837 -0.552285 11.8837 -5.06347e-14C 11.8837 0.552285 12.3314 1 12.8837 1L 12.8837 -1ZM 9.85226 1C 10.4045 1 10.8523 0.552285 10.8523 -4.90559e-14C 10.8523 -0.552285 10.4045 -1 9.85226 -1L 9.85226 1ZM 8.71546 -1C 8.16317 -1 7.71546 -0.552285 7.71546 -4.90559e-14C 7.71546 0.552285 8.16317 1 8.71546 1L 8.71546 -1ZM 6.06293 1C 6.61521 1 7.06293 0.552285 7.06293 -5.7147e-14C 7.06293 -0.552285 6.61521 -1 6.06293 -1L 6.06293 1ZM 38.9562 -7.89378e-15L 38.9562 -1L 38.9562 -7.89378e-15ZM 19.7045 38.5294L 5 38.5294L 5 40.5294L 19.7045 40.5294L 19.7045 38.5294ZM 38.9562 38.5294L 33.3461 38.5294L 33.3461 40.5294L 38.9562 40.5294L 38.9562 38.5294ZM 25.0096 38.5294L 19.7045 38.5294L 19.7045 40.5294L 25.0096 40.5294L 25.0096 38.5294ZM 42.9562 33.8281L 42.9562 34.5294L 44.9562 34.5294L 44.9562 33.8281L 42.9562 33.8281ZM 42.9562 30.4073L 42.9562 31.5476L 44.9562 31.5476L 44.9562 30.4073L 42.9562 30.4073ZM 42.9562 5L 42.9562 26.2263L 44.9562 26.2263L 44.9562 5L 42.9562 5ZM 1 10.2625L 1 5L -1 5L -1 10.2625L 1 10.2625ZM 1 34.5294L 1 23.1856L -1 23.1856L -1 34.5294L 1 34.5294ZM 12.8837 1L 38.9562 1L 38.9562 -1L 12.8837 -1L 12.8837 1ZM 8.71546 1L 9.85226 1L 9.85226 -1L 8.71546 -1L 8.71546 1ZM 5 1L 6.06293 1L 6.06293 -1L 5 -1L 5 1ZM 1 5C 1 2.79086 2.79086 1 5 1L 5 -1C 1.68629 -1 -1 1.68629 -1 5L 1 5ZM 44.9562 5C 44.9562 1.68629 42.2699 -1 38.9562 -1L 38.9562 1C 41.1654 1 42.9562 2.79086 42.9562 5L 44.9562 5ZM 38.9562 40.5294C 42.2699 40.5294 44.9562 37.8431 44.9562 34.5294L 42.9562 34.5294C 42.9562 36.7386 41.1654 38.5294 38.9562 38.5294L 38.9562 40.5294ZM 5 38.5294C 2.79086 38.5294 1 36.7386 1 34.5294L -1 34.5294C -1 37.8431 1.68629 40.5294 5 40.5294L 5 38.5294Z"/>
<path id="path22_stroke" d="M 28.8173 1C 29.3696 1 29.8173 0.552285 29.8173 -4.61844e-14C 29.8173 -0.552285 29.3696 -1 28.8173 -1L 28.8173 1ZM 9.96154 -1C 9.40925 -1 8.96154 -0.552285 8.96154 -4.61844e-14C 8.96154 0.552285 9.40925 1 9.96154 1L 9.96154 -1ZM 3.20192 1C 3.75421 1 4.20192 0.552285 4.20192 -6.06083e-14C 4.20192 -0.552285 3.75421 -1 3.20192 -1L 3.20192 1ZM 36 2.04567L 36 30L 38 30L 38 2.04567L 36 2.04567ZM 34 32L 3 32L 3 34L 34 34L 34 32ZM 1 30L 1 3L -1 3L -1 30L 1 30ZM 9.96154 1L 28.8173 1L 28.8173 -1L 9.96154 -1L 9.96154 1ZM 3 1L 3.20192 1L 3.20192 -1L 3 -1L 3 1ZM 1 3C 1 1.89543 1.89543 1 3 1L 3 -1C 0.790861 -1 -1 0.790861 -1 3L 1 3ZM 38 2.04567C 38 0.363594 36.6364 -1 34.9543 -1L 34.9543 1C 35.5318 1 36 1.46816 36 2.04567L 38 2.04567ZM 36 30C 36 31.1046 35.1046 32 34 32L 34 34C 36.2091 34 38 32.2091 38 30L 36 30ZM 3 32C 1.89543 32 1 31.1046 1 30L -1 30C -1 32.2091 0.790861 34 3 34L 3 32Z"/>
<path id="path23_stroke" d="M 10.3931 3.64636C 11.0508 4.5338 12.3034 4.72007 13.1908 4.06241C 14.0782 3.40475 14.2645 2.15219 13.6069 1.26475L 10.3931 3.64636ZM 2.11808 4.47778C 2.11808 3.37321 1.22264 2.47778 0.118075 2.47778C -0.986494 2.47778 -1.88192 3.37321 -1.88192 4.47778L 2.11808 4.47778ZM 5.7379 9.24444L 5.11608 11.1453L 5.7379 9.24444ZM 2.16249 -1.35718C 1.13777 -0.944855 0.641321 0.220105 1.05365 1.24483C 1.46597 2.26955 2.63093 2.766 3.65566 2.35367L 2.16249 -1.35718ZM 1.76607 14.7526C 1.24769 13.7772 0.0367635 13.4068 -0.938611 13.9252C -1.91399 14.4435 -2.28445 15.6545 -1.76607 16.6298L 1.76607 14.7526ZM 13.6069 1.26475C 12.1917 -0.644796 9.7674 -2 5.7379 -2L 5.7379 2C 8.77334 2 9.88147 2.95591 10.3931 3.64636L 13.6069 1.26475ZM -1.88192 4.47778C -1.88192 6.41301 -1.19481 7.91153 0.284454 9.01872C 1.52205 9.94503 3.2699 10.5414 5.11608 11.1453L 6.35973 7.34357C 4.35231 6.68689 3.29025 6.27214 2.68133 5.81638C 2.31408 5.5415 2.11808 5.28699 2.11808 4.47778L -1.88192 4.47778ZM 5.11608 11.1453C 6.69586 11.6621 7.78818 12.1473 8.4814 12.7176C 9.05995 13.1936 9.35773 13.7162 9.35773 14.5889L 13.3577 14.5889C 13.3577 12.4282 12.4513 10.8039 11.0227 9.62863C 9.70887 8.54769 7.99128 7.87729 6.35973 7.34357L 5.11608 11.1453ZM 9.35773 14.5889C 9.35773 15.3877 9.05368 15.8162 8.55342 16.1364C 7.94582 16.5253 6.96386 16.7778 5.7379 16.7778L 5.7379 20.7778C 7.40214 20.7778 9.2301 20.4525 10.7099 19.5053C 12.297 18.4894 13.3577 16.8234 13.3577 14.5889L 9.35773 14.5889ZM 5.7379 -2C 4.4907 -1.99191 3.16046 -1.74769 2.16249 -1.35718L 3.65566 2.35367C 4.27073 2.09513 4.85015 1.99191 5.7379 2L 5.7379 -2ZM 5.7379 16.7778C 3.61094 16.7778 2.15741 15.489 1.76607 14.7526L -1.76607 16.6298C -0.702869 18.6303 2.08448 20.7778 5.7379 20.7778L 5.7379 16.7778Z"/>
<path id="path24_stroke" d="M 1 0C 1 -0.552285 0.552285 -1 5.55112e-17 -1C -0.552285 -1 -1 -0.552285 -1 0L 1 0ZM -1 26C -1 26.5523 -0.552285 27 5.55112e-17 27C 0.552285 27 1 26.5523 1 26L -1 26ZM -1 6.15789C -1 6.71018 -0.552285 7.15789 5.55112e-17 7.15789C 0.552285 7.15789 1 6.71018 1 6.15789L -1 6.15789ZM 1 8.86646C 1 8.31417 0.552285 7.86646 0 7.86646C -0.552285 7.86646 -1 8.31417 -1 8.86646L 1 8.86646ZM 1 17.1053C 1 16.553 0.552285 16.1053 5.55112e-17 16.1053C -0.552285 16.1053 -1 16.553 -1 17.1053L 1 17.1053ZM -1 14.3665C -1 14.9187 -0.552285 15.3665 0 15.3665C 0.552285 15.3665 1 14.9187 1 14.3665L -1 14.3665ZM -1 0L -1 6.15789L 1 6.15789L 1 0L -1 0ZM -1 17.1053L -1 26L 1 26L 1 17.1053L -1 17.1053ZM -1 8.86646L -1 14.3665L 1 14.3665L 1 8.86646L -1 8.86646Z"/>
<path id="path25_stroke" d="M 1.67449 -1.09366C 1.07048 -2.01845 -0.168862 -2.2785 -1.09366 -1.67449C -2.01845 -1.07048 -2.2785 0.168862 -1.67449 1.09366L 1.67449 -1.09366ZM 75.8967 60.5298C 76.8881 61.0167 78.0866 60.6077 78.5735 59.6162C 79.0604 58.6248 78.6514 57.4263 77.6599 56.9394L 75.8967 60.5298ZM -1.67449 1.09366C 8.68177 16.95 28.1901 31.824 44.8831 42.6547C 53.2612 48.0896 61.0258 52.566 66.6618 55.6637C 69.4864 57.2159 71.7971 58.4337 73.3901 59.2573C 74.1896 59.6706 74.8167 59.989 75.239 60.2016C 75.4516 60.3086 75.6161 60.3907 75.7252 60.4449C 75.7805 60.4724 75.8234 60.4936 75.8513 60.5075C 75.8657 60.5146 75.877 60.5201 75.8842 60.5237C 75.888 60.5256 75.8911 60.5271 75.893 60.528C 75.8941 60.5285 75.895 60.529 75.8955 60.5292C 75.8962 60.5296 75.8967 60.5298 76.7783 58.7346C 77.6599 56.9394 77.66 56.9394 77.6598 56.9394C 77.6594 56.9392 77.6591 56.939 77.6584 56.9387C 77.6568 56.9379 77.6548 56.9369 77.6517 56.9354C 77.6452 56.9322 77.636 56.9276 77.6231 56.9213C 77.5965 56.9081 77.558 56.8891 77.5056 56.863C 77.3995 56.8103 77.244 56.7326 77.0374 56.6287C 76.6213 56.4192 76.0135 56.1107 75.2271 55.704C 73.648 54.8877 71.3822 53.6937 68.5884 52.1582C 62.9879 49.0804 55.3493 44.6779 47.0602 39.2991C 30.4192 28.5021 11.5383 14.0088 1.67449 -1.09366L -1.67449 1.09366Z"/>
<path id="path26_stroke" d="M 1.8528 -0.753082C 1.43688 -1.77636 0.270191 -2.26872 -0.753082 -1.8528C -1.77636 -1.43688 -2.26872 -0.270191 -1.8528 0.753082L 1.8528 -0.753082ZM 76.0628 60.6023C 77.0943 60.9974 78.2508 60.4816 78.6459 59.4501C 79.0411 58.4186 78.5252 57.2621 77.4938 56.867L 76.0628 60.6023ZM -1.8528 0.753082C 5.47582 18.7836 25.2079 33.754 42.662 44.1108C 51.4439 49.3199 59.8121 53.4539 65.9335 56.2593C 69.0035 57.666 71.539 58.7534 73.29 59.4819C 74.1699 59.8479 74.8638 60.1283 75.3306 60.3144C 75.5661 60.4083 75.7493 60.4803 75.8704 60.5276C 75.932 60.5517 75.9801 60.5703 76.0113 60.5824C 76.0274 60.5886 76.0403 60.5936 76.0484 60.5967C 76.0527 60.5984 76.0563 60.5998 76.0584 60.6006C 76.0597 60.601 76.0607 60.6015 76.0613 60.6017C 76.0622 60.602 76.0628 60.6023 76.7783 58.7346C 77.4938 56.867 77.4939 56.867 77.4938 56.867C 77.4934 56.8668 77.4931 56.8667 77.4924 56.8664C 77.4907 56.8658 77.4886 56.865 77.4853 56.8637C 77.4782 56.861 77.4684 56.8572 77.4543 56.8518C 77.4252 56.8405 77.3832 56.8242 77.3258 56.8018C 77.2089 56.7561 77.0385 56.6891 76.8116 56.5987C 76.3537 56.4162 75.6875 56.1469 74.8263 55.7887C 73.0954 55.0687 70.6251 54.0094 67.5999 52.6229C 61.531 49.8421 53.3514 45.8041 44.7032 40.6708C 27.2972 30.3425 8.64009 15.9456 1.8528 -0.753082L -1.8528 0.753082Z"/>
<path id="path27_stroke" d="M -1.98403 0.252265C -0.216263 14.1555 8.3726 31.1427 16.3342 44.4614C 20.3378 51.1578 24.246 57.0284 27.1333 61.1943C 28.5809 63.2826 29.784 64.9607 30.6184 66.107C 31.0374 66.6826 31.3684 67.1311 31.5917 67.4316C 31.7042 67.5831 31.7917 67.7001 31.8497 67.7774C 31.8791 67.8166 31.902 67.8471 31.9169 67.8669C 31.9246 67.8771 31.9307 67.8852 31.9346 67.8903C 31.9366 67.893 31.9383 67.8952 31.9394 67.8966C 31.9399 67.8973 31.9404 67.898 31.9407 67.8984C 31.9411 67.8989 31.9414 67.8992 33.5361 66.6922C 35.1308 65.4852 35.1308 65.4852 35.1308 65.4852C 35.1306 65.4849 35.1304 65.4847 35.13 65.4842C 35.1292 65.4831 35.1282 65.4818 35.1266 65.4796C 35.1231 65.4751 35.1183 65.4687 35.1115 65.4597C 35.0975 65.441 35.0772 65.414 35.0495 65.3771C 34.9933 65.3022 34.9113 65.1925 34.8024 65.046C 34.5829 64.7505 34.2635 64.3179 33.8524 63.753C 33.0264 62.6183 31.8501 60.9778 30.4209 58.9156C 27.5547 54.7805 23.7203 49.0226 19.7675 42.409C 11.8163 29.1076 3.63708 12.7488 1.98403 -0.252265L -1.98403 0.252265Z"/>
<path id="path28_stroke" d="M -1.96636 0.365254C 0.955244 15.985 9.48174 32.9827 17.1893 45.8822C 21.052 52.3443 24.7492 57.8636 27.4594 61.7349C 28.819 63.6767 29.9438 65.2238 30.7208 66.2746C 31.1115 66.8028 31.42 67.2135 31.6274 67.4875C 31.7322 67.6259 31.8139 67.733 31.8678 67.8034C 31.8952 67.8393 31.9167 67.8674 31.9307 67.8855C 31.9379 67.8948 31.9437 67.9024 31.9473 67.9071C 31.9492 67.9096 31.9509 67.9117 31.9519 67.913C 31.9524 67.9137 31.9529 67.9143 31.9532 67.9147C 31.9536 67.9152 31.9539 67.9156 33.5361 66.6922C 35.1183 65.4688 35.1184 65.4689 35.1183 65.4689C 35.1182 65.4687 35.118 65.4685 35.1178 65.4682C 35.117 65.4672 35.1161 65.4661 35.1147 65.4642C 35.1116 65.4602 35.1073 65.4546 35.1011 65.4465C 35.0882 65.4298 35.0697 65.4057 35.0444 65.3726C 34.9926 65.3049 34.9172 65.2061 34.8167 65.0733C 34.6137 64.8051 34.3186 64.4123 33.937 63.8963C 33.1695 62.8585 32.0752 61.3534 30.7362 59.4408C 28.0493 55.6032 24.4314 50.2044 20.6228 43.8302C 12.9877 31.057 4.74611 14.7086 1.96636 -0.365254L -1.96636 0.365254Z"/>
<path id="path29_stroke" d="M 0.913736 -0.406309C 0.689337 -0.910951 0.098333 -1.13813 -0.406309 -0.913736C -0.910951 -0.689337 -1.13813 -0.098333 -0.913736 0.406309L 0.913736 -0.406309ZM 56.6317 65.1007C 57.0796 65.4238 57.7047 65.3226 58.0278 64.8747C 58.3509 64.4268 58.2497 63.8018 57.8018 63.4787L 56.6317 65.1007ZM -0.913736 0.406309C 6.69384 17.4855 21.1193 33.7108 33.5691 45.5763C 39.801 51.5146 45.5716 56.4007 49.7675 59.7879C 51.8689 61.4841 53.5859 62.8132 54.7715 63.7135C 55.3659 64.1649 55.8312 64.5119 56.1452 64.7441C 56.303 64.8607 56.4247 64.9499 56.5057 65.0091C 56.5466 65.0389 56.5781 65.0619 56.5988 65.0769C 56.6094 65.0845 56.6176 65.0905 56.6229 65.0943C 56.6256 65.0963 56.6278 65.0979 56.6292 65.0989C 56.63 65.0994 56.6306 65.0999 56.631 65.1002C 56.6314 65.1005 56.6317 65.1007 57.2167 64.2897C 57.8018 63.4787 57.8017 63.4786 57.8016 63.4785C 57.8013 63.4783 57.8009 63.4781 57.8004 63.4777C 57.7992 63.4768 57.7976 63.4756 57.7952 63.4739C 57.7903 63.4704 57.7832 63.4652 57.7734 63.4582C 57.7535 63.4437 57.7243 63.4225 57.685 63.3938C 57.6056 63.3358 57.4888 63.2501 57.3342 63.1359C 57.0235 62.9062 56.5685 62.5669 55.981 62.1207C 54.8028 61.226 53.1092 59.9151 51.0237 58.2316C 46.846 54.8593 41.1377 50.0268 34.9489 44.1285C 22.5574 32.3209 8.37458 16.4014 0.913736 -0.406309L -0.913736 0.406309Z"/>
<path id="path30_stroke" d="M 0.963779 -0.266704C 0.816482 -0.798984 0.265577 -1.11107 -0.266704 -0.963779C -0.798984 -0.816482 -1.11107 -0.265577 -0.963779 0.266704L 0.963779 -0.266704ZM 57.2273 65.3721C 57.709 65.6424 58.3185 65.471 58.5888 64.9894C 58.8591 64.5078 58.6878 63.8982 58.2061 63.6279L 57.2273 65.3721ZM -0.963779 0.266704C 4.37502 19.5593 18.9842 35.8444 32.148 47.2607C 38.7393 52.9757 45.0174 57.5113 49.6209 60.5982C 51.928 62.145 53.8312 63.3397 55.148 64.1418C 55.809 64.5443 56.3292 64.8521 56.68 65.0569C 56.8567 65.16 56.9936 65.2389 57.0844 65.2909C 57.1305 65.3172 57.1662 65.3375 57.1895 65.3507C 57.2015 65.3575 57.211 65.3628 57.217 65.3662C 57.2201 65.368 57.2227 65.3695 57.2243 65.3704C 57.2252 65.3709 57.2259 65.3713 57.2264 65.3715C 57.2269 65.3718 57.2273 65.3721 57.7167 64.5C 58.2061 63.6279 58.2062 63.628 58.206 63.6279C 58.2057 63.6277 58.2054 63.6275 58.2049 63.6272C 58.2036 63.6265 58.2019 63.6255 58.1993 63.6241C 58.1939 63.621 58.1862 63.6167 58.1754 63.6106C 58.1533 63.5981 58.1212 63.5798 58.0776 63.5549C 57.9892 63.5043 57.8598 63.4298 57.6882 63.3296C 57.3426 63.1279 56.8385 62.8296 56.1883 62.4336C 54.883 61.6387 53.0167 60.4672 50.7347 58.937C 46.16 55.8698 39.9813 51.408 33.4583 45.7497C 20.3936 34.4194 6.14445 18.4545 0.963779 -0.266704L -0.963779 0.266704Z"/>
<path id="path31_stroke" d="M 0.996157 -0.0875846C 0.947785 -0.637747 0.462578 -1.04453 -0.0875846 -0.996157C -0.637747 -0.947785 -1.04453 -0.462578 -0.996157 0.0875846L 0.996157 -0.0875846ZM 22.4112 67.4637C 22.6673 67.953 23.2716 68.1421 23.7609 67.886C 24.2502 67.6299 24.4393 67.0256 24.1832 66.5363L 22.4112 67.4637ZM -0.996157 0.0875846C 0.210416 13.7238 6.07777 30.6196 11.6156 44.0177C 14.3869 50.7216 17.0876 56.5877 19.0894 60.7643C 20.0915 62.8552 20.9223 64.5308 21.5004 65.6793C 21.79 66.2547 22.0178 66.7009 22.1722 67.0015C 22.2497 67.1523 22.3094 67.2679 22.3494 67.3449C 22.3695 67.3837 22.385 67.4134 22.3952 67.433C 22.4003 67.443 22.4043 67.4506 22.407 67.4556C 22.4083 67.4582 22.4093 67.4602 22.41 67.4615C 22.4104 67.4622 22.4107 67.4627 22.4108 67.4631C 22.4111 67.4635 22.4112 67.4637 23.2972 67C 24.1832 66.5363 24.1831 66.5362 24.183 66.536C 24.1829 66.5358 24.1827 66.5354 24.1824 66.5349C 24.1818 66.5337 24.181 66.5321 24.1798 66.5298C 24.1773 66.5251 24.1737 66.5182 24.1688 66.5088C 24.1589 66.4898 24.1443 66.4617 24.1248 66.4241C 24.0854 66.3482 24.0274 66.236 23.9511 66.0875C 23.7979 65.7893 23.5739 65.3505 23.2868 64.7801C 22.7115 63.637 21.8893 61.9787 20.8929 59.8999C 18.8978 55.7372 16.2198 49.9212 13.4639 43.2536C 7.94722 29.9088 2.16599 13.3046 0.996157 -0.0875846L -0.996157 0.0875846Z"/>
<path id="path32_stroke" d="M 0.991851 -0.1274C 0.92149 -0.675184 0.420385 -1.06221 -0.1274 -0.991851C -0.675184 -0.92149 -1.06221 -0.420385 -0.991851 0.1274L 0.991851 -0.1274ZM 22.4153 67.4715C 22.6757 67.9585 23.2816 68.1423 23.7687 67.8819C 24.2557 67.6215 24.4394 67.0155 24.179 66.5285L 22.4153 67.4715ZM -0.991851 0.1274C 1.00694 15.6468 6.86989 32.5229 12.2096 45.4451C 14.8825 51.9122 17.4355 57.4233 19.3139 61.3032C 20.2545 63.2461 21.0302 64.789 21.5682 65.8411C 21.8379 66.3685 22.0498 66.7763 22.1931 67.0501C 22.2651 67.1876 22.3206 67.293 22.3577 67.363C 22.3764 67.3984 22.3908 67.4255 22.4003 67.4433C 22.4051 67.4524 22.4089 67.4594 22.4113 67.464C 22.4125 67.4663 22.4135 67.4682 22.4142 67.4694C 22.4145 67.47 22.4148 67.4706 22.415 67.4709C 22.4152 67.4713 22.4153 67.4715 23.2972 67C 24.179 66.5285 24.179 66.5285 24.1789 66.5283C 24.1788 66.5281 24.1786 66.5278 24.1784 66.5273C 24.1778 66.5263 24.1771 66.5249 24.176 66.5228C 24.1737 66.5186 24.1705 66.5125 24.166 66.504C 24.1569 66.4869 24.1435 66.4616 24.1255 66.4276C 24.0891 66.3589 24.0356 66.2574 23.965 66.1226C 23.8231 65.8515 23.6157 65.4522 23.3489 64.9305C 22.814 63.8845 22.0481 62.3611 21.114 60.4317C 19.243 56.5671 16.7144 51.1098 14.058 44.6813C 8.73937 31.8123 2.95373 15.1885 0.991851 -0.1274L -0.991851 0.1274Z"/>
<path id="path33_fill" d="M 76.7943 0.52429C 41.448 0.52429 -16.2058 -0.475719 4.29426 38.0243C 4.29425 23.5243 16.2943 23.5243 23.2943 30.0243C 24.179 21.2799 41.6528 14.0243 57.2943 26.5265C 71.7943 7.63862 98.7942 16.5243 104.294 26.5265C 120.794 10.5243 133.294 24.5243 139.082 30.0243C 144.794 24.0243 155.294 22.5243 157.794 39.0243C 177.294 -7.47571 112.141 0.52429 76.7943 0.52429Z"/>
<path id="path34_fill" d="M 84 0C 37.6081 0 0 37.4989 0 83.7561C 0 95.7496 2.52821 107.154 7.08221 117.469C 8.24349 104.3 18.5962 84.8096 50.717 112.202C 60.7547 78.4884 109.887 82.1758 117.811 112.202C 144.226 83.7561 155.185 102.193 161.158 117.469C 165.012 107.859 168 94.7376 168 83.7561C 168 37.4989 130.392 0 84 0Z"/>
<path id="path35_fill" fill-rule="evenodd" d="M 60.99 3.12964C 53.7318 1.0907 46.0751 4.39217e-16 38.1629 0C 29.8638 -4.60691e-16 21.8457 1.20007 14.2738 3.43567C -5.48641 27.4395 -0.0802851 70.5365 3.42826 98.5059C 4.05692 103.517 4.62455 108.042 4.97562 111.885C 15.2259 78.5118 64.0746 82.2701 71.9742 112.202C 72.5151 111.619 73.0496 111.056 73.5777 110.512C 85.3938 73.3125 78.3355 20.8333 60.99 3.12964Z"/>
<path id="path36_stroke" d="M 15.0431 0.635562C 15.3941 0.209171 15.333 -0.421038 14.9066 -0.77205C 14.4802 -1.12306 13.85 -1.06195 13.499 -0.635562L 15.0431 0.635562ZM 2.43324 95.1947C 2.50198 95.7426 3.00194 96.1312 3.54993 96.0624C 4.09792 95.9937 4.48643 95.4937 4.41769 94.9457L 2.43324 95.1947ZM 72.6218 106.774C 72.4546 107.3 72.7458 107.863 73.2721 108.03C 73.7985 108.197 74.3608 107.906 74.528 107.38L 72.6218 106.774ZM 1.88421 72.0267C 1.83806 71.4764 1.3545 71.0676 0.804147 71.1138C 0.253794 71.1599 -0.154946 71.6435 -0.108799 72.1938L 1.88421 72.0267ZM 0.0400513 56.6103L -0.959728 56.6313C -0.948166 57.1819 -0.493489 57.6196 0.0572223 57.6101C 0.607934 57.6007 1.04731 57.1477 1.03996 56.5969L 0.0400513 56.6103ZM 0 53.6103L 0.999911 53.5969C 0.992559 53.0462 0.541303 52.6051 -0.00942614 52.6103C -0.560155 52.6155 -1.00302 53.065 -0.999985 53.6158L 0 53.6103ZM -0.105673 35.8259C -0.169129 36.3745 0.224179 36.8707 0.772807 36.9342C 1.32143 36.9976 1.81763 36.6043 1.88108 36.0557L -0.105673 35.8259ZM 80.3537 70.5458C 80.3693 69.9937 79.9345 69.5335 79.3824 69.5179C 78.8303 69.5023 78.3701 69.9371 78.3545 70.4892L 80.3537 70.5458ZM 75.955 32.7408L 74.9796 32.9614C 75.1012 33.499 75.6348 33.8368 76.1727 33.7168C 76.7106 33.5968 77.05 33.0642 76.9316 32.526L 75.955 32.7408ZM 75.6211 31.2648L 76.5952 31.0385C 76.4704 30.5016 75.9348 30.167 75.3976 30.2901C 74.8604 30.4133 74.5242 30.9479 74.6458 31.4854L 75.6211 31.2648ZM 77.8727 37.1954C 77.7729 36.6522 77.2517 36.2927 76.7085 36.3925C 76.1653 36.4922 75.8058 37.0134 75.9055 37.5566L 77.8727 37.1954ZM 78.1951 57.336C 78.224 57.8876 78.6945 58.3113 79.246 58.2824C 79.7976 58.2535 80.2213 57.783 80.1924 57.2315L 78.1951 57.336ZM 67.8975 7.4329C 67.6241 6.95304 67.0134 6.78567 66.5336 7.05907C 66.0537 7.33248 65.8863 7.94312 66.1598 8.42298L 67.8975 7.4329ZM 71.6062 20.7846C 71.7851 21.3071 72.3537 21.5857 72.8762 21.4067C 73.3987 21.2278 73.6772 20.6592 73.4983 20.1367L 71.6062 20.7846ZM -0.108799 72.1938C 0.583367 80.4461 1.56728 88.2914 2.43324 95.1947L 4.41769 94.9457C 3.55172 88.0425 2.57251 80.2381 1.88421 72.0267L -0.108799 72.1938ZM -0.999985 53.6158C -0.994448 54.6205 -0.980776 55.6285 -0.959728 56.6313L 1.03983 56.5893C 1.01893 55.594 1.00546 54.6014 0.999985 53.6048L -0.999985 53.6158ZM 1.03996 56.5969L 0.999911 53.5969L -0.999911 53.6236L -0.95986 56.6236L 1.03996 56.5969ZM 13.499 -0.635562C 5.39271 9.21155 1.47662 22.1457 -0.105673 35.8259L 1.88108 36.0557C 3.44066 22.5719 7.27821 10.068 15.0431 0.635562L 13.499 -0.635562ZM 74.528 107.38C 78.123 96.0507 79.9919 83.2649 80.3537 70.5458L 78.3545 70.4892C 77.9994 83.0918 76.174 95.602 72.6218 106.774L 74.528 107.38ZM 76.9316 32.526C 76.8221 32.0283 76.7095 31.5305 76.5952 31.0385L 74.6471 31.4912C 74.7601 31.9775 74.8701 32.4638 74.9783 32.9557L 76.9316 32.526ZM 76.9303 32.5202L 76.5965 31.0442L 74.6458 31.4854L 74.9796 32.9614L 76.9303 32.5202ZM 80.1924 57.2315C 79.8315 50.3461 79.0427 43.5698 77.8727 37.1954L 75.9055 37.5566C 77.0648 43.8663 77.8386 50.514 78.1951 57.336L 80.1924 57.2315ZM 73.4983 20.1367C 71.8893 15.4403 70.0017 11.1289 67.8975 7.4329L 66.1598 8.42298C 68.2143 12.0261 70.0255 16.1658 71.6062 20.7846L 73.4983 20.1367Z"/>
<path id="path37_stroke" d="M 4.3494 0.299827C 4.51499 -0.22705 4.22211 -0.788404 3.69523 -0.953994C 3.16836 -1.11958 2.607 -0.826703 2.44141 -0.299827L 4.3494 0.299827ZM -0.0929635 37.1521C -0.00898463 37.6979 0.501603 38.0723 1.04747 37.9884C 1.59333 37.9044 1.96776 37.3938 1.88378 36.8479L -0.0929635 37.1521ZM 1.74449 2.25854C 1.61113 2.79448 1.93749 3.33705 2.47344 3.47041C 3.00938 3.60377 3.55195 3.2774 3.68531 2.74146L 1.74449 2.25854ZM 1.88608 12.203C 1.96134 11.6559 1.57882 11.1513 1.03168 11.0761C 0.484552 11.0008 -0.0199995 11.3833 -0.0952627 11.9304L 1.88608 12.203ZM 3.39541 0C 2.44141 -0.299827 2.4414 -0.299773 2.44138 -0.299716C 2.44137 -0.299693 2.44135 -0.299633 2.44134 -0.299586C 2.44132 -0.299525 2.44128 -0.299384 2.44124 -0.299263C 2.44118 -0.299087 2.44107 -0.298724 2.44096 -0.298372C 2.44078 -0.297803 2.44045 -0.296749 2.44009 -0.295611C 2.43947 -0.293604 2.4384 -0.29019 2.43716 -0.286185C 2.43484 -0.27871 2.43112 -0.266697 2.42656 -0.251826C 2.41777 -0.223167 2.40422 -0.17866 2.38727 -0.122003C 2.35403 -0.0108904 2.3044 0.157976 2.24297 0.374776C 2.12144 0.803835 1.94713 1.44437 1.74449 2.25854L 3.68531 2.74146C 3.88255 1.94851 4.0485 1.33904 4.16725 0.919883C 4.22597 0.712573 4.27148 0.557774 4.30336 0.45125C 4.31896 0.399088 4.33046 0.361284 4.33858 0.334836C 4.34247 0.322153 4.34517 0.313414 4.34716 0.307024C 4.34807 0.304098 4.34863 0.302302 4.34909 0.300832C 4.34927 0.300231 4.34935 0.29998 4.34945 0.299679C 4.34947 0.299595 4.34949 0.299548 4.34948 0.29959C 4.34948 0.299578 4.34945 0.299674 4.34945 0.299667C 4.34945 0.299687 4.34943 0.299727 4.34943 0.299737C 4.34942 0.29978 4.3494 0.299827 3.39541 0ZM -0.0952627 11.9304C -1.02404 18.688 -1.53989 27.7107 -0.0929635 37.1521L 1.88378 36.8479C 0.457857 27.6158 0.966528 18.882 1.88608 12.203L -0.0952627 11.9304Z"/>
<path id="path38_stroke" d="M 4.32254 0.374726C 4.5295 -0.137316 4.28218 -0.72018 3.77013 -0.927135C 3.25809 -1.13409 2.67523 -0.886769 2.46827 -0.374726L 4.32254 0.374726ZM -0.0855762 28.9651C 0.0216148 29.5069 0.547712 29.8592 1.08949 29.752C 1.63128 29.6448 1.98358 29.1187 1.87639 28.5769L -0.0855762 28.9651ZM 1.76247 1.63922C 1.59415 2.16523 1.88412 2.72809 2.41013 2.89641C 2.93614 3.06473 3.499 2.77477 3.66732 2.24876L 1.76247 1.63922ZM 1.88012 9.55722C 1.97633 9.01338 1.61345 8.49452 1.06961 8.39832C 0.525766 8.30211 0.00690508 8.66499 -0.0893023 9.20883L 1.88012 9.55722ZM 3.39541 0C 2.46827 -0.374726 2.46825 -0.374665 2.46822 -0.3746C 2.46821 -0.374575 2.46818 -0.374509 2.46816 -0.374459C 2.46814 -0.374398 2.46808 -0.374248 2.46803 -0.374127C 2.46796 -0.373964 2.46782 -0.3736 2.46769 -0.373273C 2.46749 -0.372776 2.46709 -0.371794 2.46669 -0.370801C 2.46602 -0.369132 2.46483 -0.366151 2.46349 -0.362817C 2.46108 -0.356785 2.45711 -0.34678 2.45237 -0.334771C 2.4434 -0.312036 2.42932 -0.276056 2.41201 -0.231078C 2.37841 -0.143731 2.32768 -0.00949839 2.26552 0.161066C 2.14324 0.496792 1.96662 1.00153 1.76247 1.63922L 3.66732 2.24876C 3.86306 1.63676 4.02671 1.1695 4.1447 0.845654C 4.20269 0.686433 4.24711 0.568985 4.27862 0.487099C 4.29386 0.44746 4.30483 0.419435 4.31277 0.399319C 4.31649 0.389902 4.31893 0.38377 4.32082 0.379022C 4.32164 0.376965 4.32207 0.375895 4.32249 0.374861C 4.32263 0.374502 4.32265 0.374469 4.32272 0.374289C 4.32272 0.374277 4.32268 0.374375 4.32268 0.374381C 4.3227 0.374345 4.32262 0.37454 4.32263 0.374522C 4.32261 0.374551 4.32259 0.374602 4.32259 0.374616C 4.32257 0.37467 4.32254 0.374726 3.39541 0ZM -0.0893023 9.20883C -1.02101 14.4829 -1.53918 21.5714 -0.0855762 28.9651L 1.87639 28.5769C 0.457148 21.4502 0.963495 14.7314 1.88012 9.55722L -0.0893023 9.20883Z"/>
<path id="path39_stroke" d="M -1 36C -1 36.5523 -0.552285 37 0 37C 0.552285 37 1 36.5523 1 36L -1 36ZM 9.32693 0.56231C 9.63748 0.105611 9.51901 -0.516371 9.06231 -0.826927C 8.60561 -1.13748 7.98363 -1.01901 7.67307 -0.56231L 9.32693 0.56231ZM 2.07915 22.6433C 2.15827 22.0967 1.77932 21.5894 1.23273 21.5103C 0.686143 21.4312 0.178903 21.8101 0.0997797 22.3567L 2.07915 22.6433ZM 2.16124 12.2364C 2.01564 12.7691 2.32949 13.319 2.86223 13.4646C 3.39498 13.6102 3.94489 13.2964 4.09049 12.7636L 2.16124 12.2364ZM 0 36C 1 36 1 36.0001 1 36.0001C 1 36.0001 1 36.0001 1 36.0001C 1 36 1 35.9999 1 35.9996C 1 35.999 1 35.9983 1 35.9971C 1.00001 35.9944 1.00001 35.9908 1.00003 35.9855C 1.00006 35.9745 1.00012 35.9587 1.00025 35.9369C 1.00051 35.8923 1.00101 35.8275 1.00206 35.7406C 1.00416 35.5646 1.0083 35.3085 1.01671 34.9741C 1.0336 34.3012 1.06707 33.3346 1.13462 32.1281C 1.27004 29.7062 1.53845 26.3749 2.07915 22.6433L 0.0997797 22.3567C -0.448987 26.1511 -0.725309 29.5699 -0.862256 32.0164C -0.930884 33.2441 -0.965508 34.2414 -0.982662 34.9239C -0.991275 35.2671 -0.995645 35.5365 -0.997801 35.7167C -0.998887 35.8077 -0.999445 35.8786 -0.999717 35.9252C -0.999855 35.949 -0.999928 35.9677 -0.999963 35.9798C -0.999981 35.986 -0.99999 35.9911 -0.999995 35.9942C -0.999997 35.9959 -0.999999 35.9973 -0.999999 35.9982C -1 35.9987 -1 35.9991 -1 35.9994C -1 35.9995 -1 35.9997 -1 35.9998C -1 35.9999 -1 36 0 36ZM 4.09049 12.7636C 5.31247 8.28715 6.97472 4.01016 9.32693 0.56231L 7.67307 -0.56231C 5.20487 3.07868 3.41355 7.65939 2.16124 12.2364L 4.09049 12.7636Z"/>
<path id="path40_stroke" d="M 170 83.7561C 170 82.6515 169.105 81.7561 168 81.7561C 166.895 81.7561 166 82.6515 166 83.7561L 170 83.7561ZM 7.08221 117.469L 5.25259 118.277C 5.62118 119.112 6.50817 119.591 7.40855 119.442C 8.30893 119.294 8.99432 118.554 9.07448 117.645L 7.08221 117.469ZM 161.158 117.469L 159.296 118.198C 159.594 118.962 160.329 119.466 161.15 119.469C 161.97 119.473 162.709 118.975 163.015 118.214L 161.158 117.469ZM 50.717 112.202L 49.4192 113.723C 49.934 114.162 50.6357 114.311 51.2844 114.119C 51.9331 113.927 52.4408 113.421 52.6338 112.772L 50.717 112.202ZM 117.811 112.202L 115.878 112.712C 116.064 113.417 116.619 113.965 117.326 114.142C 118.033 114.319 118.781 114.097 119.277 113.562L 117.811 112.202ZM 166.754 69.3038L 164.803 69.7443C 165.042 70.803 166.082 71.4778 167.146 71.265C 168.211 71.0522 168.911 70.0293 168.724 68.9601L 166.754 69.3038ZM 164.948 61.3038L 166.874 60.7675C 166.583 59.7219 165.512 59.0993 164.459 59.3644C 163.407 59.6296 162.758 60.6857 162.997 61.7443L 164.948 61.3038ZM 147.539 32.0713C 148.239 32.9258 149.499 33.0509 150.353 32.3509C 151.208 31.6509 151.333 30.3907 150.633 29.5363L 147.539 32.0713ZM 4.3406 64.2799C 4.60354 63.2071 3.947 62.1243 2.87418 61.8613C 1.80136 61.5984 0.718522 62.2549 0.455586 63.3277L 4.3406 64.2799ZM 14.4864 40.369C 15.0747 39.4341 14.7937 38.1993 13.8588 37.6111C 12.9239 37.0228 11.6892 37.3038 11.1009 38.2387L 14.4864 40.369ZM 8.67981 42.3343C 8.14436 43.3004 8.49348 44.5177 9.4596 45.0531C 10.4257 45.5886 11.643 45.2395 12.1784 44.2733L 8.67981 42.3343ZM 25.5669 20.8348C 24.7556 21.5843 24.7055 22.8497 25.4551 23.661C 26.2046 24.4723 27.4699 24.5224 28.2813 23.7729L 25.5669 20.8348ZM 62.4449 97.5934C 63.2959 96.8892 63.415 95.6285 62.7108 94.7775C 62.0066 93.9265 60.7459 93.8075 59.8949 94.5116L 62.4449 97.5934ZM 74.1937 87.4257C 73.1209 87.6888 72.4644 88.7716 72.7274 89.8444C 72.9905 90.9172 74.0734 91.5737 75.1461 91.3107L 74.1937 87.4257ZM 8.91183 116.661C 4.42858 106.531 1.98811 95.5318 2 83.7561L -2 83.7561C -1.98811 95.9673 0.627828 107.778 5.25259 118.277L 8.91183 116.661ZM 166 83.7561C 166.013 94.5142 163.103 107.263 159.302 116.725L 163.015 118.214C 166.921 108.456 169.987 94.9611 170 83.7561L 166 83.7561ZM 9.07448 117.645C 9.63712 111.264 12.3894 104.073 18.1235 101.443C 23.7203 98.8763 33.4562 100.11 49.4192 113.723L 52.0147 110.68C 35.8571 96.9008 24.3562 94.1841 16.4561 97.807C 8.69332 101.367 5.68857 110.505 5.08994 117.294L 9.07448 117.645ZM 119.277 113.562C 132.39 99.4414 140.837 97.8659 146.35 100.273C 149.253 101.54 151.743 104.04 153.914 107.308C 156.109 110.6 157.821 114.424 159.296 118.198L 163.021 116.741C 161.509 112.876 159.611 108.667 157.246 105.095C 154.857 101.498 151.836 98.3029 147.951 96.6067C 139.888 93.0875 129.648 96.5162 116.346 110.841L 119.277 113.562ZM 163.021 61.8402C 163.737 64.4104 164.32 66.9829 164.784 69.6475L 168.724 68.9601C 168.242 66.1973 167.616 63.432 166.874 60.7675L 163.021 61.8402ZM 168.705 68.8633L 166.899 60.8633L 162.997 61.7443L 164.803 69.7443L 168.705 68.8633ZM 84 2C 109.623 2 132.499 13.7151 147.539 32.0713L 150.633 29.5363C 134.865 10.2906 110.87 -2 84 -2L 84 2ZM 2 83.7561C 1.99618 77.004 2.79787 70.5602 4.3406 64.2799L 0.455586 63.3277C -1.13604 69.8361 -1.99618 76.7567 -2 83.7561L 2 83.7561ZM 12.1784 44.2733C 12.9167 42.9409 13.677 41.6549 14.4864 40.369L 11.1009 38.2387C 10.2624 39.5716 9.44547 40.9532 8.67981 42.3343L 12.1784 44.2733ZM 28.2813 23.7729C 42.9912 10.1425 62.3594 1.96028 84 2L 84 -2C 61.5662 -1.96028 40.8241 6.78043 25.5669 20.8348L 28.2813 23.7729ZM 52.6338 112.772C 54.5834 106.136 57.9705 101.272 62.4449 97.5934L 59.8949 94.5116C 55.0256 98.5648 50.9786 104.402 48.8001 111.631L 52.6338 112.772ZM 75.1461 91.3107C 91.8498 87.2155 111.314 95.4223 115.878 112.712L 119.745 111.691C 114.478 91.735 92.4089 82.96 74.1937 87.4257L 75.1461 91.3107Z"/>
<path id="path41_stroke" d="M 20 14.8133L 19.2929 15.5204C 19.563 15.7905 19.9633 15.8831 20.3245 15.7592C 20.6858 15.6352 20.9449 15.3163 20.9923 14.9373L 20 14.8133ZM 53.9453 11.8133L 53.0957 12.3407C 53.293 12.6586 53.6514 12.8398 54.0244 12.8102C 54.3975 12.7806 54.7228 12.5451 54.8675 12.2L 53.9453 11.8133ZM 101.067 11.8133L 100.172 12.2605C 100.334 12.5835 100.657 12.7944 101.017 12.8121C 101.378 12.8298 101.72 12.6517 101.913 12.3461L 101.067 11.8133ZM 135.5 14.8133L 134.704 15.4184C 134.9 15.6759 135.208 15.8228 135.531 15.8128C 135.854 15.8028 136.153 15.6371 136.332 15.368L 135.5 14.8133ZM 153.501 21.3517C 153.522 21.9035 153.987 22.3337 154.538 22.3125C 155.09 22.2913 155.52 21.8267 155.499 21.2748L 153.501 21.3517ZM -0.970143 21.0707C -1.10409 21.6065 -0.778331 22.1494 -0.242536 22.2834C 0.293259 22.4173 0.836194 22.0915 0.970143 21.5558L -0.970143 21.0707ZM 48.5168 5.05622C 48.0439 4.77082 47.4293 4.92275 47.1439 5.39558C 46.8585 5.8684 47.0104 6.48307 47.4832 6.76847L 48.5168 5.05622ZM 107.273 6.75187C 107.736 6.4518 107.869 5.83268 107.569 5.36903C 107.269 4.90537 106.65 4.77275 106.186 5.07282L 107.273 6.75187ZM 123.5 4.0646C 122.989 3.85559 122.405 4.10057 122.196 4.61178C 121.987 5.12299 122.232 5.70684 122.743 5.91585L 123.5 4.0646ZM 79.4386 1.06928C 79.9899 1.10317 80.4642 0.683784 80.4981 0.132541C 80.532 -0.418703 80.1126 -0.893054 79.5614 -0.926953L 79.4386 1.06928ZM 96.8426 5.13226C 96.4118 4.78671 95.7824 4.85585 95.4368 5.28668C 95.0913 5.71751 95.1604 6.34689 95.5913 6.69243L 96.8426 5.13226ZM 24.6561 8.54846C 25.0729 8.1861 25.117 7.55447 24.7547 7.13768C 24.3923 6.7209 23.7607 6.67678 23.3439 7.03914L 24.6561 8.54846ZM 136.332 15.368C 138.591 11.9799 142.787 10.5018 146.463 11.3501C 150.043 12.1763 153.266 15.2573 153.501 21.3517L 155.499 21.2748C 155.234 14.3692 151.457 10.4502 146.912 9.40134C 142.463 8.37469 137.409 10.1466 134.668 14.2586L 136.332 15.368ZM 20.7071 14.1062C 16.5839 9.98296 12.025 8.13442 7.92616 9.30145C 3.82638 10.4687 0.668459 14.5163 -0.970143 21.0707L 0.970143 21.5558C 2.53154 15.3102 5.37362 12.1077 8.47384 11.225C 11.575 10.3421 15.4161 11.6436 19.2929 15.5204L 20.7071 14.1062ZM 47.4832 6.76847C 49.6947 8.0966 51.5748 9.87472 53.0957 12.3407L 54.7949 11.2859C 53.125 8.61108 50.9064 6.50537 48.5168 5.05622L 47.4832 6.76847ZM 101.913 12.3461C 103.481 9.84495 105.251 8.05339 107.273 6.75187L 106.186 5.07282C 103.989 6.50189 101.914 8.60194 100.22 11.2805L 101.913 12.3461ZM 122.743 5.91585C 127.185 7.72158 131.339 10.9768 134.704 15.4184L 136.296 14.2082C 132.763 9.57296 128.19 5.99225 123.5 4.0646L 122.743 5.91585ZM 54.8675 12.2C 56.5022 8.30191 59.9503 5.35622 64.3873 3.45773C 68.8647 1.53317 74.1421 0.737968 79.4386 1.06928L 79.5614 -0.926953C 74.0535 -1.26007 68.3174 -0.390495 63.6005 1.61898C 58.8433 3.65452 54.9163 6.91212 53.0231 11.4266L 54.8675 12.2ZM 95.5913 6.69243C 97.5473 8.25544 99.0775 10.0552 100.172 12.2605L 101.961 11.3661C 100.747 8.95312 98.9419 6.82188 96.8426 5.13226L 95.5913 6.69243ZM 20.9923 14.9373C 21.2966 12.503 22.6171 10.3212 24.6561 8.54846L 23.3439 7.03914C 21.0171 9.06211 19.3856 11.6658 19.0077 14.6893L 20.9923 14.9373Z"/>
</defs>
</svg>
