<?xml version="1.0" encoding="utf-8"?>
<!-- Generator: Adobe Illustrator 16.0.0, SVG Export Plug-In . SVG Version: 6.00 Build 0)  -->
<!DOCTYPE svg PUBLIC "-//W3C//DTD SVG 1.1//EN" "http://www.w3.org/Graphics/SVG/1.1/DTD/svg11.dtd">
<svg version="1.1" id="dollabill" xmlns="http://www.w3.org/2000/svg" xmlns:xlink="http://www.w3.org/1999/xlink" x="0px" y="0px"
	 width="20.667px" height="31.75px" viewBox="0 0 20.667 31.75" enable-background="new 0 0 20.667 31.75" xml:space="preserve">
<g>
	<path fill="#1CF5C9" d="M19.367,24.674c-3.135,1.707-8.803,4.795-10.886,5.928c2.306-6.817-9.849-17.875-6.932-23.959
		c2.836-1.545,7.804-4.25,10.023-5.458C8.898,6.031,21.26,19.787,19.367,24.674z"/>
	<circle fill="#F0AC21" cx="9.985" cy="15.654" r="5.139"/>
	<path fill="none" stroke="#4F205F" stroke-width="2" stroke-linecap="round" stroke-linejoin="round" stroke-miterlimit="10" d="
		M19.367,24.674c-3.135,1.707-8.803,4.795-10.886,5.928c2.306-6.817-9.849-17.875-6.932-23.959c2.836-1.545,7.804-4.25,10.023-5.458
		C8.898,6.031,21.26,19.787,19.367,24.674z"/>
	
		<circle fill="none" stroke="#4F205F" stroke-width="0.9996" stroke-linecap="round" stroke-linejoin="round" stroke-miterlimit="10" cx="9.985" cy="15.654" r="5.139"/>
	
		<circle fill="none" stroke="#4F205F" stroke-linecap="round" stroke-linejoin="round" stroke-miterlimit="10" cx="9.985" cy="15.654" r="5.139"/>
	<path fill="none" stroke="#4F205F" stroke-linecap="round" stroke-linejoin="round" stroke-miterlimit="10" d="M14.059,18.793
		c1.6,3.16,2.719,6.004,2.047,7.732"/>
	<path fill="none" stroke="#4F205F" stroke-linecap="round" stroke-linejoin="round" stroke-miterlimit="10" d="M8.312,3.034
		c-0.923,1.677-0.051,4.415,1.406,7.483"/>
	<path fill="none" stroke="#4F205F" stroke-linecap="round" stroke-linejoin="round" stroke-miterlimit="10" d="M10.375,20.795
		c1.603,3.163,2.718,6.008,2.048,7.736"/>
	<path fill="none" stroke="#4F205F" stroke-linecap="round" stroke-linejoin="round" stroke-miterlimit="10" d="M4.629,5.041
		c-0.912,1.657-0.07,4.354,1.358,7.381"/>
	<path fill="none" stroke="#4F205F" stroke-linecap="round" stroke-linejoin="round" stroke-miterlimit="10" d="M7.879,15.135
		c0,0-0.333,0.797,0.143,1.67c0.476,0.876,1.178,1.008,1.647,0.753c0.47-0.256,0.64-1.001,0.46-1.853
		c-0.18-0.854-0.042-1.578,0.634-1.945c0.676-0.368,1.334,0.492,1.497,0.785c0.162,0.297,0.35,1.203,0.039,1.58"/>
	
		<line fill="none" stroke="#4F205F" stroke-linecap="round" stroke-linejoin="round" stroke-miterlimit="10" x1="7.321" y1="17.187" x2="13.029" y2="14.078"/>
</g>
</svg>
