<svg width="253" height="326" viewBox="0 0 253 326" version="1.1" xmlns="http://www.w3.org/2000/svg" xmlns:xlink="http://www.w3.org/1999/xlink" xmlns:figma="http://www.figma.com/figma/ns">
<title>Pop Details</title>
<desc>Created using Figma</desc>
<g id="Canvas" transform="translate(1616 -1034)" figma:type="canvas">
<g id="Pop Details" style="mix-blend-mode:normal;" figma:type="frame">
<g id="star" style="mix-blend-mode:normal;" figma:type="frame">
<g id="Vector 7" style="mix-blend-mode:normal;" figma:type="vector">
<use xlink:href="#path0_stroke" transform="matrix(0.866006 -0.500033 0.500033 0.866006 -1566.17 1231.26)" fill="#F2AD22" style="mix-blend-mode:normal;"/>
</g>
<g id="Vector 7" style="mix-blend-mode:normal;" figma:type="vector">
<use xlink:href="#path1_stroke" transform="matrix(-0.866006 0.500033 -0.500033 -0.866006 -1569.87 1224.87)" fill="#F2AD22" style="mix-blend-mode:normal;"/>
</g>
<g id="Vector 7" style="mix-blend-mode:normal;" figma:type="vector">
<use xlink:href="#path2_stroke" transform="matrix(-0.484264 -0.874922 0.874919 -0.484269 -1564.79 1226.28)" fill="#F2AD22" style="mix-blend-mode:normal;"/>
</g>
<g id="Vector 7" style="mix-blend-mode:normal;" figma:type="vector">
<use xlink:href="#path2_stroke" transform="matrix(-0.484264 -0.874922 0.874919 -0.484269 -1574.55 1231.68)" fill="#F2AD22" style="mix-blend-mode:normal;"/>
</g>
<g id="Vector 7" style="mix-blend-mode:normal;" figma:type="vector">
<use xlink:href="#path3_stroke" transform="matrix(0.283042 -0.959107 0.959155 0.282881 -1564.5 1229.18)" fill="#F2AD22" style="mix-blend-mode:normal;"/>
</g>
<g id="Vector 7" style="mix-blend-mode:normal;" figma:type="vector">
<use xlink:href="#path4_stroke" transform="matrix(0.283042 -0.959107 0.959155 0.282881 -1575.17 1225.96)" fill="#F2AD22" style="mix-blend-mode:normal;"/>
</g>
<g id="Vector 7" style="mix-blend-mode:normal;" figma:type="vector">
<use xlink:href="#path5_stroke" transform="matrix(-0.953874 -0.300207 0.300367 -0.953824 -1566.91 1224.55)" fill="#F2AD22" style="mix-blend-mode:normal;"/>
</g>
<g id="Vector 7" style="mix-blend-mode:normal;" figma:type="vector">
<use xlink:href="#path5_stroke" transform="matrix(-0.953874 -0.300207 0.300367 -0.953824 -1570.26 1235.18)" fill="#F2AD22" style="mix-blend-mode:normal;"/>
</g>
</g>
<g id="star" style="mix-blend-mode:normal;" figma:type="frame">
<g id="Vector 7" style="mix-blend-mode:normal;" figma:type="vector">
<use xlink:href="#path6_stroke" transform="matrix(-0.642817 -0.76602 0.76602 -0.642817 -1583.66 1352.2)" fill="#F26222" style="mix-blend-mode:normal;"/>
</g>
<g id="Vector 7" style="mix-blend-mode:normal;" figma:type="vector">
<use xlink:href="#path7_stroke" transform="matrix(0.642817 0.76602 -0.76602 0.642817 -1586.37 1354.47)" fill="#F26222" style="mix-blend-mode:normal;"/>
</g>
<g id="Vector 7" style="mix-blend-mode:normal;" figma:type="vector">
<use xlink:href="#path8_stroke" transform="matrix(-0.777539 0.628835 -0.62884 -0.777535 -1586.13 1351.96)" fill="#F26222" style="mix-blend-mode:normal;"/>
</g>
<g id="Vector 7" style="mix-blend-mode:normal;" figma:type="vector">
<use xlink:href="#path8_stroke" transform="matrix(-0.777539 0.628835 -0.62884 -0.777535 -1582.77 1356.1)" fill="#F26222" style="mix-blend-mode:normal;"/>
</g>
<g id="Vector 7" style="mix-blend-mode:normal;" figma:type="vector">
<use xlink:href="#path9_stroke" transform="matrix(-0.993686 -0.112195 0.112028 -0.993705 -1584.78 1351.58)" fill="#F26222" style="mix-blend-mode:normal;"/>
</g>
<g id="Vector 7" style="mix-blend-mode:normal;" figma:type="vector">
<use xlink:href="#path10_stroke" transform="matrix(-0.993686 -0.112195 0.112028 -0.993705 -1585.42 1356.88)" fill="#F26222" style="mix-blend-mode:normal;"/>
</g>
<g id="Vector 7" style="mix-blend-mode:normal;" figma:type="vector">
<use xlink:href="#path11_stroke" transform="matrix(-0.130008 0.991513 -0.991491 -0.130174 -1586.77 1353.1)" fill="#F26222" style="mix-blend-mode:normal;"/>
</g>
<g id="Vector 7" style="mix-blend-mode:normal;" figma:type="vector">
<use xlink:href="#path11_stroke" transform="matrix(-0.130008 0.991513 -0.991491 -0.130174 -1581.48 1353.8)" fill="#F26222" style="mix-blend-mode:normal;"/>
</g>
</g>
<g id="star" style="mix-blend-mode:normal;" figma:type="frame">
<g id="Vector 7" style="mix-blend-mode:normal;" figma:type="vector">
<use xlink:href="#path6_stroke" transform="matrix(-0.642817 -0.76602 0.76602 -0.642817 -1366.21 1103.97)" fill="#6372EB" style="mix-blend-mode:normal;"/>
</g>
<g id="Vector 7" style="mix-blend-mode:normal;" figma:type="vector">
<use xlink:href="#path7_stroke" transform="matrix(0.642817 0.76602 -0.76602 0.642817 -1368.92 1106.24)" fill="#6372EB" style="mix-blend-mode:normal;"/>
</g>
<g id="Vector 7" style="mix-blend-mode:normal;" figma:type="vector">
<use xlink:href="#path8_stroke" transform="matrix(-0.777539 0.628835 -0.62884 -0.777535 -1368.67 1103.73)" fill="#6372EB" style="mix-blend-mode:normal;"/>
</g>
<g id="Vector 7" style="mix-blend-mode:normal;" figma:type="vector">
<use xlink:href="#path8_stroke" transform="matrix(-0.777539 0.628835 -0.62884 -0.777535 -1365.32 1107.88)" fill="#6372EB" style="mix-blend-mode:normal;"/>
</g>
<g id="Vector 7" style="mix-blend-mode:normal;" figma:type="vector">
<use xlink:href="#path9_stroke" transform="matrix(-0.993686 -0.112195 0.112028 -0.993705 -1367.33 1103.36)" fill="#6372EB" style="mix-blend-mode:normal;"/>
</g>
<g id="Vector 7" style="mix-blend-mode:normal;" figma:type="vector">
<use xlink:href="#path10_stroke" transform="matrix(-0.993686 -0.112195 0.112028 -0.993705 -1367.96 1108.65)" fill="#6372EB" style="mix-blend-mode:normal;"/>
</g>
<g id="Vector 7" style="mix-blend-mode:normal;" figma:type="vector">
<use xlink:href="#path11_stroke" transform="matrix(-0.130008 0.991513 -0.991491 -0.130174 -1369.31 1104.88)" fill="#6372EB" style="mix-blend-mode:normal;"/>
</g>
<g id="Vector 7" style="mix-blend-mode:normal;" figma:type="vector">
<use xlink:href="#path11_stroke" transform="matrix(-0.130008 0.991513 -0.991491 -0.130174 -1364.03 1105.57)" fill="#6372EB" style="mix-blend-mode:normal;"/>
</g>
</g>
<g id="Ellipse 3" style="mix-blend-mode:normal;" figma:type="ellipse">
<use xlink:href="#path12_fill" transform="matrix(1 0 0 1 -1616 1318.93)" fill="#F26222" style="mix-blend-mode:normal;"/>
</g>
<g id="Ellipse 3" style="mix-blend-mode:normal;" figma:type="ellipse">
<use xlink:href="#path12_fill" transform="matrix(1 0 0 1 -1399.67 1034)" fill="#F2AD22" style="mix-blend-mode:normal;"/>
</g>
<g id="Ellipse 3" style="mix-blend-mode:normal;" figma:type="ellipse">
<use xlink:href="#path13_fill" transform="matrix(1 0 0 1 -1528.74 1337)" fill="#6372EB" fill-opacity="0.5" style="mix-blend-mode:normal;"/>
</g>
<g id="Ellipse 2" style="mix-blend-mode:normal;" figma:type="vector">
<use xlink:href="#path14_stroke" transform="matrix(1 0 0 1 -1608 1137)" fill="#F26222" style="mix-blend-mode:normal;"/>
</g>
<g id="Ellipse 2" style="mix-blend-mode:normal;" figma:type="vector">
<use xlink:href="#path15_stroke" transform="matrix(0.5 -0.866025 0.866025 0.5 -1457.46 1356.46)" fill="#F2AD22" style="mix-blend-mode:normal;"/>
</g>
<g id="Ellipse 2" style="mix-blend-mode:normal;" figma:type="vector">
<use xlink:href="#path16_stroke" transform="matrix(-0.515603 -0.856827 0.856827 -0.515603 -1396.81 1235.92)" fill="#6372EB" style="mix-blend-mode:normal;"/>
</g>
</g>
</g>
<defs>
<path id="path0_stroke" d="M 1 0C 1 -0.552285 0.552285 -1 0 -1C -0.552285 -1 -1 -0.552285 -1 0L 1 0ZM -1 3.76656C -1 4.31885 -0.552285 4.76656 0 4.76656C 0.552285 4.76656 1 4.31885 1 3.76656L -1 3.76656ZM -1 0L -1 3.76656L 1 3.76656L 1 0L -1 0Z"/>
<path id="path1_stroke" d="M 1 -1.64918e-07C 1 -0.552285 0.552285 -1 1.17363e-07 -1C -0.552285 -1 -1 -0.552285 -1 -1.02869e-07L 1 -1.64918e-07ZM -0.999659 4.14775C -0.995099 4.70001 -0.543703 5.14401 0.00856276 5.13946C 0.560829 5.1349 1.00483 4.6835 1.00027 4.13123L -0.999659 4.14775ZM 0.999966 4.09401C 0.995407 3.54175 0.544011 3.09774 -0.00825519 3.1023C -0.560521 3.10686 -1.00453 3.55826 -0.999966 4.11053L 0.999966 4.09401ZM -1 1.86467C -1 2.41695 -0.552285 2.86467 2.37263e-07 2.86467C 0.552285 2.86467 1 2.41695 1 1.86467L -1 1.86467ZM -0.999966 4.11053L -0.999659 4.14775L 1.00027 4.13123L 0.999966 4.09401L -0.999966 4.11053ZM -1 -1.02869e-07L -1 1.86467L 1 1.86467L 1 -1.64918e-07L -1 -1.02869e-07Z"/>
<path id="path2_stroke" d="M 1 0C 1 -0.552285 0.552285 -1 0 -1C -0.552285 -1 -1 -0.552285 -1 0L 1 0ZM -1 3.7672C -1 4.31948 -0.552285 4.7672 0 4.7672C 0.552285 4.7672 1 4.31948 1 3.7672L -1 3.7672ZM -1 0L -1 3.7672L 1 3.7672L 1 0L -1 0Z"/>
<path id="path3_stroke" d="M 1.07202 0.0182285C 1.08209 -0.533964 0.642606 -0.989766 0.0904129 -0.999834C -0.46178 -1.0099 -0.917582 -0.570422 -0.927649 -0.0182285L 1.07202 0.0182285ZM -0.999834 3.94109C -1.0099 4.49328 -0.570422 4.94908 -0.0182287 4.95915C 0.533964 4.96922 0.989766 4.52974 0.999834 3.97754L -0.999834 3.94109ZM -0.927649 -0.0182285L -0.999834 3.94109L 0.999834 3.97754L 1.07202 0.0182285L -0.927649 -0.0182285Z"/>
<path id="path4_stroke" d="M 1 0C 1 -0.552285 0.552285 -1 0 -1C -0.552285 -1 -1 -0.552285 -1 0L 1 0ZM -1 3.76686C -1 4.31915 -0.552285 4.76686 0 4.76686C 0.552285 4.76686 1 4.31915 1 3.76686L -1 3.76686ZM -1 0L -1 3.76686L 1 3.76686L 1 0L -1 0Z"/>
<path id="path5_stroke" d="M 1 0C 1 -0.552285 0.552285 -1 0 -1C -0.552285 -1 -1 -0.552285 -1 0L 1 0ZM -1 3.76691C -1 4.31919 -0.552285 4.76691 0 4.76691C 0.552285 4.76691 1 4.31919 1 3.76691L -1 3.76691ZM -1 0L -1 3.76691L 1 3.76691L 1 0L -1 0Z"/>
<path id="path6_stroke" d="M 0.5 0C 0.5 -0.276142 0.276142 -0.5 0 -0.5C -0.276142 -0.5 -0.5 -0.276142 -0.5 0L 0.5 0ZM -0.5 1.80114C -0.5 2.07729 -0.276142 2.30114 0 2.30114C 0.276142 2.30114 0.5 2.07729 0.5 1.80114L -0.5 1.80114ZM -0.5 0L -0.5 1.80114L 0.5 1.80114L 0.5 0L -0.5 0Z"/>
<path id="path7_stroke" d="M 0.5 -7.95392e-08C 0.5 -0.276142 0.276142 -0.5 5.54454e-08 -0.5C -0.276142 -0.5 -0.5 -0.276142 -0.5 -4.85146e-08L 0.5 -7.95392e-08ZM -0.499836 1.9836C -0.497556 2.25973 -0.271858 2.48174 0.00427467 2.47946C 0.280408 2.47718 0.50241 2.25148 0.50013 1.97535L -0.499836 1.9836ZM 0.499983 1.95755C 0.497703 1.68142 0.272005 1.45941 -0.0041276 1.46169C -0.280261 1.46397 -0.502263 1.68967 -0.499983 1.9658L 0.499983 1.95755ZM -0.5 0.891671C -0.5 1.16781 -0.276142 1.39167 1.14134e-07 1.39167C 0.276142 1.39167 0.5 1.16781 0.5 0.891671L -0.5 0.891671ZM -0.499983 1.9658L -0.499836 1.9836L 0.50013 1.97535L 0.499983 1.95755L -0.499983 1.9658ZM -0.5 -4.85146e-08L -0.5 0.891671L 0.5 0.891671L 0.5 -7.95392e-08L -0.5 -4.85146e-08Z"/>
<path id="path8_stroke" d="M 0.5 0C 0.5 -0.276142 0.276142 -0.5 0 -0.5C -0.276142 -0.5 -0.5 -0.276142 -0.5 0L 0.5 0ZM -0.5 1.80145C -0.5 2.07759 -0.276142 2.30145 0 2.30145C 0.276142 2.30145 0.5 2.07759 0.5 1.80145L -0.5 1.80145ZM -0.5 0L -0.5 1.80145L 0.5 1.80145L 0.5 0L -0.5 0Z"/>
<path id="path9_stroke" d="M 0.534435 0.00911427C 0.539469 -0.266982 0.319729 -0.494883 0.0436323 -0.499917C -0.232464 -0.504951 -0.460365 -0.285211 -0.465399 -0.00911427L 0.534435 0.00911427ZM -0.499917 1.8842C -0.504951 2.1603 -0.285211 2.3882 -0.00911435 2.39323C 0.266982 2.39827 0.494883 2.17853 0.499917 1.90243L -0.499917 1.8842ZM -0.465399 -0.00911427L -0.499917 1.8842L 0.499917 1.90243L 0.534435 0.00911427L -0.465399 -0.00911427Z"/>
<path id="path10_stroke" d="M 0.5 0C 0.5 -0.276142 0.276142 -0.5 0 -0.5C -0.276142 -0.5 -0.5 -0.276142 -0.5 0L 0.5 0ZM -0.5 1.80129C -0.5 2.07743 -0.276142 2.30129 0 2.30129C 0.276142 2.30129 0.5 2.07743 0.5 1.80129L -0.5 1.80129ZM -0.5 0L -0.5 1.80129L 0.5 1.80129L 0.5 0L -0.5 0Z"/>
<path id="path11_stroke" d="M 0.5 0C 0.5 -0.276142 0.276142 -0.5 0 -0.5C -0.276142 -0.5 -0.5 -0.276142 -0.5 0L 0.5 0ZM -0.5 1.80131C -0.5 2.07745 -0.276142 2.30131 0 2.30131C 0.276142 2.30131 0.5 2.07745 0.5 1.80131L -0.5 1.80131ZM -0.5 0L -0.5 1.80131L 0.5 1.80131L 0.5 0L -0.5 0Z"/>
<path id="path12_fill" d="M 5 2.5C 5 3.88071 3.88071 5 2.5 5C 1.11929 5 0 3.88071 0 2.5C 0 1.11929 1.11929 0 2.5 0C 3.88071 0 5 1.11929 5 2.5Z"/>
<path id="path13_fill" d="M 7 3.5C 7 5.433 5.433 7 3.5 7C 1.567 7 0 5.433 0 3.5C 0 1.567 1.567 0 3.5 0C 5.433 0 7 1.567 7 3.5Z"/>
<path id="path14_stroke" d="M 8.59929 8.16691C 8.96762 7.75539 8.9326 7.12319 8.52107 6.75487C 8.10955 6.38654 7.47735 6.42156 7.10903 6.83309L 8.59929 8.16691ZM 7.8011 3.33325C 7.98515 3.85396 8.55647 4.12689 9.07719 3.94284C 9.5979 3.75879 9.87083 3.18747 9.68678 2.66675L 7.8011 3.33325ZM 4.5 8C 2.567 8 1 6.433 1 4.5L -1 4.5C -1 7.53757 1.46243 10 4.5 10L 4.5 8ZM 1 4.5C 1 2.567 2.567 1 4.5 1L 4.5 -1C 1.46243 -1 -1 1.46243 -1 4.5L 1 4.5ZM 7.10903 6.83309C 6.46672 7.55072 5.53649 8 4.5 8L 4.5 10C 6.12901 10 7.59364 9.29052 8.59929 8.16691L 7.10903 6.83309ZM 4.5 1C 6.02236 1 7.32015 1.97251 7.8011 3.33325L 9.68678 2.66675C 8.93222 0.531916 6.8963 -1 4.5 -1L 4.5 1Z"/>
<path id="path15_stroke" d="M 7.9214 7.34421C 8.2956 6.93802 8.26966 6.30539 7.86347 5.93119C 7.45728 5.55699 6.82464 5.58292 6.45044 5.98912L 7.9214 7.34421ZM 7.06026 3.00855C 7.24907 3.52755 7.82287 3.79523 8.34188 3.60641C 8.86088 3.4176 9.12856 2.84379 8.93974 2.32479L 7.06026 3.00855ZM 4.11714 7C 2.36819 7 1 5.62984 1 4L -1 4C -1 6.78844 1.31842 9 4.11714 9L 4.11714 7ZM 1 4C 1 2.37016 2.36819 1 4.11714 1L 4.11714 -1C 1.31842 -1 -1 1.21156 -1 4L 1 4ZM 6.45044 5.98912C 5.8814 6.60681 5.05047 7 4.11714 7L 4.11714 9C 5.62252 9 6.98269 8.36319 7.9214 7.34421L 6.45044 5.98912ZM 4.11714 1C 5.49083 1 6.63932 1.8515 7.06026 3.00855L 8.93974 2.32479C 8.23029 0.374653 6.3287 -1 4.11714 -1L 4.11714 1Z"/>
<path id="path16_stroke" d="M 3.90055 1.66662C 3.99257 1.92698 4.27824 2.06344 4.53859 1.97142C 4.79895 1.8794 4.93541 1.59373 4.84339 1.33338L 3.90055 1.66662ZM 3.53872 4.67985C 3.78259 4.55029 3.87525 4.24757 3.74569 4.00371C 3.61613 3.75984 3.31341 3.66718 3.06955 3.79674L 3.53872 4.67985ZM 2.25 4C 1.2835 4 0.5 3.2165 0.5 2.25L -0.5 2.25C -0.5 3.76878 0.731217 5 2.25 5L 2.25 4ZM 0.5 2.25C 0.5 1.2835 1.2835 0.5 2.25 0.5L 2.25 -0.5C 0.731217 -0.5 -0.5 0.731217 -0.5 2.25L 0.5 2.25ZM 2.25 0.5C 3.01118 0.5 3.66007 0.986253 3.90055 1.66662L 4.84339 1.33338C 4.46611 0.265958 3.44815 -0.5 2.25 -0.5L 2.25 0.5ZM 3.06955 3.79674C 2.80742 3.93976 2.5666 4.00415 2.25 4L 2.25 5C 2.6952 4.99585 3.17196 4.87095 3.53872 4.67985L 3.06955 3.79674Z"/>
</defs>
</svg>
