<svg width="237" height="196" viewBox="0 0 237 196" version="1.1" xmlns="http://www.w3.org/2000/svg" xmlns:xlink="http://www.w3.org/1999/xlink" xmlns:figma="http://www.figma.com/figma/ns">
<title>sloth - bod</title>
<desc>Created using Figma</desc>
<g id="Canvas" transform="translate(1730 -1644)" figma:type="canvas">
<g id="sloth - bod" style="mix-blend-mode:normal;" figma:type="frame">
<g id="fills" style="mix-blend-mode:normal;" figma:type="frame">
<g id="grabbing arm" style="mix-blend-mode:normal;" filter="url(#filter0_d)" figma:type="vector">
<use xlink:href="#path0_fill" transform="matrix(0.939693 -0.34202 0.34202 0.939693 -1696.46 1663.6)" fill="url(#paint0_linear)" style="mix-blend-mode:normal;"/>
</g>
<g id="back leg" style="mix-blend-mode:normal;" filter="url(#filter1_d)" figma:type="vector">
<use xlink:href="#path1_fill" transform="matrix(0.999391 -0.0348995 0.0348995 0.999391 -1595.79 1737.02)" fill="url(#paint1_linear)" style="mix-blend-mode:normal;"/>
</g>
<g id="body" style="mix-blend-mode:normal;" filter="url(#filter2_d)" figma:type="vector">
<use xlink:href="#path2_fill" transform="matrix(0.956693 -0.2911 0.2911 0.956693 -1683.44 1785.43)" fill="url(#paint2_linear)" style="mix-blend-mode:normal;"/>
</g>
<g id="branch" style="mix-blend-mode:normal;" filter="url(#filter3_d)" figma:type="vector">
<use xlink:href="#path3_fill" transform="matrix(0.544639 -0.838671 0.838671 0.544639 -1727.97 1652.48)" fill="url(#paint3_linear)" style="mix-blend-mode:normal;"/>
</g>
<g id="front leg" style="mix-blend-mode:normal;" figma:type="vector">
<use xlink:href="#path4_fill" transform="matrix(0.978148 -0.207912 0.207912 0.978148 -1607.38 1732.75)" fill="url(#paint4_linear)" style="mix-blend-mode:normal;"/>
</g>
<g id="head" style="mix-blend-mode:normal;" figma:type="ellipse">
<use xlink:href="#path5_fill" transform="matrix(0.939693 -0.34202 0.34202 0.939693 -1691.47 1765.01)" fill="url(#paint5_linear)" style="mix-blend-mode:normal;"/>
</g>
<g id="Face" style="mix-blend-mode:normal;" figma:type="frame">
<g id="Ellipse 10" style="mix-blend-mode:normal;" figma:type="vector">
<use xlink:href="#path6_fill" transform="matrix(0.939693 -0.34202 0.34202 0.939693 -1682.51 1772.53)" fill="url(#paint6_linear)" style="mix-blend-mode:normal;"/>
</g>
<g id="Intersect" style="mix-blend-mode:normal;" figma:type="vector-operation">
<use xlink:href="#path7_fill" transform="matrix(0.939693 -0.34202 0.34202 0.939693 -1679.65 1779.53)" fill="#794B39" style="mix-blend-mode:normal;"/>
</g>
<g id="face" style="mix-blend-mode:normal;" figma:type="frame">
<g id="Group" style="mix-blend-mode:normal;" figma:type="frame">
<g id="Ellipse 11" style="mix-blend-mode:normal;" figma:type="ellipse">
<use xlink:href="#path8_fill" transform="matrix(0.939693 -0.34202 0.34202 0.939693 -1673.17 1777.17)" fill="#3A3129" style="mix-blend-mode:normal;"/>
</g>
<g id="Ellipse 11" style="mix-blend-mode:normal;" figma:type="ellipse">
<use xlink:href="#path9_fill" transform="matrix(0.939693 -0.34202 0.34202 0.939693 -1670.95 1777.74)" fill="#FFFFFF" style="mix-blend-mode:normal;"/>
</g>
</g>
<g id="Group" style="mix-blend-mode:normal;" figma:type="frame">
<g id="Ellipse 11" style="mix-blend-mode:normal;" figma:type="ellipse">
<use xlink:href="#path8_fill" transform="matrix(-0.939693 0.34202 0.34202 0.939693 -1655.39 1770.7)" fill="#3A3129" style="mix-blend-mode:normal;"/>
</g>
<g id="Ellipse 11" style="mix-blend-mode:normal;" figma:type="ellipse">
<use xlink:href="#path9_fill" transform="matrix(-0.939693 0.34202 0.34202 0.939693 -1657.61 1772.89)" fill="#FFFFFF" style="mix-blend-mode:normal;"/>
</g>
</g>
<g id="Rectangle 16" style="mix-blend-mode:normal;" figma:type="vector">
<use xlink:href="#path10_fill" transform="matrix(0.939693 -0.34202 0.34202 0.939693 -1666.09 1781.62)" fill="url(#paint12_linear)" style="mix-blend-mode:normal;"/>
</g>
</g>
</g>
</g>
<g id="strokes" style="mix-blend-mode:normal;" figma:type="frame">
<g id="grabbing arm" style="mix-blend-mode:normal;" figma:type="vector">
<use xlink:href="#path11_stroke" transform="matrix(0.939693 -0.34202 0.34202 0.939693 -1680.04 1676.22)" fill="#500960" style="mix-blend-mode:normal;"/>
</g>
<g id="back leg" style="mix-blend-mode:normal;" figma:type="vector">
<use xlink:href="#path12_stroke" transform="matrix(0.999391 -0.0348995 0.0348995 0.999391 -1571.8 1736.18)" fill="#500960" style="mix-blend-mode:normal;"/>
</g>
<g id="body" style="mix-blend-mode:normal;" figma:type="vector">
<use xlink:href="#path13_stroke" transform="matrix(0.956693 -0.2911 0.2911 0.956693 -1674.26 1783.28)" fill="#500960" style="mix-blend-mode:normal;"/>
</g>
<g id="branch" style="mix-blend-mode:normal;" figma:type="vector">
<use xlink:href="#path14_stroke" transform="matrix(0.544639 -0.838671 0.838671 0.544639 -1724.9 1654.48)" fill="#500960" style="mix-blend-mode:normal;"/>
</g>
<g id="front leg" style="mix-blend-mode:normal;" figma:type="vector">
<use xlink:href="#path15_stroke" transform="matrix(1 0 0 1 -1592.51 1727.71)" fill="#500960" style="mix-blend-mode:normal;"/>
</g>
<g id="Ellipse 10" style="mix-blend-mode:normal;" figma:type="vector">
<use xlink:href="#path16_stroke" transform="matrix(0.939693 -0.34202 0.34202 0.939693 -1682.51 1772.53)" fill="#500960" style="mix-blend-mode:normal;"/>
</g>
<g id="head" style="mix-blend-mode:normal;" figma:type="vector">
<use xlink:href="#path17_stroke" transform="matrix(0.939693 -0.34202 0.34202 0.939693 -1691.47 1765.01)" fill="#500960" style="mix-blend-mode:normal;"/>
</g>
<g id="Vector 13" style="mix-blend-mode:normal;" figma:type="vector">
<use xlink:href="#path18_stroke" transform="matrix(0.957315 -0.289046 0.289046 0.957315 -1635.72 1810.27)" fill="#794B39" style="mix-blend-mode:normal;"/>
</g>
<g id="Vector 13" style="mix-blend-mode:normal;" figma:type="vector">
<use xlink:href="#path19_stroke" transform="matrix(-0.0517924 -0.998658 -0.998658 0.0517924 -1581.04 1806.78)" fill="#794B39" style="mix-blend-mode:normal;"/>
</g>
<g id="Vector 13" style="mix-blend-mode:normal;" figma:type="vector">
<use xlink:href="#path20_stroke" transform="matrix(0.915549 -0.402207 0.402207 0.915549 -1625.75 1780.74)" fill="#500960" style="mix-blend-mode:normal;"/>
</g>
<g id="Vector 13" style="mix-blend-mode:normal;" figma:type="vector">
<use xlink:href="#path21_stroke" transform="matrix(0.836016 -0.548704 0.548704 0.836016 -1612.32 1820.26)" fill="#500960" style="mix-blend-mode:normal;"/>
</g>
<g id="Vector 13" style="mix-blend-mode:normal;" figma:type="vector">
<use xlink:href="#path22_stroke" transform="matrix(-0.303726 -0.952759 0.952759 -0.303726 -1573.75 1788.65)" fill="#500960" style="mix-blend-mode:normal;"/>
</g>
<g id="Vector 14" style="mix-blend-mode:normal;" figma:type="vector">
<use xlink:href="#path23_stroke" transform="matrix(0.957817 -0.287378 0.287378 0.957817 -1668 1674.64)" fill="#500960" style="mix-blend-mode:normal;"/>
</g>
<g id="Vector 14" style="mix-blend-mode:normal;" figma:type="vector">
<use xlink:href="#path23_stroke" transform="matrix(0.940443 -0.339951 0.339951 0.940443 -1663.22 1678.87)" fill="#500960" style="mix-blend-mode:normal;"/>
</g>
<g id="Vector 14" style="mix-blend-mode:normal;" figma:type="vector">
<use xlink:href="#path23_stroke" transform="matrix(0.905605 -0.424122 0.424122 0.905605 -1658.05 1684.33)" fill="#500960" style="mix-blend-mode:normal;"/>
</g>
</g>
</g>
</g>
<defs>
<filter id="filter0_d" filterUnits="userSpaceOnUse" x="-1687" y="1667" width="79" height="131" color-interpolation-filters="sRGB">
<feFlood flood-opacity="0" result="BackgroundImageFix"/>
<desc>type="dropShadow" x="0" y="4" size="4" spread="0" color="0,0,0,0.25" blend="normal"</desc>
<feColorMatrix in="SourceAlpha" type="matrix" values="0 0 0 0 0 0 0 0 0 0 0 0 0 0 0 0 0 0 255 0"/>
<feOffset dx="0" dy="4"/>
<feGaussianBlur stdDeviation="2"/>
<feColorMatrix type="matrix" values="0 0 0 0 0 0 0 0 0 0 0 0 0 0 0 0 0 0 0.25 0"/>
<feBlend mode="normal" in2="BackgroundImageFix" result="effect1_dropShadow"/>
<feBlend mode="normal" in="SourceGraphic" in2="effect1_dropShadow" result="shape"/>
</filter>
<filter id="filter1_d" filterUnits="userSpaceOnUse" x="-1597" y="1735" width="42" height="77" color-interpolation-filters="sRGB">
<feFlood flood-opacity="0" result="BackgroundImageFix"/>
<desc>type="dropShadow" x="0" y="4" size="4" spread="0" color="0,0,0,0.25" blend="normal"</desc>
<feColorMatrix in="SourceAlpha" type="matrix" values="0 0 0 0 0 0 0 0 0 0 0 0 0 0 0 0 0 0 255 0"/>
<feOffset dx="0" dy="4"/>
<feGaussianBlur stdDeviation="2"/>
<feColorMatrix type="matrix" values="0 0 0 0 0 0 0 0 0 0 0 0 0 0 0 0 0 0 0.25 0"/>
<feBlend mode="normal" in2="BackgroundImageFix" result="effect1_dropShadow"/>
<feBlend mode="normal" in="SourceGraphic" in2="effect1_dropShadow" result="shape"/>
</filter>
<filter id="filter2_d" filterUnits="userSpaceOnUse" x="-1688" y="1767" width="132" height="73" color-interpolation-filters="sRGB">
<feFlood flood-opacity="0" result="BackgroundImageFix"/>
<desc>type="dropShadow" x="0" y="4" size="4" spread="0" color="0,0,0,0.25" blend="normal"</desc>
<feColorMatrix in="SourceAlpha" type="matrix" values="0 0 0 0 0 0 0 0 0 0 0 0 0 0 0 0 0 0 255 0"/>
<feOffset dx="0" dy="4"/>
<feGaussianBlur stdDeviation="2"/>
<feColorMatrix type="matrix" values="0 0 0 0 0 0 0 0 0 0 0 0 0 0 0 0 0 0 0.25 0"/>
<feBlend mode="normal" in2="BackgroundImageFix" result="effect1_dropShadow"/>
<feBlend mode="normal" in="SourceGraphic" in2="effect1_dropShadow" result="shape"/>
</filter>
<filter id="filter3_d" filterUnits="userSpaceOnUse" x="-1730" y="1645" width="237" height="164" color-interpolation-filters="sRGB">
<feFlood flood-opacity="0" result="BackgroundImageFix"/>
<desc>type="dropShadow" x="0" y="4" size="4" spread="0" color="0,0,0,0.25" blend="normal"</desc>
<feColorMatrix in="SourceAlpha" type="matrix" values="0 0 0 0 0 0 0 0 0 0 0 0 0 0 0 0 0 0 255 0"/>
<feOffset dx="0" dy="4"/>
<feGaussianBlur stdDeviation="2"/>
<feColorMatrix type="matrix" values="0 0 0 0 0 0 0 0 0 0 0 0 0 0 0 0 0 0 0.25 0"/>
<feBlend mode="normal" in2="BackgroundImageFix" result="effect1_dropShadow"/>
<feBlend mode="normal" in="SourceGraphic" in2="effect1_dropShadow" result="shape"/>
</filter>
<linearGradient id="paint0_linear" x1="0" y1="0" x2="1" y2="0" gradientUnits="userSpaceOnUse" gradientTransform="matrix(22.2089 15.0005 -4.33274 6.41479 18.7808 67.9747)">
<stop offset="0" stop-color="#A88762"/>
<stop offset="1" stop-color="#7D6450"/>
</linearGradient>
<linearGradient id="paint1_linear" x1="0" y1="0" x2="1" y2="0" gradientUnits="userSpaceOnUse" gradientTransform="matrix(18.8478 14.0421 -7.1306 9.57092 20.5653 -4.78546)">
<stop offset="0" stop-color="#A88762"/>
<stop offset="0.972222" stop-color="#7D6450"/>
</linearGradient>
<linearGradient id="paint2_linear" x1="0" y1="0" x2="1" y2="0" gradientUnits="userSpaceOnUse" gradientTransform="matrix(3.23159e-15 70.3009 -118.089 7.79366e-15 118.089 2.49397e-13)">
<stop offset="0" stop-color="#A88762"/>
<stop offset="1" stop-color="#7D6450"/>
</linearGradient>
<linearGradient id="paint3_linear" x1="0" y1="0" x2="1" y2="0" gradientUnits="userSpaceOnUse" gradientTransform="matrix(-35.6119 -2.5092 -3.73707 53.0384 22.9417 86.7494)">
<stop offset="0" stop-color="#917458"/>
<stop offset="1" stop-color="#5D4B44"/>
</linearGradient>
<linearGradient id="paint4_linear" x1="0" y1="0" x2="1" y2="0" gradientUnits="userSpaceOnUse" gradientTransform="matrix(23.2062 11.0667 -4.70334 9.86264 10.9077 31.1876)">
<stop offset="0" stop-color="#A88762"/>
<stop offset="1" stop-color="#7D6450"/>
</linearGradient>
<linearGradient id="paint5_linear" x1="0" y1="0" x2="1" y2="0" gradientUnits="userSpaceOnUse" gradientTransform="matrix(-67.8012 26.935 -28.1878 -70.9548 56.6784 58.7411)">
<stop offset="0" stop-color="#A88762"/>
<stop offset="1" stop-color="#7D6450"/>
</linearGradient>
<linearGradient id="paint6_linear" x1="0" y1="0" x2="1" y2="0" gradientUnits="userSpaceOnUse" gradientTransform="matrix(2.03977e-15 26.8644 -33.3119 1.64497e-15 33.3119 -1.64497e-15)">
<stop offset="0" stop-color="#F6F4CC"/>
<stop offset="0.988889" stop-color="#F6F4CC" stop-opacity="0.55"/>
</linearGradient>
<linearGradient id="paint12_linear" x1="0" y1="0" x2="1" y2="0" gradientUnits="userSpaceOnUse" gradientTransform="matrix(5.2972e-16 4.8463 -8.65099 2.9675e-16 8.65099 -2.9675e-16)">
<stop offset="0" stop-color="#5D4B44"/>
<stop offset="1" stop-color="#2F2622"/>
</linearGradient>
<path id="path0_fill" d="M 18.6459 26.5555C 18.8697 19.077 29.0228 16.2438 32.9516 22.6111C 33.3154 23.2008 33.5847 23.8012 33.7559 24.4725C 35.7115 32.1435 47.7484 83.8346 30.0658 130.927C 28.6677 134.651 25.0341 137 21.0568 137C -16.6007 137 57.3873 137 19.6694 137C 11.4906 137 5.59362 126.936 7.88951 119.086C 15.3911 93.437 17.8527 53.0606 18.6459 26.5555Z"/>
<path id="path1_fill" d="M 13.2357 7.87543C 14.2669 3.27213 18.3532 0 23.0706 0C 28.5783 0 33.066 4.42121 33.1483 9.92825L 33.7723 51.7125C 33.8975 60.0938 27.1377 66.9553 18.7554 66.9553C 9.13674 66.9553 1.99739 58.0396 4.10015 48.6535L 13.2357 7.87543Z"/>
<path id="path2_fill" d="M 30.764 12.2561C 34.3716 3.21572 44.9354 -1.83002 55.1371 0.614455L 95.5533 10.2988C 113.053 14.492 120.695 31.1027 114.058 46.4551C 105.453 66.3626 81.9951 75.9507 60.8993 66.5863L 49.9682 61.734C 31.1644 53.387 2.70526 23.3857 0 0.998603L 30.764 12.2561Z"/>
<path id="path3_fill" d="M 0.0672609 5.93395C 0.0270422 4.45135 0.638502 3.07711 1.8474 2.21788C 4.54819 0.298293 9.24023 -2.22054 9.00503 3.65797C 8.67573 11.8884 8.11735 69.9112 9.00503 108.852C 9.82824 144.965 9.12462 251.579 9.01806 266.877C 9.00952 268.103 8.55895 269.223 7.65927 270.056C 5.15829 272.373 0.042346 276.192 0.0050359 268.713C -0.0443585 258.812 0.233165 218.348 2.48469 196.286C 4.58276 175.727 0.617522 26.2185 0.0672609 5.93395Z"/>
<path id="path4_fill" d="M 13.4853 8.07855C 14.3636 3.39438 18.4535 0 23.2193 0C 28.6407 0 33.0545 4.35895 33.1222 9.7799L 33.8059 64.4758C 33.9127 73.018 27.0175 80 18.4746 80C 8.8743 80 1.63543 71.2777 3.40466 61.8418L 13.4853 8.07855Z"/>
<path id="path5_fill" d="M 45 21.5C 45 33.3741 34.9264 43 22.5 43C 10.0736 43 0 33.3741 0 21.5C 0 9.62588 10.0736 0 22.5 0C 34.9264 0 45 9.62588 45 21.5Z"/>
<path id="path6_fill" d="M 33.3119 12.2727C 33.3119 20.3315 25.8548 26.8644 16.6559 26.8644C 7.45712 26.8644 0 20.3315 0 12.2727C 0 5.34697 4.29831 -0.000173749 9.67119 -3.57172e-05C 12.8949 4.71017e-05 16.6559 3.03104 16.6559 3.03104C 16.6559 3.03104 18.8051 -3.57172e-05 23.6407 -3.57172e-05C 29.5509 -3.57172e-05 33.3119 5.34697 33.3119 12.2727Z"/>
<path id="path7_fill" fill-rule="evenodd" d="M 3.13621 13.5991C 1.59331 11.8389 0.498097 9.76161 0 7.49821C 2.3614 1.68631 6.45478 1.42099e-05 9.90856 0L 9.90848 5.61834C 2.7396 4.57534 2.88588 11.3117 3.13621 13.5991ZM 28.6103 14.6008C 29.034 12.48 29.7719 5.92777 22.8002 5.61827L 22.8003 4.63646e-05C 26.2491 -6.3153e-05 29.8832 4.45813 31.9272 6.96554C 32.19 7.28799 32.4265 7.57817 32.633 7.82246C 31.9953 10.4021 30.5789 12.7276 28.6103 14.6008Z"/>
<path id="path8_fill" d="M 6.03343 2.80915C 6.03343 4.36061 4.6828 5.61831 3.01671 5.61831C 1.35063 5.61831 0 4.36061 0 2.80915C 0 1.2577 1.35063 0 3.01671 0C 4.6828 0 6.03343 1.2577 6.03343 2.80915Z"/>
<path id="path9_fill" d="M 1.41998 0.663709C 1.41998 1.03027 1.1021 1.32742 0.709988 1.32742C 0.317873 1.32742 0 1.03027 0 0.663709C 0 0.297153 0.317873 0 0.709988 0C 1.1021 0 1.41998 0.297153 1.41998 0.663709Z"/>
<path id="path10_fill" d="M 0.587067 2.86518C -1.58636 0.286231 2.86816 0 4.32548 0C 5.78281 0 10.2375 0.28637 8.06381 2.86528C 5.92353 5.40454 2.89761 5.60683 0.587067 2.86518Z"/>
<path id="path11_stroke" d="M 22.398 6.04195L 20.4698 6.57305L 22.398 6.04195ZM 19.3612 106.151C 19.0288 107.204 19.6132 108.328 20.6666 108.66C 21.7199 108.993 22.8433 108.408 23.1757 107.355L 19.3612 106.151ZM -1.96044 87.9336C -2.17904 89.0163 -1.47853 90.0712 -0.395802 90.2898C 0.686921 90.5084 1.74185 89.8079 1.96044 88.7252L -1.96044 87.9336ZM 24.8573 30.527C 24.991 31.6234 25.9882 32.4039 27.0846 32.2702C 28.1811 32.1365 28.9616 31.1392 28.8279 30.0428L 24.8573 30.527ZM 30.0527 43.3736C 29.9846 42.2711 29.0357 41.4326 27.9332 41.5006C 26.8307 41.5687 25.9922 42.5176 26.0603 43.6201L 30.0527 43.3736ZM 9.2289 17.9068C 9.27364 16.8032 8.41521 15.8722 7.31155 15.8274C 6.20789 15.7827 5.27692 16.6411 5.23218 17.7448L 9.2289 17.9068ZM 5.88993 4.75111C 5.34719 5.71314 5.6871 6.933 6.64913 7.47574C 7.61116 8.01848 8.83102 7.67858 9.37376 6.71655L 5.88993 4.75111ZM 25.8966 97.512C 26.1534 96.4377 25.4907 95.3586 24.4164 95.1018C 23.3421 94.8449 22.263 95.5076 22.0062 96.5819L 25.8966 97.512ZM 24.4404 84.1002C 24.2731 85.192 25.0225 86.2128 26.1143 86.3801C 27.2062 86.5474 28.2269 85.798 28.3942 84.7062L 24.4404 84.1002ZM 4.30825 35.4508C 4.2371 36.5531 5.07299 37.5043 6.17527 37.5755C 7.27754 37.6466 8.22879 36.8107 8.29995 35.7085L 4.30825 35.4508ZM 7.41595 47.6642C 7.50828 46.5635 6.69084 45.5963 5.59014 45.504C 4.48943 45.4116 3.52228 46.2291 3.42995 47.3298L 7.41595 47.6642ZM 22.3858 5.99862L 20.4644 6.55394L 22.3858 5.99862ZM 20.4698 6.57305C 20.6038 7.05952 23.1293 16.3134 24.8573 30.527L 28.8279 30.0428C 27.0546 15.5438 24.4618 6.0029 24.3262 5.51084L 20.4698 6.57305ZM 9.37376 6.71655C 10.681 4.39943 11.9897 3.15977 13.1064 2.54886C 14.1876 1.95732 15.1973 1.89201 16.1197 2.12567C 18.1098 2.62982 19.9031 4.61161 20.4644 6.55394L 24.3072 5.4433C 23.4213 2.3783 20.6972 -0.841052 17.102 -1.75184C 15.2316 -2.22566 13.1817 -2.05188 11.1865 -0.96028C 9.22669 0.111941 7.4423 1.99948 5.88993 4.75111L 9.37376 6.71655ZM 22.0062 96.5819C 21.2407 99.7852 20.3695 102.957 19.3612 106.151L 23.1757 107.355C 24.206 104.089 25.115 100.78 25.8966 97.512L 22.0062 96.5819ZM 26.0603 43.6201C 26.8061 55.6787 26.6688 69.5931 24.4404 84.1002L 28.3942 84.7062C 30.6556 69.9171 30.8047 55.5757 30.0527 43.3736L 26.0603 43.6201ZM 8.29995 35.7085C 8.69999 29.5104 9.00208 23.5012 9.2289 17.9068L 5.23218 17.7448C 5.0062 23.3197 4.70656 29.2812 4.30825 35.4508L 8.29995 35.7085ZM 1.96044 88.7252C 4.5013 76.1321 6.23921 61.6876 7.41595 47.6642L 3.42995 47.3298C 2.25987 61.2816 0.552033 75.497 -1.96044 87.9336L 1.96044 88.7252ZM 24.3262 5.51084C 24.3202 5.48901 24.3134 5.46497 24.3072 5.4433L 20.4644 6.55394C 20.4673 6.56361 20.4672 6.56343 20.4698 6.57305L 24.3262 5.51084Z"/>
<path id="path12_stroke" d="M 5.14217 65.8177C 4.70991 66.8342 5.18352 68.0086 6.2 68.4409C 7.21648 68.8731 8.39091 68.3995 8.82317 67.383L 5.14217 65.8177ZM 7.26885 12.2357C 7.31789 13.3392 8.2522 14.194 9.35568 14.145C 10.4592 14.0959 11.3139 13.1616 11.2649 12.0581L 7.26885 12.2357ZM 11.8244 22.0447C 11.7538 20.9424 10.8029 20.1061 9.70058 20.1767C 8.59827 20.2474 7.76195 21.1983 7.8326 22.3006L 11.8244 22.0447ZM 8.48519 32.3217C 8.55157 33.4243 9.49919 34.2643 10.6018 34.1979C 11.7043 34.1316 12.5443 33.1839 12.478 32.0814L 8.48519 32.3217ZM 12.8192 39.1533C 12.7837 38.0493 11.8599 37.1831 10.7559 37.2187C 9.65189 37.2542 8.78574 38.178 8.82129 39.282L 12.8192 39.1533ZM 10.5066 52.2146L 12.4965 52.4156L 10.5066 52.2146ZM 10.8549 46.6814L 12.854 46.7395L 10.8549 46.6814ZM 9.14262 8.99835L 7.14379 9.06666L 9.14262 8.99835ZM 10.5066 52.2146L 8.51672 52.0136L 8.51672 52.0136L 10.5066 52.2146ZM 10.8549 46.6814L 8.85573 46.6233L 8.85573 46.6233L 10.8549 46.6814ZM 7.14379 9.06666C 7.18004 10.1273 7.22225 11.1871 7.26885 12.2357L 11.2649 12.0581C 11.2187 11.0188 11.1773 9.97937 11.1415 8.93004L 7.14379 9.06666ZM 7.8326 22.3006C 8.05536 25.776 8.29187 29.1099 8.48519 32.3217L 12.478 32.0814C 12.2833 28.8482 12.0463 25.5066 11.8244 22.0447L 7.8326 22.3006ZM 8.51672 52.0136C 8.0244 56.9229 7.03206 61.3948 5.14217 65.8177L 8.82317 67.383C 10.8405 62.6179 11.9733 57.5603 12.4965 52.4156L 8.51672 52.0136ZM 8.82129 39.282C 8.90303 41.8163 8.92539 44.2399 8.85573 46.6233L 12.854 46.7395C 12.9252 44.2798 12.9022 41.7336 12.8192 39.1533L 8.82129 39.282ZM 8.85573 46.6233C 8.80218 48.4735 8.69577 50.245 8.51672 52.0136L 12.4965 52.4156C 12.6829 50.5662 12.7982 48.6517 12.854 46.7395L 8.85573 46.6233ZM 7.46435e-07 2C 3.83904 2 7.00947 5.13612 7.14379 9.06666L 11.1415 8.93004C 10.9367 2.93915 6.08818 -2 7.46435e-07 -2L 7.46435e-07 2ZM 12.4965 52.4156L 12.4965 52.4156L 8.51672 52.0136L 8.51672 52.0136L 12.4965 52.4156ZM 8.85573 46.6233L 8.85573 46.6233L 12.854 46.7395L 12.854 46.7395L 8.85573 46.6233Z"/>
<path id="path13_stroke" d="M 46.1857 -1.94708C 45.1103 -2.1995 44.034 -1.53239 43.7815 -0.457044C 43.5291 0.618297 44.1962 1.69466 45.2716 1.94708L 46.1857 -1.94708ZM 106.486 46.6343C 106.924 45.6204 106.457 44.4432 105.443 44.0049C 104.429 43.5666 103.252 44.0332 102.814 45.0471L 106.486 46.6343ZM 51.4908 65.9718L 52.3023 64.1438L 52.3023 64.1438L 51.4908 65.9718ZM 1.73567 22.0871C 1.18686 21.1286 -0.0351205 20.7964 -0.993705 21.3452C -1.95229 21.894 -2.28448 23.116 -1.73567 24.0745L 1.73567 22.0871ZM 82.3566 10.6522C 83.4319 10.9046 84.5083 10.2375 84.7607 9.16213C 85.0131 8.08679 84.346 7.01043 83.2707 6.75801L 82.3566 10.6522ZM 36.1403 61.2037C 37.1194 61.715 38.3276 61.3358 38.8389 60.3567C 39.3502 59.3776 38.971 58.1694 37.9919 57.6581L 36.1403 61.2037ZM 45.6681 61.1989C 44.6585 60.7508 43.4768 61.2059 43.0287 62.2155C 42.5805 63.225 43.0357 64.4068 44.0452 64.8549L 45.6681 61.1989ZM 102.814 45.0471C 94.6533 63.9251 72.3902 73.0608 52.3023 64.1438L 50.6794 67.7998C 72.7832 77.6116 97.4349 67.5713 106.486 46.6343L 102.814 45.0471ZM 45.2716 1.94708L 82.3566 10.6522L 83.2707 6.75801L 46.1857 -1.94708L 45.2716 1.94708ZM 37.9919 57.6581C 23.4638 50.0996 9.58177 35.8235 1.73567 22.0871L -1.73567 24.0745C 6.38759 38.2313 21.0747 53.3077 36.1403 61.2037L 37.9919 57.6581ZM 52.3023 64.1438L 45.6681 61.1989L 44.0452 64.8549L 50.6794 67.7998L 52.3023 64.1438Z"/>
<path id="path14_stroke" d="M 11.0034 0.079956C 11.0476 -1.02373 10.1887 -1.95424 9.08499 -1.9984C 7.9813 -2.04256 7.05079 -1.18364 7.00663 -0.079956L 11.0034 0.079956ZM 7.65927 266.398L 9.01835 267.865L 7.65927 266.398ZM 0.0050359 265.055L 2.00501 265.045C 1.99952 263.945 1.10571 263.055 0.0050359 263.055L 0.0050359 265.055ZM 2.48469 192.628L 4.47436 192.831L 4.47436 192.831L 2.48469 192.628ZM 9.00503 105.194L 11.005 105.194C 11.005 105.179 11.0049 105.164 11.0045 105.149L 9.00503 105.194ZM 4.97288 184.609C 4.99976 183.504 4.12637 182.587 3.02213 182.561C 1.91789 182.534 1.00094 183.407 0.974067 184.511L 4.97288 184.609ZM 1.06334 155.896C 1.06941 157 1.96975 157.891 3.0743 157.885C 4.17886 157.879 5.06935 156.978 5.06328 155.874L 1.06334 155.896ZM 7.39428 154.757C 7.39559 155.861 8.29208 156.756 9.39665 156.754C 10.5012 156.753 11.3956 155.857 11.3943 154.752L 7.39428 154.757ZM 11.3898 177.415C 11.3913 176.311 10.4971 175.414 9.39257 175.412C 8.288 175.411 7.39132 176.305 7.38977 177.409L 11.3898 177.415ZM 3.06263 41.4178C 3.0362 40.3135 2.11959 39.4398 1.01534 39.4662C -0.0889122 39.4927 -0.962656 40.4093 -0.936219 41.5135L 3.06263 41.4178ZM 6.85452 7.19031C 6.82014 8.29435 7.68727 9.21721 8.79131 9.25159C 9.89534 9.28597 10.8182 8.41884 10.8526 7.31481L 6.85452 7.19031ZM 10.6715 21.1566C 10.6816 20.052 9.79442 19.1485 8.68989 19.1384C 7.58537 19.1283 6.68179 20.0155 6.67169 21.12L 10.6715 21.1566ZM 4.1237 89.7677C 4.10199 88.6633 3.18913 87.7857 2.08478 87.8074C 0.980419 87.8291 0.102763 88.742 0.124474 89.8463L 4.1237 89.7677ZM -0.0397856 81.674C -0.0171187 82.7783 0.896498 83.6552 2.00084 83.6325C 3.10517 83.6099 3.98204 82.6962 3.95937 81.5919L -0.0397856 81.674ZM 11.3626 140.938C 11.3586 139.833 10.46 138.941 9.35548 138.945C 8.25092 138.949 7.35867 139.848 7.36259 140.952L 11.3626 140.938ZM 7.25086 122.23C 7.26086 123.335 8.16437 124.222 9.26889 124.212C 10.3734 124.202 11.2607 123.298 11.2507 122.194L 7.25086 122.23ZM 2.11449 247.596C 2.12949 246.492 1.2463 245.584 0.141832 245.569C -0.962635 245.554 -1.87014 246.437 -1.88514 247.542L 2.11449 247.596ZM -1.46749 227.77C -1.49992 228.874 -0.631158 229.795 0.472935 229.828C 1.57703 229.86 2.49836 228.991 2.53078 227.887L -1.46749 227.77ZM 0.0050359 265.055L -1.99494 265.065C -1.98945 266.166 -1.09564 267.055 0.0050359 267.055L 0.0050359 265.055ZM 2.48469 192.628L 0.495026 192.425L 0.495026 192.425L 2.48469 192.628ZM 9.00503 105.194L 7.00503 105.194C 7.00503 105.209 7.0052 105.225 7.00555 105.24L 9.00503 105.194ZM 6.30019 264.931C 5.70505 265.483 5.03121 266.061 4.28706 266.565C 3.53215 267.079 2.92604 267.359 2.52749 267.437C 2.31567 267.487 2.27681 267.417 2.34323 267.458C 2.41483 267.456 2.47118 267.594 2.42914 267.5C 2.33453 267.381 2.01369 266.785 2.00501 265.045L -1.99494 265.065C -1.98496 267.065 -1.65231 268.796 -0.699041 269.993C 0.416673 271.393 1.98519 271.616 3.28906 271.364C 4.48679 271.131 5.63093 270.49 6.53983 269.87C 7.45948 269.24 8.363 268.472 9.01835 267.865L 6.30019 264.931ZM 4.47436 192.831C 4.67356 190.879 4.87215 188.702 4.97288 184.609L 0.974067 184.511C 0.878856 188.47 0.692206 190.493 0.495026 192.425L 4.47436 192.831ZM 7.38977 177.409C 7.33638 215.609 7.0803 254.269 7.01852 263.147L 11.0184 263.175C 11.0802 254.296 11.3363 215.625 11.3898 177.415L 7.38977 177.409ZM 7.00663 -0.079956C 7.00137 0.0538502 6.96537 1.81067 6.92983 3.55735C 6.91205 4.43069 6.89428 5.30609 6.88035 5.98212C 6.86643 6.6579 6.85244 7.25627 6.85452 7.19031L 10.8526 7.31481C 10.8576 7.15203 10.8935 5.38524 10.929 3.63873C 10.9645 1.89223 11.0073 -0.0147674 11.0034 0.079956L 7.00663 -0.079956ZM 6.67169 21.12C 6.4661 43.6068 6.40329 78.8129 7.00555 105.24L 11.0045 105.149C 10.4031 78.7709 10.466 43.6286 10.6715 21.1566L 6.67169 21.12ZM 5.06328 155.874C 4.95832 136.792 4.5801 112.982 4.1237 89.7677L 0.124474 89.8463C 0.580728 113.054 0.958548 136.834 1.06334 155.896L 5.06328 155.874ZM 3.95937 81.5919C 3.66625 67.3111 3.35177 53.4952 3.06263 41.4178L -0.936219 41.5135C -0.647138 53.5886 -0.332813 67.3976 -0.0397856 81.674L 3.95937 81.5919ZM 7.36259 140.952C 7.37838 145.403 7.38866 150.026 7.39428 154.757L 11.3943 154.752C 11.3887 150.019 11.3784 145.392 11.3626 140.938L 7.36259 140.952ZM 7.00555 105.24C 7.11087 109.859 7.19109 115.631 7.25086 122.23L 11.2507 122.194C 11.1908 115.586 11.1102 109.786 11.0045 105.149L 7.00555 105.24ZM 2.00501 265.045C 1.9891 261.858 2.00713 255.5 2.11449 247.596L -1.88514 247.542C -1.99273 255.467 -2.0109 261.862 -1.99494 265.065L 2.00501 265.045ZM 2.53078 227.887C 2.89816 215.375 3.49996 202.371 4.47436 192.831L 0.495026 192.425C -0.489089 202.075 -1.09898 215.224 -1.46749 227.77L 2.53078 227.887ZM 9.01835 267.865C 10.3773 266.607 11.0066 264.875 11.0184 263.175L 7.01852 263.147C 7.01328 263.9 6.74058 264.523 6.30019 264.931L 9.01835 267.865ZM 0.0050359 263.055L 0.0050359 263.055L 0.0050359 267.055L 0.0050359 267.055L 0.0050359 263.055ZM 0.495026 192.425L 0.495026 192.425L 4.47436 192.831L 4.47436 192.831L 0.495026 192.425ZM 7.00503 105.194L 7.00503 105.194L 11.005 105.194L 11.005 105.194L 7.00503 105.194Z"/>
<path id="path15_stroke" d="M 7.84463 0.218373L 8.26046 2.17467L 7.84463 0.218373ZM 31.6052 61.0842L 29.6542 61.5244L 31.6052 61.0842ZM 19.4207 77.5004C 18.3403 77.73 17.6506 78.7921 17.8802 79.8725C 18.1099 80.9529 19.1719 81.6426 20.2523 81.413L 19.4207 77.5004ZM 0.00290894 10.1442L -1.99651 10.1924L 0.00290894 10.1442ZM 19.5645 7.72563L 21.5154 7.28539L 19.5645 7.72563ZM -0.678826 64.8767C -0.652218 65.9809 0.264523 66.8545 1.36877 66.8279C 2.47302 66.8013 3.34662 65.8846 3.32001 64.7803L -0.678826 64.8767ZM 3.29506 63.7446C 3.26845 62.6404 2.35171 61.7668 1.24746 61.7934C 0.14321 61.82 -0.730391 62.7367 -0.703783 63.841L 3.29506 63.7446ZM -0.884504 56.341C -0.857896 57.4452 0.0588447 58.3188 1.16309 58.2922C 2.26734 58.2656 3.14094 57.3489 3.11433 56.2446L -0.884504 56.341ZM 2.52398 31.7446C 2.49737 30.6404 1.58063 29.7668 0.47638 29.7934C -0.627869 29.82 -1.50147 30.7367 -1.47486 31.841L 2.52398 31.7446ZM -1.73569 21.0167C -1.70908 22.1209 -0.792337 22.9945 0.311912 22.9679C 1.41616 22.9413 2.28976 22.0246 2.26315 20.9203L -1.73569 21.0167ZM 17.6136 8.16587L 29.6542 61.5244L 33.5561 60.6439L 21.5154 7.28539L 17.6136 8.16587ZM 7.42881 -1.73792C 1.82575 -0.546955 -2.1345 4.46582 -1.99651 10.1924L 2.00233 10.096C 1.91071 6.29377 4.54019 2.96543 8.26046 2.17467L 7.42881 -1.73792ZM 8.26046 2.17467C 12.4925 1.27513 16.6612 3.94544 17.6136 8.16587L 21.5154 7.28539C 20.0811 0.929018 13.8026 -3.09271 7.42881 -1.73792L 8.26046 2.17467ZM 29.6542 61.5244C 31.2894 68.7707 26.6869 75.9559 19.4207 77.5004L 20.2523 81.413C 29.6985 79.4051 35.6819 70.0643 33.5561 60.6439L 29.6542 61.5244ZM 3.32001 64.7803L 3.29506 63.7446L -0.703783 63.841L -0.678826 64.8767L 3.32001 64.7803ZM 3.11433 56.2446L 2.52398 31.7446L -1.47486 31.841L -0.884504 56.341L 3.11433 56.2446ZM 2.26315 20.9203L 2.00233 10.096L -1.99651 10.1924L -1.73569 21.0167L 2.26315 20.9203Z"/>
<path id="path16_stroke" d="M 32.3119 12.2727C 32.3119 12.825 32.7596 13.2727 33.3119 13.2727C 33.8642 13.2727 34.3119 12.825 34.3119 12.2727L 32.3119 12.2727ZM 16.6559 27.8645C 17.2082 27.8645 17.6559 27.4167 17.6559 26.8645C 17.6559 26.3122 17.2082 25.8645 16.6559 25.8645L 16.6559 27.8645ZM 16.6559 3.03108L 16.0285 3.8097C 16.2433 3.98283 16.5201 4.05951 16.7934 4.02159C 17.0666 3.98368 17.3121 3.83455 17.4717 3.60948L 16.6559 3.03108ZM 9.67117 1C 10.2235 1.00001 10.6712 0.55231 10.6712 2.5693e-05C 10.6712 -0.552259 10.2235 -0.999986 9.67122 -1L 9.67117 1ZM 13.4214 -0.0838741C 12.9166 -0.30785 12.3257 -0.0801731 12.1018 0.424657C 11.8778 0.929487 12.1055 1.5203 12.6103 1.74428L 13.4214 -0.0838741ZM 3.25878 4.62236C 3.57727 4.17116 3.46969 3.5472 3.01848 3.22871C 2.56728 2.91022 1.94332 3.01781 1.62483 3.46901L 3.25878 4.62236ZM 8.97569 -0.973261C 8.42504 -0.930756 8.01311 -0.449912 8.05561 0.100735C 8.09812 0.651382 8.57896 1.06331 9.12961 1.02081L 8.97569 -0.973261ZM 16.6559 25.8645C 7.88101 25.8645 1 19.659 1 12.2727L -1 12.2727C -1 21.004 7.03323 27.8645 16.6559 27.8645L 16.6559 25.8645ZM 16.6559 3.03108C 17.4717 3.60948 17.4714 3.60989 17.4711 3.61029C 17.471 3.61041 17.4708 3.6108 17.4706 3.61104C 17.4707 3.61085 17.4694 3.61271 17.4697 3.61232C 17.4698 3.61212 17.4681 3.61451 17.4684 3.6141C 17.4682 3.61441 17.4677 3.61506 17.4681 3.6145C 17.4706 3.6111 17.4717 3.60964 17.4766 3.60324C 17.4898 3.58585 17.5037 3.56795 17.5299 3.5363C 17.5896 3.46362 17.6646 3.37675 17.7833 3.25555C 18.0377 2.99387 18.3773 2.68435 18.888 2.34873C 19.8884 1.68475 21.4451 1 23.6407 1L 23.6407 -1C 21.0007 -1 19.065 -0.169214 17.782 0.68235C 17.1509 1.1045 16.651 1.55274 16.3513 1.8594C 16.193 2.02236 16.0623 2.17229 15.9856 2.26538C 15.9435 2.3166 15.9066 2.36383 15.8859 2.39084C 15.8739 2.40664 15.8623 2.4222 15.8564 2.43027C 15.8526 2.43544 15.8485 2.44107 15.8466 2.44367C 15.8453 2.44554 15.8437 2.4478 15.843 2.44873C 15.8425 2.44948 15.8418 2.45047 15.8415 2.45085C 15.8413 2.45118 15.8409 2.45163 15.8408 2.4518C 15.8405 2.45224 15.8402 2.45268 16.6559 3.03108ZM 23.6407 1C 28.7635 1 32.3119 5.63037 32.3119 12.2727L 34.3119 12.2727C 34.3119 5.06364 30.3382 -1 23.6407 -1L 23.6407 1ZM 12.6103 1.74428C 13.5648 2.16557 14.4011 2.67324 15.0398 3.09926C 15.3535 3.3082 15.598 3.48429 15.775 3.61591C 15.861 3.67978 15.9238 3.72791 15.9693 3.76328C 15.9909 3.78002 16.0056 3.79156 16.0167 3.80037C 16.0217 3.80432 16.0246 3.80663 16.0272 3.80866C 16.0281 3.80945 16.0285 3.80971 16.029 3.81011C 16.0291 3.8102 16.0291 3.81019 16.029 3.81014C 16.029 3.81017 16.0288 3.80996 16.0288 3.80998C 16.0288 3.80994 16.0287 3.80988 16.0286 3.80986C 16.0286 3.80978 16.0285 3.8097 16.6559 3.03108C 17.2834 2.25246 17.2833 2.25237 17.2832 2.25227C 17.2832 2.25223 17.283 2.25214 17.2829 2.25206C 17.2828 2.25196 17.2825 2.25173 17.2823 2.25154C 17.282 2.25127 17.2812 2.25069 17.2806 2.25015C 17.2795 2.2493 17.2775 2.24767 17.2753 2.24596C 17.2716 2.24301 17.2652 2.23789 17.2579 2.23208C 17.2443 2.22136 17.2222 2.20401 17.1957 2.18336C 17.1449 2.14394 17.0655 2.08322 16.9682 2.01086C 16.7788 1.87004 16.4924 1.66416 16.149 1.43506C 15.4733 0.984988 14.4896 0.392219 13.4214 -0.0838741L 12.6103 1.74428ZM 1 12.2727C 0.98796 9.22257 1.81529 6.64737 3.25878 4.62236L 1.62483 3.46901C 0.0255466 5.75471 -0.98796 8.91315 -1 12.2727L 1 12.2727ZM 9.12961 1.02081C 9.31496 1.00632 9.48271 0.999807 9.67117 1L 9.67122 -1C 9.44398 -0.999818 9.19923 -0.990333 8.97569 -0.973261L 9.12961 1.02081Z"/>
<path id="path17_stroke" d="M 45 21.5L 47 21.5C 47 21.4551 46.9985 21.4102 46.9955 21.3653L 45 21.5ZM 44.2873 16.1108L 46.2181 15.5893L 44.2873 16.1108ZM 34.9141 37.0189C 34.0199 37.6672 33.8206 38.9178 34.4689 39.812C 35.1173 40.7063 36.3679 40.9056 37.2621 40.2572L 34.9141 37.0189ZM 11.4297 42.4697C 12.4229 42.9529 13.6199 42.5395 14.1031 41.5463C 14.5864 40.553 14.173 39.3561 13.1797 38.8728L 11.4297 42.4697ZM 38.7471 39.0904C 39.5886 38.3749 39.6907 37.1127 38.9751 36.2712C 38.2596 35.4297 36.9974 35.3276 36.1559 36.0431L 38.7471 39.0904ZM 40.4906 30.856C 39.9392 31.813 40.268 33.0359 41.2251 33.5874C 42.1822 34.1388 43.405 33.81 43.9565 32.8529L 40.4906 30.856ZM 11.5605 5.00574C 12.507 4.43636 12.8128 3.20749 12.2434 2.26098C 11.674 1.31447 10.4451 1.00873 9.49863 1.57811L 11.5605 5.00574ZM 8.91064 1.94314C 7.98047 2.53884 7.70933 3.7758 8.30503 4.70597C 8.90074 5.63614 10.1377 5.90728 11.0679 5.31158L 8.91064 1.94314ZM 7.16357 8.56098C 7.91717 7.75341 7.87343 6.48784 7.06586 5.73424C 6.2583 4.98064 4.99272 5.02438 4.23912 5.83195L 7.16357 8.56098ZM 16.5047 -1.29094C 15.431 -1.03184 14.7705 0.04864 15.0296 1.12239C 15.2887 2.19615 16.3692 2.85656 17.443 2.59747L 16.5047 -1.29094ZM 22.5 2C 32.108 2 40.0978 8.27034 42.3565 16.6324L 46.2181 15.5893C 43.4711 5.41951 33.8495 -2 22.5 -2L 22.5 2ZM 42.3565 16.6324C 42.5589 17.3647 42.7121 18.5558 42.8293 19.6621C 42.8875 20.2111 42.9309 20.6998 42.9608 21.064C 42.9756 21.2437 42.9864 21.3857 42.9939 21.4868C 42.9976 21.5363 43.0002 21.5731 43.0021 21.5993C 43.003 21.6118 43.0036 21.6206 43.004 21.6271C 43.0042 21.6301 43.0044 21.632 43.0045 21.6335C 43.0045 21.6341 43.0045 21.6344 43.0045 21.6347C 43.0046 21.6348 43.0046 21.6349 43.0046 21.6349C 43.0046 21.6349 43.0045 21.6348 43.0045 21.6348C 43.0045 21.6347 43.0045 21.6347 45 21.5C 46.9955 21.3653 46.9955 21.3652 46.9954 21.3651C 46.9954 21.365 46.9954 21.3649 46.9954 21.3648C 46.9954 21.3646 46.9954 21.3643 46.9954 21.3639C 46.9953 21.3634 46.9953 21.3623 46.9952 21.3612C 46.995 21.3592 46.9948 21.3557 46.9945 21.3517C 46.994 21.3442 46.9932 21.3322 46.9921 21.3175C 46.9901 21.2891 46.987 21.2455 46.983 21.1914C 46.9751 21.0852 46.963 20.9272 46.9473 20.7363C 46.9163 20.3591 46.8687 19.8234 46.807 19.2404C 46.6841 18.0827 46.481 16.5792 46.2181 15.5893L 42.3565 16.6324ZM 13.1797 38.8728C 6.50519 35.6254 2 29.0373 2 21.5L -2 21.5C -2 30.6973 3.49895 38.611 11.4297 42.4697L 13.1797 38.8728ZM 36.1559 36.0431C 35.7462 36.392 35.3522 36.7016 34.9141 37.0189L 37.2621 40.2572C 37.7624 39.894 38.278 39.4888 38.7471 39.0904L 36.1559 36.0431ZM 43 21.5C 43.0193 24.9769 42.1513 28.0037 40.4906 30.856L 43.9565 32.8529C 45.8351 29.5625 46.9807 25.5309 47 21.5L 43 21.5ZM 11.0679 5.31158C 11.2344 5.20489 11.3906 5.10786 11.5605 5.00574L 9.49863 1.57811C 9.30474 1.6948 9.10078 1.82142 8.91064 1.94314L 11.0679 5.31158ZM 2 21.5C 1.9589 16.4112 3.82968 12.0902 7.16357 8.56098L 4.23912 5.83195C 0.480543 9.9031 -1.9589 15.6045 -2 21.5L 2 21.5ZM 17.443 2.59747C 19.0986 2.19458 20.715 1.99629 22.5 2L 22.5 -2C 20.4715 -1.99629 18.3852 -1.7413 16.5047 -1.29094L 17.443 2.59747Z"/>
<path id="path18_stroke" d="M 0 1.80574L -0.0148749 0.805852C -0.460489 0.812482 -0.847934 1.11319 -0.964928 1.54323C -1.08192 1.97326 -0.900223 2.42881 -0.519386 2.66028L 0 1.80574ZM 8.79545 4.28165L 9.24367 5.17557C 9.68593 4.95382 9.89956 4.44201 9.74619 3.97164C 9.59282 3.50128 9.11855 3.21377 8.63058 3.29533L 8.79545 4.28165ZM 3.70337 6.13852L 3.70336 5.13852C 3.26294 5.13852 2.87437 5.42667 2.74646 5.84811C 2.61856 6.26955 2.78144 6.72506 3.14758 6.96984L 3.70337 6.13852ZM 13.1266 10.2197C 13.6713 10.1287 14.0391 9.61328 13.9481 9.06855C 13.857 8.52382 13.3416 8.15604 12.7969 8.24708L 13.1266 10.2197ZM 5.10578 0.717419C 5.50199 0.332672 5.51129 -0.300425 5.12654 -0.696642C 4.7418 -1.09286 4.1087 -1.10216 3.71248 -0.717411L 5.10578 0.717419ZM -0.519386 2.66028C 0.361699 3.19498 1.91737 3.98538 3.60009 4.56263C 5.26714 5.13186 7.23233 5.55681 8.96032 5.26796L 8.63058 3.29533C 7.39589 3.50172 5.81203 3.20454 4.24637 2.66993C 2.69637 2.14333 1.33566 1.44815 0.519386 0.951202L -0.519386 2.66028ZM 8.34724 3.38772C 6.90351 4.11258 5.81396 4.54923 4.99889 4.81743C 4.60275 4.94843 4.30909 5.02755 4.06577 5.07999C 3.84359 5.12926 3.64808 5.13669 3.70336 5.13852L 3.70337 7.13852C 4.10209 7.13852 4.76061 7.00188 5.62512 6.71686C 6.4997 6.42799 7.72473 5.93621 9.24367 5.17557L 8.34724 3.38772ZM 3.14758 6.96984C 4.1033 7.60804 5.76969 8.55619 7.54652 9.26515C 9.29706 9.96103 11.3637 10.5144 13.1266 10.2197L 12.7969 8.24708C 11.5971 8.44762 9.96039 8.07249 8.28533 7.40662C 6.63657 6.75383 5.15511 5.90695 4.25916 5.30719L 3.14758 6.96984ZM 0.0148749 2.80563C 0.899618 2.79247 1.95967 2.4606 2.83841 2.08382C 3.71174 1.70935 4.60346 1.20519 5.10578 0.717419L 3.71248 -0.717411C 3.47452 -0.486338 2.8515 -0.0978911 2.05025 0.245668C 1.2544 0.58691 0.480024 0.79849 -0.0148749 0.805852L 0.0148749 2.80563Z"/>
<path id="path19_stroke" d="M 0 1.80574L -0.017917 0.805902C -0.447104 0.813593 -0.823505 1.09434 -0.953237 1.50352C -1.08297 1.9127 -0.937086 2.35903 -0.590735 2.61261L 0 1.80574ZM 7.30172 4.28165L 7.81871 5.13764C 8.23483 4.88631 8.40993 4.37214 8.23367 3.91909C 8.05742 3.46603 7.58089 3.20537 7.10432 3.30132L 7.30172 4.28165ZM 3.07442 6.13852L 3.07442 5.13852C 2.65033 5.13852 2.27236 5.40603 2.13133 5.80598C 1.9903 6.20594 2.1169 6.65136 2.4472 6.91736L 3.07442 6.13852ZM 10.9578 10.2137C 11.4992 10.1047 11.8498 9.57745 11.7408 9.03603C 11.6318 8.49461 11.1045 8.14407 10.5631 8.25307L 10.9578 10.2137ZM 4.42041 0.64982C 4.7793 0.230034 4.72993 -0.401204 4.31014 -0.760087C 3.89035 -1.11897 3.25912 -1.0696 2.90023 -0.649812L 4.42041 0.64982ZM -0.590735 2.61261C 0.147222 3.15186 1.46195 3.95579 2.87655 4.5411C 4.27133 5.1148 5.97273 5.56931 7.49911 5.26197L 7.10432 3.30132C 6.17117 3.48922 4.92626 3.22161 3.63734 2.69145C 2.36824 2.17292 1.26188 1.49127 0.590735 0.998876L -0.590735 2.61261ZM 6.78472 3.42566C 5.59541 4.14525 4.70887 4.57312 4.04077 4.83775C 3.42012 5.08816 2.98562 5.13316 3.07442 5.13852L 3.07442 7.13852C 3.46745 7.13852 4.05849 6.98266 4.77896 6.69653C 5.51355 6.4041 6.5485 5.90354 7.81871 5.13764L 6.78472 3.42566ZM 2.4472 6.91736C 3.24588 7.55963 4.6491 8.52072 6.13968 9.23781C 7.59595 9.93514 9.3894 10.5295 10.9578 10.2137L 10.5631 8.25307C 9.67195 8.43248 8.39099 8.09837 7.00344 7.43396C 5.65019 6.7893 4.44016 5.95536 3.70164 5.35968L 2.4472 6.91736ZM 0.017917 2.80558C 0.824387 2.79113 1.75241 2.43321 2.4881 2.05323C 3.22886 1.67063 3.99011 1.15314 4.42041 0.64982L 2.90023 -0.649812C 2.71598 -0.434287 2.21973 -0.0591698 1.5703 0.276256C 0.915808 0.614301 0.32095 0.79983 -0.017917 0.805902L 0.017917 2.80558Z"/>
<path id="path20_stroke" d="M 0.559874 -0.828578C 0.102263 -1.13779 -0.519368 -1.01748 -0.828578 -0.559874C -1.13779 -0.102263 -1.01748 0.519368 -0.559874 0.828578L 0.559874 -0.828578ZM 9.49999 2.97302L 9.98688 3.84649C 10.4148 3.60797 10.6069 3.09459 10.4407 2.63376C 10.2745 2.17293 9.79892 1.90035 9.31728 1.98985L 9.49999 2.97302ZM 4.00001 5.20271L 4.00001 4.20271C 3.56878 4.20271 3.18613 4.47915 3.05065 4.88854C 2.91517 5.29793 3.05738 5.74806 3.40348 6.0053L 4.00001 5.20271ZM 14.1827 9.90216C 14.7257 9.80127 15.0841 9.27929 14.9832 8.7363C 14.8823 8.19331 14.3603 7.83492 13.8173 7.93582L 14.1827 9.90216ZM -0.559874 0.828578C 0.389929 1.46942 2.06658 2.41647 3.88258 3.10896C 5.68077 3.79157 7.80872 4.30444 9.68269 3.95619L 9.31728 1.98985C 7.99125 2.23627 6.28586 1.88202 4.59239 1.23915C 2.91673 0.606155 1.4434 -0.230638 0.559874 -0.828578L -0.559874 0.828578ZM 9.0131 2.09956C 7.45247 2.97063 6.27408 3.49567 5.39337 3.81785C 4.96546 3.97517 4.64854 4.07011 4.38599 4.13301C 4.14689 4.19198 3.94212 4.20046 4.00001 4.20271L 4.00002 6.20271C 4.43568 6.20271 5.14953 6.03734 6.08165 5.69569C 7.02593 5.34897 8.34752 4.75917 9.98688 3.84649L 9.0131 2.09956ZM 3.40348 6.0053C 4.43364 6.77012 6.22888 7.90575 8.14579 8.75593C 10.0322 9.58962 12.2699 10.2576 14.1827 9.90216L 13.8173 7.93582C 12.5301 8.17501 10.7678 7.72808 8.95423 6.92661C 7.17114 6.14163 5.56638 5.12182 4.59654 4.40012L 3.40348 6.0053Z"/>
<path id="path21_stroke" d="M 0.418499 -0.908217C -0.0830957 -1.13935 -0.677087 -0.920093 -0.908217 -0.418499C -1.13935 0.0830957 -0.920093 0.677087 -0.418499 0.908217L 0.418499 -0.908217ZM 13.9308 2.97302L 14.2861 3.90776C 14.7596 3.72779 15.0237 3.22223 14.901 2.7308C 14.7783 2.23936 14.3075 1.91728 13.805 1.98096L 13.9308 2.97302ZM 5.86562 5.20271L 5.86561 4.20271C 5.40286 4.20271 5.00055 4.52022 4.893 4.9703C 4.78545 5.42038 5.00075 5.88547 5.41351 6.09468L 5.86562 5.20271ZM 20.6553 9.91106C 21.2032 9.84163 21.5911 9.34119 21.5217 8.79328C 21.4522 8.24538 20.9518 7.8575 20.4039 7.92692L 20.6553 9.91106ZM -0.418499 0.908217C 0.954621 1.54039 3.34782 2.46337 5.96323 3.14214C 8.57214 3.81623 11.571 4.27026 14.0565 3.96509L 13.805 1.98096C 11.598 2.27045 8.97572 1.85737 6.46446 1.20597C 3.9597 0.559265 1.73376 -0.301603 0.418499 -0.908217L -0.418499 0.908217ZM 13.5754 2.03828C 8.90252 3.81461 6.40642 4.20271 5.86561 4.20271L 5.86562 6.20271C 6.79121 6.20271 9.57412 5.69894 14.2861 3.90776L 13.5754 2.03828ZM 5.41351 6.09468C 6.90735 6.85132 9.48163 7.96293 12.2492 8.79873C 14.998 9.62716 18.0955 10.2354 20.6553 9.91106L 20.4039 7.92692C 18.2712 8.19716 15.5031 7.69054 12.8263 6.88381C 10.1681 6.08445 7.75667 5.04062 6.31772 4.31075L 5.41351 6.09468Z"/>
<path id="path22_stroke" d="M 0.556083 -0.831127C 0.0970644 -1.13824 -0.524011 -1.0151 -0.831127 -0.556083C -1.13824 -0.0970644 -1.0151 0.524011 -0.556083 0.831127L 0.556083 -0.831127ZM 8.67904 2.68944L 9.16227 3.56494C 9.59156 3.32799 9.78572 2.81473 9.62074 2.35298C 9.45576 1.89123 8.98031 1.61722 8.49807 1.70596L 8.67904 2.68944ZM 3.65435 4.70646L 3.65435 3.70646C 3.22225 3.70646 2.83903 3.98399 2.70425 4.39453C 2.56946 4.80506 2.7136 5.25574 3.06161 5.51186L 3.65435 4.70646ZM 12.9711 9.05176C 13.5143 8.95182 13.8736 8.43048 13.7737 7.88731C 13.6737 7.34415 13.1524 6.98484 12.6092 7.08477L 12.9711 9.05176ZM -0.556083 0.831127C 0.314455 1.41265 1.85466 2.2739 3.51945 2.90274C 5.16665 3.5219 7.12697 3.99183 8.86001 3.67293L 8.49807 1.70596C 7.30764 1.92501 5.76588 1.61052 4.22315 1.03063C 2.69802 0.460417 1.36044 -0.292024 0.556083 -0.831127L -0.556083 0.831127ZM 8.19581 1.81395C 6.7733 2.60023 5.70258 3.07257 4.90054 3.36305C 4.51187 3.50458 4.22667 3.58916 3.98889 3.64554C 3.77435 3.69807 3.60661 3.70425 3.65435 3.70646L 3.65435 5.70646C 4.06662 5.70646 4.72956 5.55275 5.58285 5.24306C 6.4481 4.92843 7.66133 4.39227 9.16227 3.56494L 8.19581 1.81395ZM 3.06161 5.51186C 4.00535 6.20556 5.65347 7.23771 7.41026 8.00947C 9.13703 8.7651 11.1997 9.37769 12.9711 9.05176L 12.6092 7.08477C 11.4572 7.29674 9.86554 6.90078 8.21205 6.17722C 6.58858 5.46978 5.13052 4.55208 4.24709 3.90107L 3.06161 5.51186Z"/>
<path id="path23_stroke" d="M 7.25243 0.963837C 7.78474 -0.00400387 7.43168 -1.22012 6.46384 -1.75243C 5.496 -2.28474 4.27988 -1.93168 3.74757 -0.963837L 7.25243 0.963837ZM -1.75243 9.03616C -2.28474 10.004 -1.93168 11.2201 -0.963837 11.7524C 0.00400387 12.2847 1.22012 11.9317 1.75243 10.9638L -1.75243 9.03616ZM 3.74757 -0.963837L -1.75243 9.03616L 1.75243 10.9638L 7.25243 0.963837L 3.74757 -0.963837Z"/>
</defs>
</svg>
