<svg width="226" height="66" viewBox="0 0 226 66" version="1.1" xmlns="http://www.w3.org/2000/svg" xmlns:xlink="http://www.w3.org/1999/xlink" xmlns:figma="http://www.figma.com/figma/ns">
<title>garbage</title>
<desc>Created using Figma</desc>
<g id="Canvas" transform="translate(1747 -1938)" figma:type="canvas">
<g id="garbage" style="mix-blend-mode:normal;" figma:type="frame">
<g id="spill" style="mix-blend-mode:normal;" figma:type="frame">
<g id="Union" style="mix-blend-mode:normal;" figma:type="vector-operation">
<use xlink:href="#path0_fill" transform="matrix(1 0 0 1 -1713.97 1942.23)" fill="#F6F4CC" style="mix-blend-mode:normal;"/>
</g>
<g id="Rectangle 6" style="mix-blend-mode:normal;" figma:type="rounded-rectangle">
<use xlink:href="#path1_fill" transform="matrix(1 0 0 1 -1746.02 1959.27)" fill="#F6F4CC" style="mix-blend-mode:normal;"/>
</g>
<g id="Rectangle 6" style="mix-blend-mode:normal;" figma:type="rounded-rectangle">
<use xlink:href="#path2_fill" transform="matrix(1 0 0 1 -1710.97 1976.32)" fill="#F6F4CC" style="mix-blend-mode:normal;"/>
</g>
</g>
<g id="can" style="mix-blend-mode:normal;" figma:type="frame">
<g id="fill" style="mix-blend-mode:normal;" figma:type="frame">
<g id="Ellipse 12" style="mix-blend-mode:normal;" figma:type="vector">
<use xlink:href="#path3_fill" transform="matrix(0.999983 -0.00577333 0.00577333 0.999983 -1627.16 1940.55)" fill="#C1C1C1" style="mix-blend-mode:normal;"/>
</g>
<g id="Vector" style="mix-blend-mode:normal;" figma:type="vector">
<use xlink:href="#path4_fill" transform="matrix(0.958691 -0.284449 0.284449 0.958691 -1617.17 1942.28)" fill="#2EE2D3" style="mix-blend-mode:normal;"/>
</g>
</g>
<g id="strokes" style="mix-blend-mode:normal;" figma:type="frame">
<g id="Ellipse 12" style="mix-blend-mode:normal;" figma:type="ellipse">
<use xlink:href="#path5_stroke" transform="matrix(0.999983 -0.00577333 0.00577333 0.999983 -1627.22 1940.55)" fill="#500960" style="mix-blend-mode:normal;"/>
</g>
<g id="Ellipse 12" style="mix-blend-mode:normal;" figma:type="vector">
<use xlink:href="#path6_stroke" transform="matrix(0.999983 -0.00577333 0.00577333 0.999983 -1623.48 1940.53)" fill="#500960" style="mix-blend-mode:normal;"/>
</g>
<g id="Ellipse 12" style="mix-blend-mode:normal;" figma:type="vector">
<use xlink:href="#path7_stroke" transform="matrix(0.999983 -0.00577333 0.00577333 0.999983 -1612.37 1940.86)" fill="#500960" style="mix-blend-mode:normal;"/>
</g>
<g id="Ellipse 12" style="mix-blend-mode:normal;" figma:type="vector">
<use xlink:href="#path7_stroke" transform="matrix(0.999983 -0.00577333 0.00577333 0.999983 -1607.15 1940.86)" fill="#500960" style="mix-blend-mode:normal;"/>
</g>
<g id="Ellipse 13" style="mix-blend-mode:normal;" figma:type="ellipse">
<use xlink:href="#path8_stroke" transform="matrix(0.998983 -0.0450885 0.0450885 0.998983 -1622.14 1948.53)" fill="#500960" style="mix-blend-mode:normal;"/>
</g>
</g>
</g>
<g id="Chips" style="mix-blend-mode:normal;" figma:type="frame">
<g id="fill" style="mix-blend-mode:normal;" figma:type="frame">
<g id="Vector 10" style="mix-blend-mode:normal;" figma:type="vector">
<use xlink:href="#path9_fill" transform="matrix(1 0 0 1 -1655 1967.88)" fill="#2EE2D3" style="mix-blend-mode:normal;"/>
</g>
<g id="Ellipse 14" style="mix-blend-mode:normal;" figma:type="ellipse">
<use xlink:href="#path10_fill" transform="matrix(1 0 0 1 -1639.12 1976.08)" fill="#FFFFFF" style="mix-blend-mode:normal;"/>
</g>
</g>
<g id="strokes" style="mix-blend-mode:normal;" figma:type="frame">
<g id="Vector 10" style="mix-blend-mode:normal;" figma:type="vector">
<use xlink:href="#path11_stroke" transform="matrix(1 0 0 1 -1655 1967.88)" fill="#500960" style="mix-blend-mode:normal;"/>
</g>
<g id="Vector 10" style="mix-blend-mode:normal;" figma:type="vector">
<use xlink:href="#path12_stroke" transform="matrix(1 0 0 1 -1615.31 1969.89)" fill="#500960" style="mix-blend-mode:normal;"/>
</g>
<g id="Vector 11" style="mix-blend-mode:normal;" figma:type="vector">
<use xlink:href="#path13_stroke" transform="matrix(1 0 0 1 -1634.79 1983.21)" fill="#500960" style="mix-blend-mode:normal;"/>
</g>
<g id="Vector 12" style="mix-blend-mode:normal;" figma:type="vector">
<use xlink:href="#path14_stroke" transform="matrix(1 0 0 1 -1634.07 1986.78)" fill="#500960" style="mix-blend-mode:normal;"/>
</g>
<g id="Ellipse 14" style="mix-blend-mode:normal;" figma:type="ellipse">
<mask id="mask0_outline_ins">
<use xlink:href="#path10_fill" fill="white" transform="matrix(1 0 0 1 -1639.12 1976.08)"/>
</mask>
<g mask="url(#mask0_outline_ins)">
<use xlink:href="#path15_stroke_2x" transform="matrix(1 0 0 1 -1639.12 1976.08)" fill="#500960" style="mix-blend-mode:normal;"/>
</g>
</g>
</g>
</g>
</g>
</g>
<defs>
<path id="path0_fill" fill-rule="evenodd" d="M 0 4.26099C 0 1.90771 1.90771 0 4.26099 0L 128.139 0C 130.493 0 132.4 1.90771 132.4 4.26099C 132.4 6.61426 130.493 8.52197 128.139 8.52197L 99.6184 8.52197C 97.2651 8.52197 95.3574 10.4297 95.3574 12.783C 95.3574 15.1362 97.2651 17.0438 99.6184 17.0438L 187.986 17.0438C 190.34 17.0438 192.247 18.9515 192.247 21.3048C 192.247 23.6581 190.34 25.5658 187.986 25.5658L 132.195 25.5658C 129.841 25.5658 127.934 27.4735 127.934 29.8268C 127.934 32.1801 129.841 34.0876 132.195 34.0876L 165.797 34.0876C 168.15 34.0876 170.058 35.9954 170.058 38.3486C 170.058 40.7019 168.15 42.6096 165.797 42.6096L 40.3074 42.6096C 37.9541 42.6096 36.0464 40.7019 36.0464 38.3486C 36.0464 35.9954 37.9541 34.0876 40.3074 34.0876L 59.4882 34.0876C 61.8414 34.0876 63.7491 32.1801 63.7491 29.8268C 63.7491 27.4735 61.8414 25.5658 59.4882 25.5658L 19.2803 25.5658C 16.927 25.5658 15.0193 23.6581 15.0193 21.3048C 15.0193 18.9515 16.927 17.0438 19.2803 17.0438L 71.952 17.0438C 74.3053 17.0438 76.213 15.1362 76.213 12.783C 76.213 10.4297 74.3053 8.52197 71.952 8.52197L 4.26099 8.52197C 1.90771 8.52197 0 6.61426 0 4.26099Z"/>
<path id="path1_fill" d="M 0 4.26096C 0 1.90769 1.90769 0 4.26096 0L 31.6098 0C 33.963 0 35.8707 1.90769 35.8707 4.26096L 35.8707 4.26096C 35.8707 6.61422 33.963 8.52191 31.6098 8.52191L 4.26096 8.52191C 1.90769 8.52191 0 6.61422 0 4.26096L 0 4.26096Z"/>
<path id="path2_fill" d="M 0 4.26096C 0 1.9077 1.9077 0 4.26096 0L 20.5261 0C 22.8794 0 24.7871 1.9077 24.7871 4.26096L 24.7871 4.26096C 24.7871 6.61422 22.8794 8.52191 20.5261 8.52191L 4.26096 8.52191C 1.9077 8.52191 0 6.61422 0 4.26096L 0 4.26096Z"/>
<path id="path3_fill" d="M 30.3107 17.9934C 32.5823 17.9934 34.4239 13.9755 34.4239 9.01922C 34.4239 4.0629 32.5823 0.045014 30.3107 0.045014L 4.42752 0C 4.42752 0 0.304559 0.69139 0.00965463 8.84544C -0.218704 15.1595 3.67967 17.9484 3.67967 17.9484L 30.3107 17.9934Z"/>
<path id="path4_fill" d="M 0 17.2362C 2.1815 17.8697 5.07058 14.5249 6.45295 9.76529C 7.8307 5.02154 7.19179 0.662774 5.02778 0.00646916L 5.00599 0C 5.01327 0.00211478 5.02053 0.00427121 5.02778 0.00646916L 10.0119 1.486C 12.1934 2.11958 12.8413 6.49165 11.4589 11.2513C 10.0765 16.0109 7.18745 19.3557 5.00595 18.7222L 0 17.2362Z"/>
<path id="path5_stroke" d="M 6.22635 8.9742C 6.23659 11.2503 5.86505 13.0742 5.2035 14.4866C 4.5241 15.9689 3.99126 15.9484 4.11318 15.9484L 4.11318 19.9484C 6.50674 19.9484 8.03048 17.9189 8.83976 16.1532C 9.66689 14.3176 10.2161 11.6544 10.2264 8.9742L 6.22635 8.9742ZM 4.11318 15.9484C 4.23509 15.9484 3.70225 15.9689 3.02285 14.4866C 2.36131 13.0742 1.98977 11.2503 2 8.9742L -2 8.9742C -1.98977 11.6544 -1.44054 14.3176 -0.613408 16.1532C 0.19587 17.9189 1.71961 19.9484 4.11318 19.9484L 4.11318 15.9484ZM 2 8.9742C 1.98977 6.69809 2.36131 4.87418 3.02285 3.46179C 3.70225 1.97947 4.23509 2 4.11318 2L 4.11318 -2C 1.71961 -2 0.19587 0.029477 -0.613408 1.79517C -1.44054 3.63081 -1.98977 6.294 -2 8.9742L 2 8.9742ZM 4.11318 2C 3.99126 2 4.5241 1.97947 5.2035 3.46179C 5.86505 4.87418 6.23659 6.69809 6.22635 8.9742L 10.2264 8.9742C 10.2161 6.294 9.66689 3.63081 8.83976 1.79517C 8.03048 0.029477 6.50674 -2 4.11318 -2L 4.11318 2Z"/>
<path id="path6_stroke" d="M 26.631 17.9934L 26.6276 19.9934L 26.631 19.9934L 26.631 17.9934ZM 26.631 0.045014L 26.6275 2.04501L 26.631 2.04501L 26.631 0.045014ZM 0.00338052 15.9484C -1.10119 15.9465 -1.99813 16.8405 -2 17.945C -2.00186 19.0496 -1.10795 19.9465 -0.00338052 19.9484L 0.00338052 15.9484ZM 0.751329 -2C -0.353239 -2.00192 -1.25023 -1.10805 -1.25215 -0.00347824C -1.25407 1.10109 -0.360196 1.99808 0.744372 2L 0.751329 -2ZM 28.7442 9.01922C 28.7544 11.2953 28.3829 13.1192 27.7213 14.5316C 27.0419 16.014 26.5091 15.9934 26.631 15.9934L 26.631 19.9934C 29.0246 19.9934 30.5483 17.9639 31.3576 16.1982C 32.1847 14.3626 32.734 11.6994 32.7442 9.01922L 28.7442 9.01922ZM 26.631 2.04501C 26.5091 2.04501 27.0419 2.02448 27.7213 3.50681C 28.3829 4.91919 28.7544 6.74311 28.7442 9.01922L 32.7442 9.01922C 32.734 6.33901 32.1847 3.67583 31.3576 1.84019C 30.5483 0.0744913 29.0246 -1.95499 26.631 -1.95499L 26.631 2.04501ZM 26.6344 15.9934L 0.00338052 15.9484L -0.00338052 19.9484L 26.6276 19.9934L 26.6344 15.9934ZM 26.6345 -1.95498L 0.751329 -2L 0.744372 2L 26.6275 2.04501L 26.6345 -1.95498Z"/>
<path id="path7_stroke" d="M 0 16.9484C -0.552285 16.9484 -1 17.3961 -1 17.9484C -1 18.5007 -0.552285 18.9484 0 18.9484L 0 16.9484ZM 0 -1C -0.552285 -1 -1 -0.552285 -1 0C -1 0.552285 -0.552285 1 0 1L 0 -1ZM 3.11318 8.9742C 3.11829 11.3513 2.70233 13.3851 1.99939 14.9033C 1.28752 16.4564 0.506952 16.9484 0 16.9484L 0 18.9484C 1.76469 18.9484 3.04071 17.4314 3.81752 15.7366C 4.60326 14.0068 5.10806 11.5534 5.11318 8.9742L 3.11318 8.9742ZM 0 1C 0.506952 1 1.28752 1.49197 1.99939 3.04514C 2.70233 4.56334 3.11829 6.59707 3.11318 8.9742L 5.11318 8.9742C 5.10806 6.39502 4.60326 3.94165 3.81752 2.21183C 3.04071 0.516975 1.76469 -1 0 -1L 0 1Z"/>
<path id="path8_stroke" d="M 0.805728 1.05215C 0.805728 0.572036 1.06986 0.289865 1.19484 0.196129C 1.31921 0.102853 1.39936 0.104296 1.40286 0.104296L 1.40286 4.1043C 2.18115 4.1043 2.96273 3.87021 3.59484 3.39613C 4.22756 2.92159 4.80573 2.11335 4.80573 1.05215L 0.805728 1.05215ZM 1.40286 0.104296C 1.40637 0.104296 1.48652 0.102853 1.61089 0.196129C 1.73587 0.289865 2 0.572036 2 1.05215L -2 1.05215C -2 2.11335 -1.42183 2.92159 -0.789111 3.39613C -0.157006 3.87021 0.624578 4.1043 1.40286 4.1043L 1.40286 0.104296ZM 2 1.05215C 2 1.53226 1.73587 1.81443 1.61089 1.90817C 1.48652 2.00144 1.40637 2 1.40286 2L 1.40286 -2C 0.624578 -2 -0.157006 -1.76591 -0.789111 -1.29183C -1.42183 -0.817294 -2 -0.00904968 -2 1.05215L 2 1.05215ZM 1.40286 2C 1.39936 2 1.31921 2.00144 1.19484 1.90817C 1.06986 1.81443 0.805728 1.53226 0.805728 1.05215L 4.80573 1.05215C 4.80573 -0.00904968 4.22756 -0.817294 3.59484 -1.29183C 2.96273 -1.76591 2.18115 -2 1.40286 -2L 1.40286 2Z"/>
<path id="path9_fill" d="M 16.5979 3.20869C 5.7732 4.9913 0 15.3304 0 15.3304L 20.2062 30.6608C 20.2062 30.6608 29.3969 36.3264 39.5 33.1177C 49.6031 29.909 58.8144 21.7478 70 15.3304L 45.4639 0C 33.1959 5.34782 27.4227 1.42608 16.5979 3.20869Z"/>
<path id="path10_fill" d="M 22.3711 3.56521C 22.3711 5.53422 17.3632 7.13042 11.1856 7.13042C 5.00795 7.13042 0 5.53422 0 3.56521C 0 1.5962 5.00795 0 11.1856 0C 17.3632 0 22.3711 1.5962 22.3711 3.56521Z"/>
<path id="path11_stroke" d="M 0 15.3304L -1.74621 14.3553C -2.23223 15.2258 -2.00305 16.3212 -1.20885 16.9237L 0 15.3304ZM 45.4639 0L 46.5237 -1.69614C 45.9645 -2.04551 45.2691 -2.09685 44.6647 -1.83338L 45.4639 0ZM 70 15.3304L 70.9953 17.0652C 71.6051 16.7153 71.9864 16.0709 71.9996 15.368C 72.0129 14.6651 71.656 14.0068 71.0598 13.6343L 70 15.3304ZM 20.2062 30.6608L 18.9973 32.2541C 19.47 32.6127 20.0775 32.743 20.6556 32.6097C 21.2337 32.4763 21.7228 32.0932 21.9907 31.5638L 20.2062 30.6608ZM 0 15.3304C 1.74621 16.3055 1.74589 16.306 1.74559 16.3066C 1.74552 16.3067 1.74524 16.3072 1.74509 16.3075C 1.74515 16.3074 1.74437 16.3088 1.74449 16.3085C 1.74425 16.309 1.74437 16.3088 1.74483 16.3079C 1.74669 16.3047 1.74802 16.3023 1.7517 16.2959C 1.76097 16.2797 1.77176 16.2611 1.7901 16.23C 1.83075 16.1611 1.88461 16.0714 1.96485 15.9432C 2.13384 15.6729 2.36856 15.3122 2.70011 14.8475C 3.38259 13.8886 4.3387 12.6679 5.65673 11.3494C 8.33837 8.64833 11.9589 5.94444 16.9229 5.18211L 16.273 1.23527C 10.4123 2.25554 5.73379 5.61251 2.82265 8.52664C 1.34429 10.0158 0.18055 11.4913 -0.557714 12.5266C -0.936535 13.0591 -1.23742 13.5201 -1.42643 13.8221C -1.52519 13.9801 -1.60593 14.1143 -1.65514 14.1977C -1.68173 14.2428 -1.70468 14.2824 -1.71791 14.3055C -1.72549 14.3187 -1.73261 14.3312 -1.73638 14.3379C -1.73873 14.342 -1.7412 14.3464 -1.74237 14.3485C -1.74319 14.35 -1.74416 14.3517 -1.74456 14.3524C -1.74488 14.353 -1.7453 14.3537 -1.74546 14.354C -1.74585 14.3547 -1.74621 14.3553 0 15.3304ZM 16.9229 5.18211C 22.0453 4.31708 26.0112 4.84664 30.4485 4.94088C 34.8779 5.02958 39.815 4.61419 46.2631 1.83338L 44.6647 -1.83338C 38.8448 0.733624 34.7613 1.03128 30.5309 0.941723C 26.3084 0.857698 21.9753 0.317694 16.273 1.23527L 16.9229 5.18211ZM 44.4041 1.69614L 68.9402 17.0265L 71.0598 13.6343L 46.5237 -1.69614L 44.4041 1.69614ZM 69.0047 13.5956C 63.9307 16.5067 58.0245 16.8065 51.7759 16.6732C 45.7561 16.5449 39.1346 15.9679 33.673 17.7025L 34.8837 21.5148C 39.5252 20.0407 45.1718 20.5333 51.6906 20.6723C 57.9806 20.8065 64.8837 20.5715 70.9953 17.0652L 69.0047 13.5956ZM 33.673 17.7025C 28.2915 19.4452 24.3644 22.4953 22.0071 24.9569C 20.8006 26.2255 19.8852 27.4394 19.3263 28.2665C 19.0361 28.6976 18.8063 29.0736 18.6672 29.3127C 18.593 29.4406 18.5308 29.5527 18.4946 29.6195C 18.4743 29.657 18.4559 29.6918 18.4459 29.7108C 18.4398 29.7224 18.4337 29.7342 18.4307 29.74C 18.4287 29.7439 18.4264 29.7484 18.4254 29.7503C 18.4247 29.7518 18.4237 29.7537 18.4234 29.7544C 18.4231 29.755 18.4226 29.7559 18.4225 29.7562C 18.4221 29.757 18.4217 29.7578 20.2062 30.6608C 21.9907 31.5638 21.9903 31.5646 21.99 31.5653C 21.9899 31.5654 21.9896 31.5661 21.9894 31.5665C 21.9895 31.5662 21.9881 31.569 21.9884 31.5684C 21.9884 31.5684 21.9874 31.5704 21.9875 31.5702C 21.9866 31.572 21.9881 31.569 21.9899 31.5656C 21.9955 31.5548 22.0006 31.5451 22.0119 31.5244C 22.0387 31.4747 22.0717 31.4151 22.1257 31.3223C 22.2432 31.1199 22.4024 30.8582 22.6421 30.5038C 23.1432 29.76 23.8515 28.8124 24.9001 27.7191C 27.0531 25.4568 30.1621 22.9808 34.8837 21.5148L 33.673 17.7025ZM 21.415 29.0675L 1.20885 13.7371L -1.20885 16.9237L 18.9973 32.2541L 21.415 29.0675Z"/>
<path id="path12_stroke" d="M 0.529883 -0.84807C 0.0615071 -1.14072 -0.555424 -0.99826 -0.84807 -0.529883C -1.14072 -0.0615071 -0.99826 0.555424 -0.529883 0.84807L 0.529883 -0.84807ZM 24.0062 16.1785C 24.4746 16.4711 25.0915 16.3287 25.3842 15.8603C 25.6768 15.3919 25.5343 14.775 25.066 14.4823L 24.0062 16.1785ZM -0.529883 0.84807L 24.0062 16.1785L 25.066 14.4823L 0.529883 -0.84807L -0.529883 0.84807Z"/>
<path id="path13_stroke" d="M 1.29257 13.8042C 0.44967 13.0903 -0.812332 13.1949 -1.5262 14.0378C -2.24006 14.8807 -2.13546 16.1427 -1.29257 16.8566L 1.29257 13.8042ZM 18.4021 17.4695L 18.8932 19.4083L 18.4021 17.4695ZM 50.6483 1.80826C 51.647 1.33633 52.074 0.14417 51.6021 -0.854507C 51.1301 -1.85318 49.938 -2.28019 48.9393 -1.80826L 50.6483 1.80826ZM -1.29257 16.8566C 0.0425756 17.9845 2.2487 19.4807 5.50276 20.2263C 8.76096 20.9327 13.0537 20.8877 18.8932 19.4083L 17.9109 15.5308C 12.4926 16.9035 8.84729 16.8585 6.35034 16.3171C 3.84924 15.8149 2.4832 14.8154 1.29257 13.8042L -1.29257 16.8566ZM 18.8932 19.4083C 26.1973 17.5372 32.2799 13.9906 37.3867 10.5229C 42.5033 7.04522 46.7049 3.65649 50.6483 1.80826L 48.9393 -1.80826C 44.5837 0.265244 40.1255 3.82867 35.1391 7.21407C 30.1428 10.6093 24.679 13.8366 17.9109 15.5308L 18.8932 19.4083Z"/>
<path id="path14_stroke" d="M -0.50121 10.8999C -0.979116 11.1767 -1.14214 11.7885 -0.865326 12.2664C -0.588515 12.7443 0.0233035 12.9073 0.50121 12.6305L -0.50121 10.8999ZM 43.3811 0.896556C 43.8762 0.651932 44.0793 0.0522229 43.8347 -0.442931C 43.5901 -0.938085 42.9904 -1.14118 42.4952 -0.896556L 43.3811 0.896556ZM 0.50121 12.6305C 5.54222 9.71069 12.4597 8.57315 20.1478 7.26961C 27.7732 5.97672 36.0328 4.51558 43.3811 0.896556L 42.4952 -0.896556C 35.4105 2.61484 27.433 4.00587 19.8135 5.29776C 12.2568 6.579 4.9217 7.75884 -0.50121 10.8999L 0.50121 12.6305Z"/>
<path id="path15_stroke_2x" d="M 20.3711 3.56521C 20.3711 3.14266 20.638 3.0923 20.2885 3.35569C 19.8941 3.66629 19.3772 3.90153 18.4876 4.18065C 16.6243 4.78185 14.1327 5.13544 11.1856 5.13042L 11.1856 9.13042C 14.416 9.1254 17.5173 8.68089 19.7023 7.99174C 20.8369 7.62569 21.9581 7.09268 22.6958 6.55021C 23.4783 5.96054 24.3711 4.97227 24.3711 3.56521L 20.3711 3.56521ZM 11.1856 5.13042C 8.23838 5.13544 5.74687 4.78185 3.88354 4.18065C 2.99391 3.90153 2.47701 3.66629 2.08266 3.35569C 1.73313 3.0923 2 3.14266 2 3.56521L -2 3.56521C -2 4.97227 -1.10714 5.96054 -0.324629 6.55021C 0.41307 7.09268 1.53425 7.62569 2.66882 7.99174C 4.85386 8.68089 7.95513 9.1254 11.1856 9.13042L 11.1856 5.13042ZM 2 3.56521C 2 3.98776 1.73313 4.03813 2.08266 3.77473C 2.47701 3.46413 2.99391 3.2289 3.88354 2.94977C 5.74687 2.34857 8.23838 1.99498 11.1856 2L 11.1856 -2C 7.95513 -1.99498 4.85386 -1.55047 2.66882 -0.861322C 1.53425 -0.495268 0.41307 0.0377372 -0.324629 0.580211C -1.10714 1.16989 -2 2.15815 -2 3.56521L 2 3.56521ZM 11.1856 2C 14.1327 1.99498 16.6243 2.34857 18.4876 2.94977C 19.3772 3.2289 19.8941 3.46413 20.2885 3.77473C 20.638 4.03813 20.3711 3.98776 20.3711 3.56521L 24.3711 3.56521C 24.3711 2.15815 23.4783 1.16989 22.6958 0.580211C 21.9581 0.0377372 20.8369 -0.495268 19.7023 -0.861322C 17.5173 -1.55047 14.416 -1.99498 11.1856 -2L 11.1856 2Z"/>
</defs>
</svg>
