<svg width="76" height="116" viewBox="0 0 76 116" version="1.1" xmlns="http://www.w3.org/2000/svg" xmlns:xlink="http://www.w3.org/1999/xlink" xmlns:figma="http://www.figma.com/figma/ns">
<title>sloth - hanging arm</title>
<desc>Created using Figma</desc>
<g id="Canvas" transform="translate(1695 -1800)" figma:type="canvas">
<g id="sloth - hanging arm" style="mix-blend-mode:normal;" figma:type="frame">
<g id="hanging arm fill" style="mix-blend-mode:normal;" filter="url(#filter0_d)" figma:type="vector">
<use xlink:href="#path0_fill" transform="matrix(0.939693 0.34202 0.34202 -0.939693 -1700.83 1908.31)" fill="url(#paint0_linear)" style="mix-blend-mode:normal;"/>
</g>
<g id="hanging arm" style="mix-blend-mode:normal;" figma:type="vector">
<use xlink:href="#path1_stroke" transform="matrix(0.939693 0.34202 0.34202 -0.939693 -1700.83 1908.31)" fill="#500960" style="mix-blend-mode:normal;"/>
</g>
<g id="Vector 15" style="mix-blend-mode:normal;" figma:type="vector">
<use xlink:href="#path2_stroke" transform="matrix(0.993442 0.114335 -0.114335 0.993442 -1663.25 1855)" fill="#794B39" style="mix-blend-mode:normal;"/>
</g>
<g id="claw" style="mix-blend-mode:normal;" figma:type="vector">
<use xlink:href="#path3_stroke" transform="matrix(0.990926 0.13441 -0.13441 0.990926 -1680.66 1892.17)" fill="#500960" style="mix-blend-mode:normal;"/>
</g>
<g id="claw" style="mix-blend-mode:normal;" figma:type="vector">
<use xlink:href="#path3_stroke" transform="matrix(0.999554 0.029847 -0.029847 0.999554 -1675.67 1897)" fill="#500960" style="mix-blend-mode:normal;"/>
</g>
<g id="claw" style="mix-blend-mode:normal;" figma:type="vector">
<use xlink:href="#path3_stroke" transform="matrix(0.999994 0.00332779 -0.00332779 0.999994 -1668.2 1898)" fill="#500960" style="mix-blend-mode:normal;"/>
</g>
</g>
</g>
<defs>
<filter id="filter0_d" filterUnits="userSpaceOnUse" x="-1695" y="1800" width="76" height="116" color-interpolation-filters="sRGB">
<feFlood flood-opacity="0" result="BackgroundImageFix"/>
<desc>type="dropShadow" x="0" y="4" size="4" spread="0" color="0,0,0,0.25" blend="normal"</desc>
<feColorMatrix in="SourceAlpha" type="matrix" values="0 0 0 0 0 0 0 0 0 0 0 0 0 0 0 0 0 0 255 0"/>
<feOffset dx="0" dy="4"/>
<feGaussianBlur stdDeviation="2"/>
<feColorMatrix type="matrix" values="0 0 0 0 0 0 0 0 0 0 0 0 0 0 0 0 0 0 0.25 0"/>
<feBlend mode="normal" in2="BackgroundImageFix" result="effect1_dropShadow"/>
<feBlend mode="normal" in="SourceGraphic" in2="effect1_dropShadow" result="shape"/>
</filter>
<linearGradient id="paint0_linear" x1="0" y1="0" x2="1" y2="0" gradientUnits="userSpaceOnUse" gradientTransform="matrix(27.0835 -1.31627 0.452215 9.30478 12.1065 58.9051)">
<stop offset="0" stop-color="#A88762"/>
<stop offset="1" stop-color="#7D6450"/>
</linearGradient>
<path id="path0_fill" d="M 14.1671 26.3458C 14.0081 17.1402 25.4067 11.9014 32.0504 18.2756L 37.035 23.0579C 39.0065 24.9495 40.1185 27.5639 40.0229 30.2944C 39.5341 44.2647 36.6349 89.0679 19.4573 113.369C 17.8782 115.603 15.2466 116.809 12.5131 116.7C 6.25615 116.451 3.5665 109.728 5.74833 103.859C 13.5242 82.9402 14.5686 49.5915 14.1671 26.3458Z"/>
<path id="path1_stroke" d="M 32.0504 18.2756L 30.6658 19.7188L 32.0504 18.2756ZM 37.035 23.0579L 38.4196 21.6148L 37.035 23.0579ZM 39.3995 41.275L 41.3936 41.4286L 41.3936 41.4286L 39.3995 41.275ZM 33.7557 69.0694C 33.5487 70.1544 34.2604 71.2018 35.3454 71.4088C 36.4304 71.6157 37.4778 70.904 37.6848 69.819L 33.7557 69.0694ZM 38.2093 66.9667C 38.4019 65.879 37.6764 64.8411 36.5888 64.6485C 35.5011 64.4559 34.4632 65.1814 34.2706 66.269L 38.2093 66.9667ZM 35.5044 58.5393C 35.3482 59.6328 36.108 60.6459 37.2014 60.8021C 38.2949 60.9583 39.308 60.1986 39.4642 59.1051L 35.5044 58.5393ZM 35.9546 77.9766C 36.207 76.9013 35.54 75.8249 34.4647 75.5724C 33.3893 75.3199 32.3129 75.987 32.0605 77.0623L 35.9546 77.9766ZM 12.2363 36.6143C 12.2318 37.7189 13.1235 38.618 14.228 38.6226C 15.3326 38.6271 16.2317 37.7354 16.2363 36.6309L 12.2363 36.6143ZM 15.8976 52.0052C 15.9432 50.9015 15.0854 49.9699 13.9818 49.9244C 12.8782 49.8788 11.9466 50.7365 11.901 51.8401L 15.8976 52.0052ZM 14.1674 26.3637L 12.1677 26.3981L 14.1674 26.3637ZM 40.0229 30.2944L 42.0217 30.3643L 40.0229 30.2944ZM 19.4604 113.364L 17.8272 112.21L 19.4604 113.364ZM 5.75392 103.844L 3.87909 103.147L 5.75392 103.844ZM 39.3995 41.275L 37.4054 41.1214L 37.4054 41.1214L 39.3995 41.275ZM 30.6658 19.7188L 35.6503 24.5011L 38.4196 21.6148L 33.435 16.8324L 30.6658 19.7188ZM 38.0242 30.2244C 37.9316 32.872 37.7533 36.6085 37.4054 41.1214L 41.3936 41.4286C 41.7455 36.8576 41.9281 33.0373 42.0217 30.3643L 38.0242 30.2244ZM 34.2706 66.269C 34.1057 67.2002 33.9349 68.1298 33.7557 69.0694L 37.6848 69.819C 37.8666 68.8659 38.0421 67.9104 38.2093 66.9667L 34.2706 66.269ZM 37.4054 41.1214C 37.0173 46.1625 36.4235 52.1106 35.5044 58.5393L 39.4642 59.1051C 40.3944 52.5924 41.0017 46.5149 41.3936 41.4286L 37.4054 41.1214ZM 32.0605 77.0623C 29.0268 89.9959 24.5761 102.693 17.8272 112.21L 21.0937 114.518C 28.13 104.529 32.8661 91.1185 35.9546 77.9766L 32.0605 77.0623ZM 16.2363 36.6309C 16.2511 33.0433 16.2232 29.5819 16.1671 26.3292L 12.1677 26.3981C 12.2235 29.6325 12.2511 33.0512 12.2363 36.6143L 16.2363 36.6309ZM 7.62875 104.54C 12.9435 90.2325 15.1376 70.4118 15.8976 52.0052L 11.901 51.8401C 11.144 70.1743 8.96227 89.4631 3.87909 103.147L 7.62875 104.54ZM 33.435 16.8324C 25.4284 9.15052 11.9803 15.5254 12.1677 26.3981L 16.1671 26.3292C 16.0372 18.7907 25.385 14.6522 30.6658 19.7188L 33.435 16.8324ZM 35.6503 24.5011C 37.23 26.0167 38.0989 28.0882 38.0242 30.2244L 42.0217 30.3643C 42.138 27.0394 40.783 23.8823 38.4196 21.6148L 35.6503 24.5011ZM 12.4335 118.698C 15.7984 118.833 19.0981 117.342 21.0937 114.518L 17.8272 112.21C 16.6651 113.854 14.6948 114.785 12.5928 114.702L 12.4335 118.698ZM 12.5928 114.702C 10.276 114.609 8.66342 113.363 7.77118 111.511C 6.84862 109.597 6.70983 107.014 7.62875 104.54L 3.87909 103.147C 2.61752 106.544 2.72984 110.264 4.16777 113.248C 5.63601 116.295 8.49326 118.541 12.4335 118.698L 12.5928 114.702ZM 37.4054 41.1214L 37.4054 41.1214L 41.3936 41.4286L 41.3936 41.4286L 37.4054 41.1214Z"/>
<path id="path2_stroke" d="M 4.54608 0.137278C 4.6219 -0.409778 4.23988 -0.914716 3.69283 -0.990533C 3.14577 -1.06635 2.64083 -0.684334 2.56502 -0.137278L 4.54608 0.137278ZM 0 16.9656L -0.918792 16.5708C -1.0891 16.9672 -0.985971 17.4282 -0.662975 17.7142C -0.339979 18.0003 0.130049 18.0469 0.502952 17.8299L 0 16.9656ZM 4.88889 12.4138L 5.88416 12.3166C 5.84138 11.8785 5.51705 11.5198 5.08536 11.4333C 4.65368 11.3468 4.2162 11.5528 4.0079 11.9407L 4.88889 12.4138ZM 3.55555 24L 2.81043 23.3331C 2.4938 23.6868 2.46954 24.2144 2.75238 24.5958C 3.03522 24.9771 3.54717 25.1069 3.97758 24.9066L 3.55555 24ZM 8.91879 20.6706C 9.1368 20.1632 8.90218 19.5751 8.39474 19.3571C 7.88731 19.1391 7.29922 19.3737 7.08121 19.8811L 8.91879 20.6706ZM 2.56502 -0.137278C 2.26994 1.99213 1.74085 5.3796 1.10708 8.65497C 0.466864 11.9645 -0.257093 15.0307 -0.918792 16.5708L 0.918792 17.3603C 1.6793 15.5902 2.43682 12.3115 3.07068 9.03481C 3.71098 5.72394 4.24856 2.28377 4.54608 0.137278L 2.56502 -0.137278ZM 0.502952 17.8299C 3.49861 16.0867 5.23344 13.8858 5.76989 12.8869L 4.0079 11.9407C 3.65545 12.597 2.19027 14.5341 -0.502952 16.1013L 0.502952 17.8299ZM 3.89363 12.511C 4.03961 14.0028 4.14819 16.3216 4.00211 18.5349C 3.93045 19.6393 3.80375 20.6541 3.58442 21.5399C 3.36573 22.43 3.09022 23.0205 2.81043 23.3331L 4.30067 24.6669C 4.90976 23.9864 5.28239 23.0113 5.52667 22.017C 5.7703 21.0183 5.92138 19.8297 5.99786 18.6652C 6.1481 16.3405 6.03446 13.8593 5.88416 12.3166L 3.89363 12.511ZM 3.97758 24.9066C 6.98616 23.506 8.5026 21.6393 8.91879 20.6706L 7.08121 19.8811C 6.9048 20.2917 5.81384 21.8457 3.13352 23.0934L 3.97758 24.9066Z"/>
<path id="path3_stroke" d="M 7.25243 0.963837C 7.78474 -0.00400387 7.43168 -1.22012 6.46384 -1.75243C 5.496 -2.28474 4.27988 -1.93168 3.74757 -0.963837L 7.25243 0.963837ZM -1.75243 9.03616C -2.28474 10.004 -1.93168 11.2201 -0.963837 11.7524C 0.00400387 12.2847 1.22012 11.9317 1.75243 10.9638L -1.75243 9.03616ZM 3.74757 -0.963837L -1.75243 9.03616L 1.75243 10.9638L 7.25243 0.963837L 3.74757 -0.963837Z"/>
</defs>
</svg>
