<svg width="226" height="33" viewBox="0 0 226 33" version="1.1" xmlns="http://www.w3.org/2000/svg" xmlns:xlink="http://www.w3.org/1999/xlink" xmlns:figma="http://www.figma.com/figma/ns">
<title>Prop</title>
<desc>Created using Figma</desc>
<g id="Canvas" transform="translate(1052 -2009)" figma:type="canvas">
<g id="Prop" style="mix-blend-mode:normal;" figma:type="frame">
<g id="fills" style="mix-blend-mode:normal;" figma:type="frame">
<g id="Rectangle 12" style="mix-blend-mode:normal;" figma:type="vector">
<use xlink:href="#path0_fill" transform="translate(-1051 2014)" fill="url(#paint0_linear)" style="mix-blend-mode:normal;"/>
</g>
</g>
<g id="strokes" style="mix-blend-mode:normal;" figma:type="frame">
<g id="Vector" style="mix-blend-mode:normal;" figma:type="vector">
<use xlink:href="#path1_stroke" transform="matrix(2.68849e-16 1 1 -1.32259e-16 -1050 2037)" fill="#500960" style="mix-blend-mode:normal;"/>
</g>
<g id="Vector" style="mix-blend-mode:normal;" figma:type="vector">
<use xlink:href="#path2_stroke" transform="matrix(2.68849e-16 1 1 -1.32259e-16 -1030 2014)" fill="#500960" style="mix-blend-mode:normal;"/>
</g>
<g id="Ellipse 19" style="mix-blend-mode:normal;" figma:type="vector">
<use xlink:href="#path3_stroke" transform="translate(-833.5 2014)" fill="#500960" style="mix-blend-mode:normal;"/>
</g>
<g id="Vector" style="mix-blend-mode:normal;" figma:type="vector">
<use xlink:href="#path4_stroke" transform="matrix(0.950307 -0.311314 0.311314 0.950307 -920.619 2012.22)" fill="#500960" style="mix-blend-mode:normal;"/>
</g>
<g id="Vector" style="mix-blend-mode:normal;" figma:type="vector">
<use xlink:href="#path5_stroke" transform="translate(-915 2011.02)" fill="#500960" style="mix-blend-mode:normal;"/>
</g>
</g>
</g>
</g>
<defs>
<linearGradient id="paint0_linear" x1="0" y1="0" x2="1" y2="0" gradientUnits="userSpaceOnUse" gradientTransform="matrix(1.36548e-14 23 -223 1.40834e-15 223 -1.40834e-15)">
<stop offset="0" stop-color="#A78661"/>
<stop offset="1" stop-color="#4E3E31"/>
</linearGradient>
<path id="path0_fill" d="M 4.44249 7.28043C 5.65962 2.97365 9.59012 0 14.0656 0L 218 0C 218 0 223 0 223 11.5C 223 23 218 23 218 23L 0 23L 4.44249 7.28043Z"/>
<path id="path1_stroke" d="M -2 210C -2 211.105 -1.10457 212 2.3147e-13 212C 1.10457 212 2 211.105 2 210L -2 210ZM 2 2.10717e-15C 2 -1.10457 1.10457 -2 9.06085e-14 -2C -1.10457 -2 -2 -1.10457 -2 -2.10717e-15L 2 2.10717e-15ZM -2 84C -2 85.1046 -1.10457 86 -2.10717e-15 86C 1.10457 86 2 85.1046 2 84L -2 84ZM 2 99C 2 97.8954 1.10457 97 -4.09682e-15 97C -1.10457 97 -2 97.8954 -2 99L 2 99ZM 2 84L 2 2.10717e-15L -2 -2.10717e-15L -2 84L 2 84ZM 2 210L 2 99L -2 99L -2 210L 2 210Z"/>
<path id="path2_stroke" d="M -2 196C -2 197.105 -1.10457 198 -1.18458e-14 198C 1.10457 198 2 197.105 2 196L -2 196ZM 2 1.82293e-14C 2 -1.10457 1.10457 -2 1.82293e-14 -2C -1.10457 -2 -2 -1.10457 -2 -1.82293e-14L 2 1.82293e-14ZM -9.11465e-14 10L -2 10L -9.11465e-14 10ZM -2 14.5C -2 15.6046 -1.10457 16.5 -9.11465e-14 16.5C 1.10457 16.5 2 15.6046 2 14.5L -2 14.5ZM 2 32.5C 2 31.3954 1.10457 30.5 -9.11465e-14 30.5C -1.10457 30.5 -2 31.3954 -2 32.5L 2 32.5ZM -2 145C -2 146.105 -1.10457 147 -9.11465e-14 147C 1.10457 147 2 146.105 2 145L -2 145ZM 2 173C 2 171.895 1.10457 171 1.48073e-13 171C -1.10457 171 -2 171.895 -2 173L 2 173ZM -2 161.5C -2 162.605 -1.10457 163.5 -9.11465e-14 163.5C 1.10457 163.5 2 162.605 2 161.5L -2 161.5ZM 2 157C 2 155.895 1.10457 155 -9.11465e-14 155C -1.10457 155 -2 155.895 -2 157L 2 157ZM 2 10L 2 1.82293e-14L -2 -1.82293e-14L -2 10L 2 10ZM 2 14.5L 2 10L -2 10L -2 14.5L 2 14.5ZM 2 145L 2 32.5L -2 32.5L -2 145L 2 145ZM 2 196L 2 173L -2 173L -2 196L 2 196ZM 2 161.5L 2 157L -2 157L -2 161.5L 2 161.5Z"/>
<path id="path3_stroke" d="M 0 -2C -1.10457 -2 -2 -1.10457 -2 0C -2 1.10457 -1.10457 2 0 2L 0 -2ZM 2.32018 18.2384C 1.89957 19.2598 2.38657 20.4287 3.40793 20.8493C 4.42928 21.2699 5.59822 20.7829 6.01883 19.7616L 2.32018 18.2384ZM 0 2C 0.306192 2 1.1746 2.32799 2.08482 4.23118C 2.99135 6.09465 3.51111 8.53491 3.5 11.5L 7.5 11.5C 7.48889 8.11381 6.77743 4.80407 5.69336 2.50536C 4.61297 0.24637 2.73137 -2 0 -2L 0 2ZM 3.5 11.5C 3.50892 14.1769 3.08213 16.4149 2.32018 18.2384L 6.01883 19.7616C 6.91531 17.558 7.49108 14.5543 7.5 11.5L 3.5 11.5Z"/>
<path id="path4_stroke" d="M -1.49839 27.6129C -2.23 28.4404 -2.15223 29.7044 -1.32469 30.436C -0.497153 31.1676 0.766787 31.0898 1.49839 30.2623L -1.49839 27.6129ZM 3.06825 13.7315L 1.06832 13.715L 3.06825 13.7315ZM 2.02623 -0.896057C 1.53135 -1.88356 0.329639 -2.28292 -0.657868 -1.78804C -1.64537 -1.29316 -2.04473 -0.0914496 -1.54985 0.896057L 2.02623 -0.896057ZM 1.49839 30.2623C 2.08526 29.5985 2.51801 28.4851 2.83987 27.5187C 3.19419 26.4519 3.56665 25.0563 3.88815 23.5681C 4.5238 20.6138 5.03775 16.9249 5.06819 13.748L 1.06832 13.715C 1.04861 16.6302 0.585451 19.9143 -0.0219823 22.725C -0.322028 24.1193 -0.637599 25.3042 -0.955179 26.2548C -1.2564 27.1674 -1.59559 27.6889 -1.49839 27.6129L 1.49839 30.2623ZM 5.06819 13.748C 5.12112 7.31723 3.24375 1.53346 2.02623 -0.896057L -1.54985 0.896057C -0.595728 2.79996 1.11568 7.96153 1.06832 13.715L 5.06819 13.748Z"/>
<path id="path5_stroke" d="M -1.49839 27.6129C -2.23 28.4404 -2.15223 29.7044 -1.32469 30.436C -0.497153 31.1676 0.766787 31.0898 1.49839 30.2623L -1.49839 27.6129ZM 3.06825 13.7315L 1.06832 13.715L 3.06825 13.7315ZM 2.02623 -0.896057C 1.53135 -1.88356 0.329639 -2.28292 -0.657868 -1.78804C -1.64537 -1.29316 -2.04473 -0.0914495 -1.54985 0.896057L 2.02623 -0.896057ZM 1.49839 30.2623C 2.08526 29.5985 2.51801 28.4851 2.83987 27.5187C 3.19419 26.4519 3.56665 25.0563 3.88815 23.5681C 4.5238 20.6138 5.03775 16.9249 5.06819 13.748L 1.06832 13.715C 1.04861 16.6302 0.58545 19.9143 -0.0219825 22.725C -0.322028 24.1193 -0.637599 25.3042 -0.955179 26.2548C -1.2564 27.1674 -1.59559 27.6889 -1.49839 27.6129L 1.49839 30.2623ZM 5.06819 13.748C 5.12112 7.31723 3.24376 1.53346 2.02623 -0.896057L -1.54985 0.896057C -0.595728 2.79996 1.11568 7.96153 1.06832 13.715L 5.06819 13.748Z"/>
</defs>
</svg>
